<svg xmlns="http://www.w3.org/2000/svg" style="display:none" aria-hidden="true">
  <symbol id="al" viewBox="0 0 246.721 400"><path d="M64.301 399.846c4.3-7.448 7.826-15.234 6.944-18.768-0.917-3.667-4.038-9.54-7.055-15.221-4.123-7.764-7.684-14.468-7.684-18.555a7.535 7.535 0 0 1 2.279-5.612c4.047-3.948 13.781-6.2 49.686-5.309 43.545 1.094 71.608 1.626 126.674-0.293a3.488 3.488 0 0 0 3.318-4.078c-4.712-26.765-10.028-58.2-10.028-65.388 0-6.679 5.412-14.03 10.646-21.137 3.5-4.756 6.809-9.248 7.532-12.382 0.837-3.624-3.315-11.543-7.714-19.928-4.458-8.5-9.513-18.139-12.322-28.122-5.141-18.283-24.346-145.98-29.323-179.349a6.672 6.672 0 0 0-6.673-5.7c-54.841 0.59-112.674 1.236-164.07 1.819a4.155 4.155 0 0 0-3.578 6.151 15.447 15.447 0 0 1 2.132 6.691c0 1.359-0.779 6.44-2.7 18.824-5.41 34.878-16.666 107.448-20.6 172.871-3.711 61.721-0.7 141.955 1.249 181.675a7.052 7.052 0 0 0 6.852 6.721c5.256 0.114 8.5-0.9 8.947-4.374 2.769-5.908 0.7-21.66 9.979-21.194 10.635 4.306 2.364 20.256 12.018 26.442 6.071 3.839 14.292 4.8 23.495 4.219"/></symbol>
  <symbol id="ak" viewBox="0 0 384.088 397.469"><path d="M272.361 57.092c0.365 22.063 1.57 100.813 2.294 218.835a4.46 4.46 0 0 0 4.063 4.422c20.8-2.532 25 27.669 36.423 22.86 5.484-3.607 12.963-14.593 18.6-5.126 12.814 14.4 20.612 31.4 29.292 48.489 3.3 9.656 10.418 12.093 17.43 17.532 7.7 6.074 2.407 31.043-9.017 21.122-9.6-7.389-20.671-15.877-30.44-23.4-8.822-6.543-11.7-17.636-17.453-26.6-7.622-16.7-22.754-25.858-40.023-37.328-15.7-8.134-59.372-17.7-60.656-18.41-5.633-8.386-8.014-15.3-18.768-6.921-10.06 8.933-4.906 17.494-21.247 23.941-5.335 2.793-18.175 11.057-20.936 2.882 0.253-3.609 3.369-8 4.3-13.388 0.7-2.983 0.7-12.254-3.532-12.195-4.416 5.347-7.069 12.324-12.18 18.907-5.352 7.811-10.245 10.852-4.993 20.368 2.946 5.53-18.51 18.569-22.665 22.659-4.547 3.4-6 9.361-10.221 12.649-6.689 3.769-13.7 8.436-18.475 14.276-12.752 13.976-43.908 23.874-60.5 33.763-1.7 0.8-4.183 2.209-4.225-0.761-0.4-8.4 3.655-12.4 11.431-16 5.878-3.318 11.623-8.193 17.336-11.272 4.863-2.654 11.869-4.216 15.879-6.714 9.343-8.531 20.362-20.385 26.566-31.013 8.934-22.456-6.915-5.618-16.8-14.319-11.182-9.7-8.35-8.231-21.047-4.016-5.749-4.646 1.948-26.548-16.409-23.675-4.173 0.994-8.777 1.413-12.378-1.38-12.631-8.606-3.525-14.673-13.8-26.35-8.587-13.07 4.266-24.262 10.4-35.048 2.814-5.686 8.6-6.109 14.022-7.733 3.581-1.273 6.53-3.537 10.25-4.944 4.486-1.919 11.835-2 13.348-7.51 1.023-5.183-1.741-10.1-2.7-15.1-0.766-3.159-0.652-8.757-2.117-8.827-3.065-0.092-5.31 3.9-8.748 6.179-4.946 4.24-10.574 1.269-16.092 0.307-10.291-0.714-25.641 1.76-28.651-11.332 2.343-15.908-19.588-11.612-4.67-22.472 41.68-35.37 29.6-3.343 51.47-7.8 2.31-2.113 1.452-5 2.036-8.757 2.78-12.039-5.248-12.817-14.378-14.541-10.378-4.21 1.367-10.723-23.271-27.22-5.422-4.318-9.447-6.443-8.047-14.185 0.874-20.57 25.429 1.061 32.031-29.584 3.3-11.713 12.182-19.96 22.974-24.788 12.144-11.2 12.268-12.244 29.146-15.059 7.562-1.176 12.458-17.14 19.983-11.181 27.623 21.548 19.236 4.465 34.223 12.676 28.651 23.581 19.384 0.157 50.278 16.963 5.829 2.225 12.27 2.552 18.208 3.871 9.545 4.3 18.383 5.163 28.385 0.735 0.4 0 11.718 7.276 18.661 11.76a11.842 11.842 0 0 1 5.424 9.759"/></symbol>
  <symbol id="az" viewBox="0 0 333.214 400"><path d="M329.929 3.455c-152.263-1.286-259.284-3.063-281.9-3.455a2.139 2.139 0 0 0-2.164 2.173c0.2 20.172 0.4 36.217 0.543 47.043a28.639 28.639 0 0 1-7.93 20.169 11.1 11.1 0 0 1-14.693 1.217l-2.03-1.522a8.012 8.012 0 0 0-9.185-0.3l-5.98 3.9a6.951 6.951 0 0 0-3.124 6.47s3.208 54.374 5.086 61.125c2.619 9.41 13.351 40.05 13.989 43.561 0.366 1.325 5.943 4.085 8.938 5.567 4.049 2 7.546 3.732 9.039 5.6a2.946 2.946 0 0 1 0.6 2.28c-0.461 3.651-7.527 9.58-20.405 19.245-1.866 1.4-3.65 2.74-4.554 3.485a2.1 2.1 0 0 0-0.747 1.37c-0.317 2.642 0.556 9.252 1.057 13.044a55.492 55.492 0 0 1 0.795 8.859c-0.286 3.442-4.343 6.3-9.212 9.42-0.328 0.209-0.684 0.437-1.019 0.655a2.132 2.132 0 0 0-0.972 1.9c0.065 1.26 0.159 2.981 0.252 4.668 0.294 5.41 0.658 12.038 0.712 14.453a1.949 1.949 0 0 0 0.37 1.142c1.741 2.332 8.815 7.933 11.646 10.176 1.425 1.129 2.593 2.055 3.237 2.62 2.323 2.031 1.128 6.033-3.995 13.38a12.794 12.794 0 0 1-10.5 5.442h-5.233a2.134 2.134 0 0 0-1.238 0.394l-0.449 0.318a2.173 2.173 0 0 0-0.685 2.632 14.3 14.3 0 0 1 0.689 6.27 2.185 2.185 0 0 0 0.918 1.964c21.906 15.244 153.514 57.131 208.217 79.067a2.231 2.231 0 0 0 0.332 0.1c15.7 3.57 75.4 1.636 120.774 1.142a2.128 2.128 0 0 0 2.1-2.145l-1.155-391.3a2.149 2.149 0 0 0-2.132-2.134"/></symbol>
  <symbol id="ar" viewBox="0 0 395.06 341.261"><path d="M308.391 215.535c6.415-6.184 13.684-13.19 13.869-16.326 0.571-9.714 6.99-24.413 16.751-38.355 5.273-7.531 11.972-13.769 17.357-18.784 3.924-3.655 8.811-8.2 8.811-9.811 0-1.825-3.394-5.816-5.872-8.729-3.41-4.011-6.63-7.8-6.945-11.26-0.327-3.61 4.915-10.2 23.115-31.006 6.318-7.222 14.7-17.666 19.056-23.172a2.417 2.417 0 0 0-1.793-3.916c-13-0.564-48.557-2.214-51.029-3.45a3.529 3.529 0 0 1-1.812-2.209c-0.932-3.218 2.058-8.642 9.63-21.18 1.935-3.2 4.386-7.263 6.275-10.726a8.272 8.272 0 0 0-3.346-11.266 101.556 101.556 0 0 0-11.9-5.274c-75.347-0.529-292.915 2.058-336.582 2.592a4.022 4.022 0 0 0-3.927 4.653c4.3 27.28 10.449 51.333 13.136 91.451 0.572 8.538-0.5 45.374-2.114 84.418-1.352 32.814-2.968 72.018-2.676 89.066a11.268 11.268 0 0 0 7.692 10.483 47.777 47.777 0 0 0 10.222 2.457c3.834 0.271 18.489 2.866 20.137 10.576 0.4 1.844 0.851 14.962 1.407 36.345a7.633 7.633 0 0 0 7.549 7.442c29.216 0.3 119.08 1.193 213.789 1.707a7.692 7.692 0 0 0 7.4-5.4c1.066-3.443 2.526-7.419 4.039-11.526 2.086-5.66 4.244-11.511 4.645-14.332 0.484-3.379-0.581-10.918-1.612-18.21-0.919-6.507-1.869-13.234-1.869-17.931 0-10.18 0-19.8 6.563-34.613 3.405-7.687 12.239-16.2 20.033-23.716"/></symbol>
  <symbol id="ca" viewBox="0 0 343.307 399.633"><path d="M342.34 333.031a2.933 2.933 0 0 0-0.651-4.8c-0.379-0.191-0.765-0.382-1.14-0.567-3.748-1.854-6.045-3.1-6.35-4.784-0.292-1.6-5.086-16.121-7.679-23.891a3.09 3.09 0 0 0-1.359-1.593 2.291 2.291 0 0 1-0.273-0.206c-13.043-11.665-82.765-74.284-174.795-161.872a11.328 11.328 0 0 1-3.5-8.111c-0.105-22.116-0.456-93.96-0.714-124.3a2.935 2.935 0 0 0-2.957-2.911l-134.888 0.895a2.939 2.939 0 0 0-2.921 2.958 23.189 23.189 0 0 0 0.322 4.716c0.718 5.443 5.468 11.426 5.137 18.235a63.476 63.476 0 0 1-6.4 28.763 3.143 3.143 0 0 1-0.269 0.441c-4.145 5.676-4.793 13.968-2.849 20.362a2.936 2.936 0 0 0 1.2 1.562c31.875 21.237 6.526 23.131 19.266 49.048a2.771 2.771 0 0 1 0.186 0.494c3.433 12.755 15.3 18.085 23.71 30.35 4.109 4.241 1.108 10.313 4.078 14.6a2.926 2.926 0 0 0 0.508 0.557c3.484 2.94 10.748 4.454 11.787 9.878 1.986 12.622 1.847 27.7 14.156 34.237a3.071 3.071 0 0 0 0.659 0.267c2.864 0.764 6.627-0.2 8.068 1.922a2.42 2.42 0 0 1 0.384 1.243c0.415 7.854-4.781 16.229-2.008 24.231a3.018 3.018 0 0 0 0.389 0.746c9.816 13.788 30.935 30.641 33.83 41.951 1.03 3.4 4.434 4.645 6.642 7.028a2.86 2.86 0 0 1 0.429 0.6c2.442 4.543 0.19 13.224 0.626 17.891 1.043 13.991 18.614 8.387 28.458 10.214a2.715 2.715 0 0 0 0.737 0.035c9.814-0.847 13.761 7.712 20.939 12.2a3.053 3.053 0 0 0 1 0.395c19.627 4.093 15.808-0.333 28.5 14.974a3.012 3.012 0 0 0 1.949 1.052c23.268 2.922 30.312 22.545 35.813 41.837a8.283 8.283 0 0 0 3.461 5.42 2.582 2.582 0 0 0 1.122 0.337c14.882 1.253 40.946-3.954 71.08-5.777a15.416 15.416 0 0 0 5.611-1.5c1.668-0.6 3.776-0.283 5.55-0.811a7.315 7.315 0 0 0 4.389-4.378c1.247-3.355-2.4-5.058-4.516-7.047-2.375-2.1-4.157-3.4-3.959-6.958-0.107-2.263-0.284-5.32-0.417-7.732-0.33-2.521 0.433-3.6 2.281-4.807 1.636-1.227 3.972-2.446 4.033-4.7-0.064-3.352-1.014-7.221-0.9-10.671-0.106-2.86 1.95-3.856 3.884-5.371 1.879-1.412 5.758-4.322 8.362-6.66"/></symbol>
  <symbol id="co" viewBox="0 0 399.389 293.999"><path d="M394.085 293.888a5.333 5.333 0 0 0 5.306-5.327c0-181.111 0-267.418 0-286.35a2.2 2.2 0 0 0-2.2-2.211h0c-35.837 0.093-199.245 0.465-392.9 0.219a4.273 4.273 0 0 0-4.28 4.278l0.837 283.606a4.624 4.624 0 0 0 4.583 4.624c111.206 0.91 245.783 1.538 388.662 1.161"/></symbol>
  <symbol id="ct" viewBox="0 0 397.418 285.428"><path d="M394.529 12.967c1.074 15.925 4.142 70.555 2.328 153.058a5.609 5.609 0 0 1-6.153 5.453c-3.138-0.3-6.331-0.322-6.331 0.845 0 2.293 4.745 18.426 4.033 21.985s-12.575 1.661-13.761 1.661-13.76-5.22-26.572 4.745-22.776 13.524-27.522 13.286-145.2-1.661-153.5 1.9-41.045 28.471-45.079 30.369-9.253-6.169-12.337-4.271-9.015 13.286-17.319 14.473-16.134-2.373-22.065 3.558-11.388 14.947-23.725 18.506c-7.7 2.221-18.723 4.9-25.925 6.607a10.7 10.7 0 0 1-11.392-4.515l-8.006-12.126a7.235 7.235 0 0 1 2.095-10.059c12.937-8.4 41.91-27.36 42.279-29.018 0.474-2.136-11.863-12.812-12.575-19.218-0.7-6.3 9.147-114.309 13.313-205.57a4.848 4.848 0 0 1 4.932-4.633c35.653 0.624 263.2 6.142 338.128 8.021a5.3 5.3 0 0 1 5.156 4.945"/></symbol>
  <symbol id="de" viewBox="0 0 164.343 400"><path d="M0.011 39.293c2.144 32.9 18.286 280.872 22.38 349.1a11.466 11.466 0 0 0 11.224 10.783c24.575 0.474 86 1.459 121.181 0.239a9.886 9.886 0 0 0 9.528-10.489c-0.99-16.182-3.068-49.295-5.294-79.488a5.029 5.029 0 0 0-6.189-4.559 13.325 13.325 0 0 1-12.245-2.786c-8.792-7.222-33.125-35.794-33.439-37.992s2.983-14.757-3.611-24.176-13.344-8.635-15.071-18.054-1.256-17.426-2.041-23.078 3.611-10.047 3.14-15.542-0.314-11.3-4.082-17.9-4.4-8.949-8.32-14.443-9.577-5.809-13.659-14.914-12.716-25.276-11.46-31.4 3.454-4.553 5.652-5.5 2.512-1.727 2.355-6.28-3.454-4.081-0.628-7.692 6.279-4.4 2.983-11.146-11.147-5.966-10.048-11.147 6.908-6.593 9.577-12.559 9.89-31.241 16.955-33.753 7.535-2.355 8.163-3.3-3.925-7.064-17.74-11.3-41.759-1.57-50.237 8.948-13.187 20.252-14.6 21.979a7.319 7.319 0 0 1-1.932 1.55 5.263 5.263 0 0 0-2.542 4.891"/></symbol>
  <symbol id="fl" viewBox="0 0 397.418 350.563"><path d="M368.74 152.158c-1.292-14.713-18.187-26.4-21.331-40.689-9.114-29.7-27.638-67.036-28.25-92.846a1.994 1.994 0 0 0-1.928-1.97c-7.88-0.252-17.8-0.758-22.08-0.984a1.887 1.887 0 0 0-1.99 2.038c0.284 3.356 1 8.519 1.488 12.048 0.859 6.2 1.146 8.453 1 9.355a2.242 2.242 0 0 1-1.276 1.666 3.376 3.376 0 0 1-1.427 0.261c-3.9 0-11.3-3.89-11.382-3.937-1.658-0.948-2.787-3.539-4.093-6.54-0.457-1.053-0.944-2.174-1.44-3.162a4.942 4.942 0 0 0-3.854-2.668c-14.375-1.717-79.125-3.753-108.2-4.668-17.7-0.556-20.437-0.655-20.9-0.748-2.993-0.6-8.479-10.792-9.054-14.232-0.044-0.267-0.232-1.332-0.426-2.428a3.228 3.228 0 0 0-3.294-2.652c-41.507 1.46-62.482 1.062-95.124 0.244-21.2-0.533-31.843 0.386-34.5 2.981a2.182 2.182 0 0 0-0.667 1.734c0 2.192 2.827 7.513 5.32 12.206 2.448 4.61 4.762 8.966 5.544 12.1 0.525 2.1-0.157 5.059-1.405 8.22a3.741 3.741 0 0 0 4.11 5.106c15.027-2.744 31.211-8.06 41.207-7.475 16.05 2.362 31.713 12.432 46.764 18.959 29.744 22.221 4.928 42.327 60.741 9.871 10.758-5.938 25.139-12.835 34.444-3.386 11.19 11.117 28.673 34.6 36.811 43.475 10.881 9.179 18.722 1.616 22.568 22.1 7.806 20.442-4.834 41.5-6.179 61.666 2.9 2.811 7.591-3.639 12.619-2.081 4.388 1.08 9.09 5.945 7.045 10.424-11.753 14.106-8.6 22.69-0.986 38.355 9.278 21.164 11.076 7.987 21.924 10.789-0.5 18.059 1.849 16.753 10.172 31.64 2.636 24.752 2.9 16.113 21.235 29.431 11.408 10.093 8.7 33.662 18.47 42.357 9.369 3.151 35.648 3.469 37.4-8.786 50.765-119.017-13.6-104.962-9.068-187.77"/></symbol>
  <symbol id="ga" viewBox="0 0 333.774 399.786"><path d="M174.631 8.409a50.831 50.831 0 0 0 5.851-3.177 7.2 7.2 0 0 0-6.98-5.219c-37.978 0.291-100.3 0.916-168.733 1.647a4.815 4.815 0 0 0-4.715 5.516c10.974 55.791 19.386 173.388 42.036 210.314 5.333 10.166 9.544 18.2 8.3 23.59-2.26 9.442-18.375 23.553-18.456 33.2 0.361 11.253 9.753 63.742 12.973 81.839 1.5 6.006 6.774 16.307 14.966 15.965 5.09 0.172 12.852 0.417 21.7 0.7 128.9 4.055 152.653 5.837 154.894 8.078 2.011 2.011 3.591 5.64 5.117 9.151 1.015 2.333 2.715 6.237 3.648 6.784 2.78 1.679 11.857 6.3 11.614-0.994-2.384-15.922-3.991-29.025-1.244-29.2 10.639 0.139 20.509 1.116 37.561 1.533 7.11-9.648 21.569-78 37.737-96.574 2.316-2.335 4.422-5.987 1.295-8.645-5.625-4.851-10.552-9.588-10.646-9.682-2.051-2.054-1.905-5.963-1.7-11.37 1.249-18.353-4.758-18.377-16.4-38.752-33.751-51.288-37.178-67.619-74.872-96.723-22.6-15.664-20.908-28.393-30.414-52.054-4.136-6.617-36.279-21.413-41.055-27.958-3.943-8.638 6.665-11.747 17.518-17.966"/></symbol>
  <symbol id="hi" viewBox="0 0 401.098 261.208"><path d="M331.97 257.631c-3.483-1.93-8.482-3.12-10.663-6.549-4.733-8.3 3.571-19.423-1.554-28.273-2.812-4.984-3.385-10.63-5.382-15.925-1.108-3.6-6.968-6.752-4.568-10.781 1.993-3.821 5.4-6.35 8.876-8.572a51.745 51.745 0 0 1 3.442-5.286c8.135-6.5-0.333-11.845-1.087-19.332-0.914-14.084 12.759-3.079 18.121 0.808 4.282 3.806 9.878 3.988 15.079 5.621 8.569 3.415 26.1 11.128 27.032 21.4-0.2 9.864 3.017 3.761 7.726 8.016 0.826 9.63 5.752 9.052 11.273 15.684 1.928 3.22-3.366 6.76-5.236 9.076-4.295 5.486-10.376 6.749-15.995 10.063-5.631 2.772-11.08-0.629-16.1 4.32-3.933 2.857-8.161 5.066-12.195 7.685-5.325 4.787-6.869 15.119-12.522 15.119C336.555 260.708 334.539 259.816 331.97 257.631Zm-68.1-123.952c2.3-1.726 5.083-4.26 8.019-4.12 5.213 1.491 0.119 8.562-3.714 8.076a9.891 9.891 0 0 1-1.169 0.066C264.024 137.701 260.332 136.514 263.873 133.679Zm17.189-6.232c-0.368-2.426-0.554-5.152-0.794-7.609 0.008-4.488-2.094-4.46-4.738-4.432a13.4 13.4 0 0 1-3.3-0.247c-5.35-1.78-9.652-6.385-9.005-12.263a6.429 6.429 0 0 1 8.438-4.944c4.449 1.059 4.954 9.254 10.391 7.023 12.167-5.446 15.6 0.886 24.717 7 4.123 1.259 11.5 3.091 8.219 8.861-4.5 6.335-12.533 6.328-19.059 8.829a17.975 17.975 0 0 1-7.952 1.93C284.767 131.597 281.832 130.523 281.062 127.448Zm-39.286-9.832c-0.952-1.9-1.579-4.465-2.674-6.3-0.782-1.53-2.812-2.217-3.18-3.955-0.069-5.594 8.686-3.138 12.128-2.43 12.774 7.37 4.352 14.593-1.953 14.592A5.044 5.044 0 0 1 241.776 117.616Zm-1.277-25.4c-4.023-1.548-8.023-1.331-12.083-1.113a43.908 43.908 0 0 1-8.112-0.072c-6.663-0.329 0.418-7.961 2.672-9.7a40.839 40.839 0 0 1 8.6 0.917c3.923 0.68 7.972 1.361 11.581 0.61 3 1.58 6.335 1.49 9.71 1.4a28.3 28.3 0 0 1 7.2 0.416c4.792 3.3-5.53 9.371-8.895 9.662a8.821 8.821 0 0 1-1.6 0.144C246.513 94.479 243.683 92.993 240.499 92.219ZM181.481 77.772c-4.864-1.97-9.173-5.15-14.763-3.853-3.063 0.651-7.195 1.71-9.552-0.869-3.756-5.537-10.482-12.569-8.689-19.808 3.257-2.432 9.27-0.3 11.52-5.188 4.585-6.71 8.565-8.731 12.358-0.3 1.672 2.881 5.25 5.441 6.136 8.691 0.055 10.326 9.659 4.969 11.258 15.055 3.341 5.144-2.712 6.322-6.825 6.322C182.404 77.823 181.915 77.804 181.481 77.772ZM2.132 35.815c-4.555-5.079 1.6-10.662 6.207-13.139 1.5-1 2.474-4.435 4.64-3.511 1.236 1.378 0.237 4.219 0.414 6.011-0.122 2.9-3.748 3.154-5.633 4.866-2.209 1.186-2.695 5.8-5.275 5.8A2.348 2.348 0 0 1 2.132 35.815ZM36.932 20.915C30.232 15.401 39.354 6.514 44.832 3.756c2.911-2.039 4.1-3.146 7.791-2.227 5.026-0.186 10.553-2.739 15.331 0.36 6.433 7.029 0.473 9.87 0.506 16.315-1.674 8.454-5.448 11.245-10.107 11.245C51.832 29.449 43.576 23.976 36.932 20.915Z"/></symbol>
  <symbol id="id" viewBox="0 0 240.976 394.439"><path d="M240.976 268.173a20.922 20.922 0 0 0-4.767-13.371c-2.971-3.6-5.915-6.773-7.147-7.185-0.992-0.33-3.344 4.1-4.346 5.995-2.6 10.661-16.563 4.662-26.626 4.855-4.689 0.409-21.8 4.9-29.965 6.287-4.7 0.816-5.172-6.593-6.208-10.019a19.847 19.847 0 0 1-0.474-3.256c-0.7-6.886-12.54-6.275-15.837-10.745-1.58-3.089 0.447-9.561 0.069-13.431-1.094-3.659-12.008-19.551-17.939-27.523a4.424 4.424 0 0 0-5.93-1.365c-4.854 4.06-7.5 10.685-13.967 6.8-17.832-2.824 7.153-54.849 4.591-64.32-2.073-6.481-10.885 2.927-16.788-2.71-10.588-7.6-14.865-27.8-25.535-35.117-4.024-3.262-9.423-6.052-12.8-9.573-1.9-3.263-1.218-13.411-2.2-17.023-1.59-4.462-8.488-10.042-11.04-14.6-1.581-4.52-0.918-37.552-0.394-56.683a5.052 5.052 0 0 0-1.026-3.731 4.568 4.568 0 0 0-3.542-1.4q-13.4-0.048-26.718-0.049a4.149 4.149 0 0 0-4.534 3.753c-0.14 60.488 0.15 142.08 1.14 166.273 0.469 4.173 4.472 6.152 7.435 8.489 6.824 4.971 12.318 11.009 12.711 13.583 0.908 5.947-7.619 29.587-13.566 47.589-2.49 7.535-10.207 13.253-14.642 20.573a5.213 5.213 0 0 0 0.59 6.669c3.257 2.564 8.374 4.582 8.6 9.174-0.3 7.531-2.288 95.235-2.739 115.942a2.331 2.331 0 0 0 2.359 2.389l228.872-1.518a2.36 2.36 0 0 0 2.338-2.365c-0.086-53.171-0.04-95.078 0.022-122.383"/></symbol>
  <symbol id="il" viewBox="0 0 219.817 400.076"><path d="M19.72 136.291c-3.709 3.139-12.036 3.751-13.294 8.511-7.176 21.933-9.351 40.734-1.256 59.876 2.009 3.213 24.864 22.048 30.383 27.259 12.317 8.3 4.635 33.035 13.979 29.085 2.993-1.809 6.8-5.069 9.639-4.385 4.664 1.38 14.018 5 15.14 14.2 1.919 15.735-14.24 36.329-10.9 43.165 0.969 1.693 10.712 8.734 18.541 14.39 19.453 14.056 27.684 20.493 28.3 23.97 1.282 8.283 3.092 34.2 5.511 38.45 2.177 3.126 9.207 6.779 12.781 8.86 5.384 3.135 9.934-12.939 14.106-13.977 2.6-0.457 14.179-0.777 17.064-1.207 10.336-11.356 2.983-16.111 25-19.286 5.383-2.063-1.607-9.85-1.162-13.237-1.118-8.018 10.737-7.177 10.327-12.712l0.061 0c0.464-7.317-1.639-18.736-1.636-25.125-1.668-3.2 22.408-28.559 26.773-35.241 3.562-7.849-9.374-21.39-7.885-29.183 5.88-62.061 10.875-186.9 7.576-194.846-6.263-15.082-4.042-50.5-15.256-51.266-32.672-2.226-85.925-0.576-149.947-3.595a1.627 1.627 0 0 0-1.229 2.719c6.295 6.942 16.786 15.9 19.376 22.953 2.524 6.943 4.548 16.862-0.149 24.692-4.575 7.69-10.087 19.426-17.044 23.132-10.652 6.376-39.526 4.326-33.789 22.894 2.441 0.347 9.261 1.106 8.54 9.039-0.561 5.618-4.222 26.767-9.547 30.862"/></symbol>
  <symbol id="in" viewBox="0 0 241.464 400.013"><path d="M77.164 0.024c-9.523-0.682-15.083 13.25-23.917 13.171-4.736-0.471-15.494-9.2-16.877 0.215-0.571 63.272-2.685 176.469-10.344 257.01 0.068 1.176 0.606 8.845 3.522 13.8 3.783 6.433 11.652 19.817 6.728 28.829-5.039 8.789-34.836 38.887-36.276 46.4 0.068 5.647 1.869 19.355 2.146 25.57-0.174 9.913 14.831 9.456 20.091 9.715 3.242-2.724 5.708-10.622 10.3-11.529 1.78-2.979 27.313 14.735 33.067 16.811 3.136-0.091 23.9-10.748 26.4-10.549 2.9-0.832 16.491-10.6 18.133-13.4 0.462-4.26 7.747-12.473 11.656-12.963 3.557-1.253 8.765 8.283 11.85 11.778 4.547 0.952 19.342 6.6 21.831-3.059 6.465-26.8 13-28.693 37.406-44.587 10.35-20.734-0.115-21.117 27.476-15.491 2.441-1.234 21.168-7.519 20.014-16.456 2.275-118.14 0.36-258.668-0.069-286.987a2.823 2.823 0 0 0-2.778-2.767c-71.487-1.583-133.287-4.245-160.36-5.51"/></symbol>
  <symbol id="ia" viewBox="0 0 400 255.96"><path d="M13.002 0.032a7.95 7.95 0 0 0-5.223 1.966l-0.024 0.02c-5.674 4.955-9.494 8.937-6.954 15.1a35.611 35.611 0 0 0 3.308 6.1c3.145 4.912 4.947 8.509 2.472 20.056-1 4.682-2.074 8.558-2.935 11.671-2.055 7.437-3.087 11.169-0.7 15.266 0.679 1.161 1.391 2.323 2.111 3.5 3.636 5.923 7.4 12.048 8.116 20.03 0.1 1.058 0.172 2.07 0.246 3.05 0.551 7.232 0.947 12.457 8.124 22.026 9.407 12.545 12.281 22.622 10.6 37.182-0.918 7.958 2.358 10.143 6.151 12.674 2.551 1.7 5.188 3.46 6.256 6.931 0.093 0.3 9.145 30.368 5.31 40.99-3.2 8.861-3.232 14.257-0.128 19.914 0.568 1.034 1.514 2.879 2.716 5.245a3.262 3.262 0 0 0 2.938 1.789c22.823-0.206 159.48-1.542 238.7-4.555 15.078-0.862 15.711 10.107 23.588 16.354a2.82 2.82 0 0 0 4.506-1.515c3.341-13.705 4.412-13.309 18.622-19.93 3.762-2.9 8.127-22.179 9.06-31.517 0.616-4.434-2.667-5.293-6.717-5.773-3.735-0.457-3.143-7.719-3.129-12.561 0-6.013 5.828-9.065 11.8-11.677 7.052-2.95 21.655-5.11 28.237-8.637 6.681-3.66 12.76-16.539 17.37-24.222 4.406-7.344 2.341-17.106-0.164-24-2.655-7.413-16.934-19.352-22.78-26.318-13.722-18.074-10.524-17.156-30.778-26.309-3.262-3.383-7.126-22.351-7.461-27.363-0.26-3.905 1.87-8.005 3.931-11.97a30.962 30.962 0 0 0 2.92-6.741c0.357-1.668-3.247-7.615-5.762-11.533a7.806 7.806 0 0 0-6.359-3.6c-68.075-1.92-286.379-1.686-317.971-1.643"/></symbol>
  <symbol id="ks" viewBox="0 0 399.893 207.695"><path d="M399.884 66.893c-0.307-9.478-11.079-18.428-18.944-24.964-4.264-3.544-7.633-6.343-8.925-8.742-2.616-4.86 5.062-7.046 9.3-10.807 2.315-2.056 2.824-5.365 2.316-8.242-0.582-3.3-8.338-6.48-14.527-9.7a27.642 27.642 0 0 0-13.465-3.1c-135.7 3.433-261.7 0.366-353.144-1.335a2.441 2.441 0 0 0-2.49 2.45c0 44.387 0 110.3 0 201.642a3.6 3.6 0 0 0 3.6 3.6c127.78-0.39 262.162-1.645 391.159-4.339a2.326 2.326 0 0 0 2.278-2.294c0.325-21.441 3.033-128.4 2.847-134.169"/></symbol>
  <symbol id="ky" viewBox="0 0 400 189.17"><path d="M373.836 53.08c-2.147 0-4.841-2.8-11.992-10.787-2.409-2.693-5.909-6.6-8.454-9.007a7.37 7.37 0 0 0-5.984-1.935c-3.96 0.495-10.538 1.727-15.735 2.7-9.555 1.791-15.544 2.864-17.732 2.694-5.035-0.387-29.218-12.02-32.108-13.825-2.6-1.627-8.6-14.241-12.025-21.789a1.932 1.932 0 0 0-2.076-1.106l-12.988 2.141a1.939 1.939 0 0 0-1.62 1.884c-0.1 6.373-0.212 12.689-0.343 18.907l-0.021 1.018-0.873 0.525c-10.05 6.042-16.076 9-17.856 8.762-0.853-0.107-2.479-0.446-4.539-0.875-1.11-0.232-2.375-0.5-3.589-0.735a4.752 4.752 0 0 0-5.5 3.43l-0.011 0.042c-1.01 3.74-2.053 7.608-4.45 9.082-10.4 6.4-21.325 14.51-22.107 17.636-3.517 14.07-6.594 21.2-9.144 21.2-2.037 0-14.3-2.689-15.9-3.221-2.536-0.451-5.746-10.5-10.045-5.9-5.147 5.913 1.2 3.192-10.005 11.628-6.667 5.242-9.012 4.8-16.623 8.4-14.453 5.728-9.813 7.241-23.7-1.066-2.388-1.474-5.717-3.528-8.383-4.982a5.166 5.166 0 0 0-6.866 1.819l-0.025 0.041c-1.523 2.461-3.1 5.007-5.59 5.007-0.121 0-10.153-0.563-15.261-1.776a4.913 4.913 0 0 1-2.206 3.451c-0.517 0.268-1.056 0.538-1.606 0.812-3.9 1.942-6.637 3.486-6.365 5.662a33.368 33.368 0 0 0 1.788 5.684c1.763 4.752 2.792 7.763 1.785 9.724a2.827 2.827 0 0 1-1.792 1.453c-0.7 0.193-1.919 0.423-3.6 0.742-3.288 0.624-13.291 2.524-14.466 4.164-0.77 2.356-7.479 14.528-10.574 15.413-1.031 0.295-3.747 0.459-9.273 0.74-1.275 0.065-2.612 0.132-3.856 0.2a9.1 9.1 0 0 0-7.3 4.412l-0.027 0.046c-1.825 3.051-4.18 6.979-7.036 9.122a6.481 6.481 0 0 0-2.44 5.832c0.584 6.18 0.228 14.507-1.4 17.49a57.882 57.882 0 0 1-3.429 5.507 2.661 2.661 0 0 0 2.084 4.217l55.573 1.384c2.444 0.265 6.125 0.11 7.106-0.827a0.35 0.35 0 0 0 0.124-0.339 15.527 15.527 0 0 0-1.155-3.906c-0.972-2.534-1.978-5.157-0.8-7.269a4.709 4.709 0 0 1 3.457-2.219c2.81-0.54 36.5 0.62 95.794 2.713 51.316 1.81 109.469 4.438 147.87 4.609a40.651 40.651 0 0 0 11.923-1.7c10.814-3.594 22.39-8.188 27.19-10.987 1.511-0.882 5.2-6.5 8.913-11.736 5.157-7.273 11-15.517 15.362-19.912 5.33-5.372 16.875-14.066 23.906-19.213a5.23 5.23 0 0 0 1.2-7.238c-2.061-2.93-4.654-6.769-7.944-11.8-6.514-9.964-13.51-21.282-14.456-23.216-1.577-3.227 1.966-24.368-0.349-23.093-1.2 0.1-2.091 0.155-2.461 0.155"/></symbol>
  <symbol id="la" viewBox="0 0 400 392.913"><path d="M378.006 312.775c-19.174-5.581-16.53-12.261-7.949-18.61a10.683 10.683 0 0 0 3.148-13.473 60.606 60.606 0 0 1-4.937-14.579 116.643 116.643 0 0 0-4.175-11.953c-2.277-5.953-4.629-12.107-5.309-15.734-0.8-4.247 1.005-11.389 2.749-18.294 0.922-3.665 2.074-8.226 1.948-9.588-0.213-2.347-5.641-3.231-10.922-3.788-3.81-0.4-40.31 0.322-72.52 0.953-30.174 0.592-58.684 1.143-63.708 0.9-7.909-0.4-9.978-2.285-11.861-4.711a4.787 4.787 0 0 0-1.485-1.441c-1.872-1.07-4.438-2.535 1.984-25.28 3.152-11.163 7.582-23.944 10.538-30.393 4.175-9.113 8.662-12.641 13.853-16.73a81.386 81.386 0 0 0 7.754-6.7c7.123-7.123 18.91-31.65 25.242-44.827 1.3-2.7 2.38-4.948 3.169-6.528 1.932-3.868 0.556-5.022-4.209-7.582-2.008-1.081-3.905-2.1-5.092-3.714-2.751-3.737-1.823-8.3-1.078-11.965 0.221-1.081 0.442-2.143 0.548-3.139-0.013-1.82-3.57-12.052-6.168-19.522-2.342-6.737-4.279-12.389-5.654-16.86a10.463 10.463 0 0 0-9.943-7.4c-100.967-0.552-196.464-1.5-226.937-1.817a6.9 6.9 0 0 0-6.99 7.062c0.233 9.693 0.481 20.379 0.747 31.927 0.674 29.276 1.31 56.929 1.637 60.861s10.314 25.469 19.124 44.462c14.293 30.815 22.971 49.928 22.971 55.457 0 5.074-4.3 18.354-10.862 38.037-4.639 13.922-10.415 31.247-10.185 34.912 0.232 3.728 0.788 8.043 1.329 12.213a121.381 121.381 0 0 1 1.3 13.739c0 4.064-3.689 7.863-7.595 11.886-3.592 3.7-7.658 7.884-7.658 11.261a41.676 41.676 0 0 0 0.947 7.735 5.521 5.521 0 0 0 6.4 4.33c12.583-2.2 25.734-3.576 38.13-4.819 22.382-1.462 40.293 15.607 61.822 18.235 11.371 0.478 24.478 7.856 32.673 1.024 5.062-10.929 8.055-33.151 22.656-35.244 37.014 10.7 31.6 29.817 48.411 52.792 16.618 8.936 47.662 38.366 65.8 21.174 20.507-33.542 21.495-2.626 39.967 5.869 11.033-5.253 4.238-31.789 19.184-32.352 8.282 0.012 20.127 5.06 27.771-0.733 10.638-11.349 28.2-26.984 25.052-44-8.351-24.563-9.385-6.848-21.622-3.051"/></symbol>
  <symbol id="me" viewBox="0 0 268.639 397.469"><path d="M268.496 242.497c-14.44-42.528-20.183-15.569-36.45-38.159-2.621-7.086 2.2-20.022-2.855-27.371-3.076-6.3-18.6-5.176-18.033-14.2 0.316-13.959 1-81.268 0.537-111.547a40.475 40.475 0 0 0-8.719-24.457c-27.328-34.608-27.6-6.24-61.744-4.248-12.731-2.837-7.151-26.47-22.591-21.934-3.835 0.709-6.093 6.387-8.687 9.761-13.4 20.893-31.977 44.147-43.012 67.152-9.606 27.7-13.952 59.518-26.418 86.563-3.707 5.021-11.131 10.024-14.945 15.539-2.089 3.2-1.02 6.773-2.423 9.443-2.826 4.044-7.3 7.211-9.051 12.131-1.281 3.029-4.173 1.052-9.278-0.267a3.862 3.862 0 0 0-4.822 3.934c1.695 32.841 6.056 117.608 8.372 165.287a28.394 28.394 0 0 0 4.379 13.811c1.951 3.074 4.8 7.342 8.47 12.333a2.925 2.925 0 0 0 5-0.442c8.864-18.5 21.143-38.376 32.781-52.007a12.477 12.477 0 0 1 12.06-4.244c22.1 4.788 37.3-11.192 53.609-23.52 7.139-5.308 2.178-18.264 10.831-21.816 13.579-1.223 31.525 6.216 45.549-0.831 15.4-5.2 34.711-12.744 43.741-17.411 5.77-4.1 7.559-12.188 15.221-14.519 13.781-2.987 30.332-0.341 28.48-18.977"/></symbol>
  <symbol id="md" viewBox="0 0 400 272.677"><path d="M393.718 150.927c-18.267 0-30.371-0.629-38.018-1.284a18.149 18.149 0 0 1-16.567-16.454c-2.721-30.108-8.837-102.24-10.788-125.307a5.374 5.374 0 0 0-5.483-4.923c-10.753 0.261-25.491 0.375-43.059 0.375-70.269 0-185.489-1.814-269.676-3.333a7.852 7.852 0 0 0-8 7.519c-0.163 3.776-0.435 8.777-0.822 15.46-0.546 9.478-1.286 22.278-1.306 30.37a2.128 2.128 0 0 0 3.552 1.579c4.465-3.986 10.594-9.833 15.926-14.917 19.927-19.012 33.438-31.583 39.414-33.034 7.265-1.771 12.092 4.109 15.963 8.837 2.547 3.114 5.184 6.333 7.583 6.333 4.513 0 12.194-5.8 17.279-9.643 3.451-2.609 5.946-4.492 7.869-5.214 1.331-0.5 4.427-1.656 30.9 5.125a22.494 22.494 0 0 1 13.578 10.035c2.385 3.887 5.072 8.31 7.188 11.914a15.936 15.936 0 0 0 6.83 6.356 184.274 184.274 0 0 1 19.826 11.828c3.122 2.342 1.558 6.975-0.6 13.387-0.708 2.1-1.434 4.254-1.885 6.084a2 2 0 0 0 0.41 1.782c2.78 3.292 12.7 9.962 19.52 14.549 12.806 8.614 20.713 14.145 22.511 18.337 2.8 6.531-5.461 15.346-17.435 27.086-3.836 3.762-7.8 7.654-8.921 9.563-2.29 3.927 2.035 9.406 4.894 13.031 0.5 0.636 0.967 1.225 1.361 1.754a1.793 1.793 0 0 0 1.019 0.712c2.318 0.559 8.466-0.224 11.962-0.67a84.536 84.536 0 0 1 9.97-0.89c5.219 0 27.07 16.128 47.417 32.088a3.066 3.066 0 0 0 4.8-3.4c-5.406-16.326-9.466-33.6-10.83-48.538-6.095-21.694 18.294-16.665 22.8-1.327 6.633 12.294 5.233 33.551 19.9 32.408 5-0.95 10.412-5.307 14.7-5a2.106 2.106 0 0 1 1.9 1.7c4.32 22.457-15.339 62.535-14.106 95.829 0.623 19.349 29.192 11.812 32.111-2.526a1.591 1.591 0 0 1 0.124-0.376c10.416-21.779 31.064-64.1 45.48-88.825a66.164 66.164 0 0 0 6.919-15.688 2.164 2.164 0 0 0-2.125-2.7q-2.089 0.011-4.079 0.011"/></symbol>
  <symbol id="ma" viewBox="0 0 396.267 249.037"><path d="M369.7 247.408a2.435 2.435 0 0 1-2.219-2.7l0.311-2.8a2.429 2.429 0 0 1 1.862-2.1c4.359-1 12.24-3.479 16.3-4.786a2.43 2.43 0 0 1 3.168 2.072c0.383 4.077 0.414 11.028-0.593 11.363a5.488 5.488 0 0 1-1.236 0.081C383.806 248.536 374.263 247.786 369.7 247.408Zm-64.025-21.675c10.248-10.663 9.157-24.974 11.6-38.025 0.445-2.855 1.392-6.788-1.795-8.2-7.259-2.561-16.418 4.641-22.856 8.117-8.869 4.8-8.34 15.508-9.233 24.145-2.79 3.222-17.221 2.956-18.877 3.638-1.377 0.616-2.02-6.742-2.425-14.1-0.411-7.482-0.576-14.962-1.014-14.062-0.47-1.764-19.76-17.172-21.523-20.465s0.7-8.235 0.116-12.234-3.175-2.94-4.939-5.528c-1.42-2.081-1.012-11.39-0.8-14.955a1.266 1.266 0 0 0-1.309-1.342c-14.688 0.928-43.376 1.44-53.411-2.052-1.646-0.235-93.508-0.941-96.213-0.588-4.694 2.134 0.16 4.7-7.763 5.411-1.057 0-2.94-5.764-3.764-5.881-0.654-0.094-46.135-1.6-64.813-2.212A6.342 6.342 0 0 1 0.721 119.498c9.923-38.866 19.235-72.482 23.632-88.136A12.41 12.41 0 0 1 36.721 22.319c80.808 2.723 169.608 6.37 197.55 7.535 10.187 2.349 22.565-14.912 26.445-17.9a39.413 39.413 0 0 1 5.631 0.327c4.571 0.595 3.872 1.189 6.6-5.972 0.626-0.627 10.507-5.646 12.389-5.8 14.969 6.12 10.368 12.328 13.7 24.79 1.815 5.685 4.815 12.128 11.247 9.973 2.4-0.746 5.289-3.281 7.677-2.892 1.878 0.355 3.132 3 3.523 5.213 0.565 2.648-0.766 4.035-2.8 5.195-10.6 7.407-48.574 29.93-45.843 46.261 2.509 7.04 8.711 6.638 15.1 6.235 5.456-0.343 11.049-0.687 14.6 3.6 26.339 31.66 2.11 33.147 13.8 42.517 5.073 2.858 10.616 3.778 12.118 10.393 1.853 16.08 0.218 19.292 17.4 22.242 9.327 4.293 19.465 4.443 27.871-2.025 5.906-2.64 11.515-5.443 13.373-12.432 2.5-7.8-4.257-13.345-7.817-19.535-2.41-3.616-5.428-12.436 1.372-12.767 8.739 1.525 12.621 24.777 14.581 32 1.723 5.324-0.632 10.432-1.237 15.661-0.794 3.671 2.054 9.435-2.082 11.479-16.678 3.855-44.778 0.715-58.316 14.076-4.63 2.714-11.534 4.791-12.295 11.1-1.544 8.829 11.482 14.508 9.652 19.157-4.495 4.267-12.919 2.176-18.608 4.212a23.574 23.574 0 0 1-7.976 1.9C299.055 236.859 299.279 232.356 305.675 225.736Z"/></symbol>
  <symbol id="mi" viewBox="0 0 387.633 401.003"><path d="M271.676 399.047l0-0.29a2.953 2.953 0 0 0-2.864-2.906c-14.549-0.445-81.212-2.49-98.763-3.282a1.788 1.788 0 0 1-1.057-3.161c8.193-6.851 16.01-13.688 20.222-19.657 2.713-4.012 6.056-8.51 8.953-12.49 2.407-2.748 1.48-4.38 1.522-7.541-0.381-8.948-0.675-23.058-1.193-34.45a62 62 0 0 0-3.936-19.084c-3.143-8.33-7.333-18.718-8.982-24.094-1.243-3.53 1.792-6.316 3.36-9.222 1.772-2.915 2.29-4.555 1.794-7.84-0.471-3.641-2.129-7.22-0.409-10.772 2.845-6.232 6.673-13.324 9.646-19.666 2.391-3.949 0.006-8.8-0.571-13.343-0.424-4.17-2.743-9.863-0.107-13.2 4.393-4.523 15.48-13.357 20.965-18.617 3.271-2.956 7.137-8.7 9.716-11.439 0.281-0.247 0.469-0.4 0.779-0.379 1.05 0.167 0.763 5.183 1.883 8.57 0.189 0.48 0.455 1.395 0.828 2.2a1.507 1.507 0 0 0 2.72-0.01c1.613-3.4 2.7-8 4.32-11.327 1.3-3.058 2.423-3.841 5.607-6.054 4.026-2.8 8.5-5.818 12.509-8.53 2.475-1.806 4.394-2.39 4.76-5.115 0.1-2.845-0.859-8.123-1.381-11.5-1.618-9.936-2.237-11.381 6.758-14.124 1.793-0.548 3.729-1.091 5.525-1.589 0.187-0.06 0.378-0.12 0.57-0.175a3.727 3.727 0 0 1 4.411 1.833 11.2 11.2 0 0 0 3 3.8c20.216 13.66 54.4 20.723 61.821 45.9 1.226 24.627-1.3 54.964-19.071 73.19-5.5 4.668-4.9 20.075 2.174 23.254 11.15 0.054 12.725-17.114 23.214-20.278 12.634-8.354 16.468-4.916 24.933 6.413 6.171 7.389 3.917 20.258 5.245 28.382 11.593 48.159 9.885 53.071-21.506 81.975a53.05 53.05 0 0 0-10.212 12.866c-2.481 4.38-5.616 9.765-7.126 14.279a8.341 8.341 0 0 1-7.3 5.773c-14.819 1.027-37.542 2.416-61.238 3.161h-0.047A1.48 1.48 0 0 1 271.676 399.047ZM125.561 160.67a6.36 6.36 0 0 1-2.767-2.407 12.331 12.331 0 0 1-1.3-6.9l0.031-0.221-0.031-0.22c-0.135-0.938 0.634-5.095 2.285-12.358 0.191-0.839 0.332-1.462 0.389-1.746 0.374-1.869-0.586-8.551-2.585-11.885-1.77-2.95-7.212-3.925-12.828-4.541l-0.676-0.077c-0.381-0.715-0.45-3.111-0.488-4.433a13.8 13.8 0 0 0-0.552-4.5c-1.566-3.656-34.369-8.967-34.7-9.014-5.818-0.831-53.492-17.121-57.97-19.807C12.504 81.435 7.168 75.532 1.532 68.908A4.207 4.207 0 0 1 3.28 62.218c9.731-3.469 20.214-11.243 27.207-13.954 8.836-4.876 21.056-8.291 30.2-11.983 15.29-5.612 28.867-26.647 42.517-33.955 7.466-4.559 29.732-0.237 13.164 9.2C109.2 16.902 101.08 21.136 97.297 29.613c-6.878 12.359-3.4 11.786 4.466 11.213 7.7-0.56 19.606-1.12 30.128 10.444 13.111 23.73 19.578 18.976 43.6 21.912 11.937 1.275 21.7-8.467 32.362-12.42 14.274-3.5 31.8-3.236 47.3-6.38a4.781 4.781 0 0 1 5.746 4.877c-0.31 6.571-2.449 15.589 14.451 13.93 6.146-0.544 13.437-1.423 19.677-1.974 3.844-0.256 7.95-1.579 8.808 2.321 2.677 7.146 4.714 15.584 6.7 22.869 0.012 0.044 0.022 0.09 0.031 0.136 1 5.189 3.145 7.864-2.23 9.275-6.341 1.151-14.957 2.839-21.479 0.834-3.173-1.252-7.378-3.606-8.464-1.641a46.8 46.8 0 0 0-0.831 7.669 3.279 3.279 0 0 1-3.492 3.155 8.558 8.558 0 0 1-2.911-0.535c-1.362-0.533-2.55-1.667-4.631-3.265-5.752-3.964-10.93-9.933-17.889-11.423-4.106-0.33-8.509-1.757-12.141-0.773-5.542 2.829-13.2 8.284-19.021 10.377-3.751 1.229-8.218 0.089-12.146-0.309-3.257-0.47-4.836-0.811-6.809 1.859-1.051 1.193-2.079 2.306-3.178 3.548-3.841 4.281-8.452 9.41-12.425 13.88a4.093 4.093 0 0 1-5.578 0.5c-0.99-0.77-1.991-1.58-2.627-2.156-2.85-2.576-5.43-2.43-8.946-1.376-3.231 0.986-7.169 1.618-10.022 3.171a7.742 7.742 0 0 0-2.464 3.17c-4.276 8.281-19.43 9.058-24.091 18.194-0.959 1.718-1.069 4.694-0.884 8.125a1.948 1.948 0 0 1-1.923 2.043A1.831 1.831 0 0 1 125.561 160.67Z"/></symbol>
  <symbol id="mn" viewBox="0 0 345.06 400"><path d="M2.761 57.704c-4.14 36.3 10.332 42.141 13.675 71.355 0 10.349 2.97 61.692 4.653 68.425 1.326 6.086 7.592 10.91 7.736 17.032 0.631 10.43 2.188 32.773-0.184 35.762-1.191 2.508-5.189 6-7.8 9.084a5.163 5.163 0 0 0 0.205 6.91c5.194 5.442 14.511 13.046 14.184 17.89 1.608 49.564 1.81 107.708 0.931 110.706a3.681 3.681 0 0 0 3.67 3.994c31.791-0.038 179.035-0.147 232.305 1.136a4.075 4.075 0 0 0 4.075-4.983c-1.368-5.984-2.461-15.678-4.793-19.551-2.272-4.156-21.445-15.309-26.27-19.374-2.961-2.824-1.386-8.225-2.33-11.617-2.665-3.254-40.27-24.439-39.256-26.092-1.774-3.546 0.535-30.907 1-33.684 0.426-3.425 6.145-8.967 6.531-12.285-0.387-2.811-9.892-9.15-10.988-11.651-1.229-2.871 3.046-13.5 5.68-16.422 1.223-1.717 17.935-13.392 22.67-16.965 2.32-2.477-1.92-34.325-0.357-37.466 1.047-1.832 9.181-5.44 15.484-8.019 0.945-5.087 17.492-18.635 37.921-37.563 19.232-23.914 113.749-51.226 28.437-52.588-8.4 1.275-10.292-3.833-15.254-8.544-6.559-3.563-23.034 9.352-28.747 10.073-11.75 0.824-23.876-32.035-37.277-17.324-6.17 8.489-4.041-8.3-14-9.241-7.307-6.655-0.7-8.261-13.851-12.926-9.569-2.282-28.494 5.872-39.342 6.357a3.478 3.478 0 0 1-3.306-1.788c-6.332-10.028-23.1-5.856-31.96-9.2-18.06-7.518-8.462-33.062-16.664-45.711-25.808-13.352-9.058 15.907-19.612 24.545q-41.2-0.039-83.549-0.09a6.369 6.369 0 0 0-6.289 7.422c1.355 8.1 2.672 17.289 2.672 22.39"/></symbol>
  <symbol id="ms" viewBox="0 0 248.297 400"><path d="M225.077 203.411c4.739-76.581 16.428-143.075 23.22-190.813 0-1.974-1.9-5.376-4.068-8.512a9.425 9.425 0 0 0-7.845-4.085c-63.017 0.718-113.855 1.312-133.189 1.539-17.2-0.31-28.416 33.782-28.645 39.974-0.252 4.3-5.285 9.355-13.476 17.252-21.323 16.909-24.619 39.383-20.2 62.542 5.159 18.685-4.435 30.181-7.607 46.081-0.242 4.327 12.466 35.769 11.533 38.517-0.223 2.764-1.961 7.1-0.431 9.156 3.905 3.242 12.243 4.679 8.012 13.988-9.826 19.432-17.733 40.231-30.825 49.007-12.931 7.577-20.776 42.97-21.556 51.991 3.433 2.6 1.256 3.633 8.3 4.075 3.958 0.194 28.263-0.279 51.764-0.741 38.807 1.052 69.044-6.6 72.86 6.47 0.341 4.239-4.76 18.072-3.9 22.368 3.443 9.7 8.056 25.554 12.036 34.542a6.667 6.667 0 0 0 8.99 2.391c22.478-14.167 50.158-12.5 69.113-9.779a6.228 6.228 0 0 0 7.05-6.483c-1.95-40.367-4.787-118.827-1.139-179.48"/></symbol>
  <symbol id="mo" viewBox="0 0 394.665 354.169"><path d="M370.121 315.678c1.99-6.905 8.74-2.39 13.082-1.337 1.97 0.129 6.6-5.292 10.167-11.829 1.871-3.434 1.572-18.781 0.008-21.6-3.163-3.588-12.823-6.972-15.327-11.237-1.315-0.849-3.027-12.637-4.424-24.134a49.4 49.4 0 0 0-19.716-33.859c-13.641-10.038-30.5-21.657-32.424-25.026-5.593-10.734 14.194-34.939 11.376-52.035 0.154-1.8-9.008-6.948-13.408-7.926-14.422 8-17.854 11.716-19.855-11.158-0.6-12.886-7.177-16.043-17.626-25.368-26.213-21.66-27.083-22.6-29.706-52.983-0.772-7 5.242-18.246-2.493-23.865-5.555-3.438-5.98-10.685-11.757-12.937-72.816-1.957-204.375 4.256-235.8 2.918a2.237 2.237 0 0 0-1.97 3.256c11.411 19.726 15.3 36.268 29.365 41.02 41.06 18.833 7.6 20.148 6.761 34.745 9.211 10.981 31.229 22.812 31.6 39.38 0.354 24.062-3.542 134.7-3.427 175.486a17.55 17.55 0 0 0 15.712 17.419c52.034 5.456 187.925-4.344 240.276-0.714 26.2 8.945 16.615 12.713 4.721 34.625a2.708 2.708 0 0 0 2.194 3.994c7.984 0.531 25.684 1.321 33.318 1.65 8.115 0.344 4.866-16.016 3.958-16.832-1.993-2.275 2.87-14.992 5.4-21.654"/></symbol>
  <symbol id="mt" viewBox="0 0 395.031 219.429"><path d="M85.612 200.547a20.539 20.539 0 0 0 4.133 1.769c4.508 1.641 7.751 2.957 8.412 4.94 0.267 0.8 0.541 2.128 0.859 3.666 0.5 2.4 1.657 8.025 2.7 8.508 0.89-0.011 6.086-1.214 10.67-2.275 6.655-1.54 13.537-3.132 15.638-3.132 1.184 0 3.2 0.235 5.525 0.508 3.562 0.415 10.978 1.281 12.068 0.348a16.976 16.976 0 0 0 2.336-3.758c1.792-3.383 3.646-6.88 6.183-6.035 1.7 0.566 4.819 4.042 7.363 7.168a1.11 1.11 0 0 0 1.967-0.707c0.019-6.416 0.084-11.461 0.109-14.607a3.679 3.679 0 0 1 3.68-3.652c27.994-0.029 204.826-0.21 223.99-0.133a2.009 2.009 0 0 0 2.022-2.007c0.182-58.863 0.674-124.666 1.77-185.906a4.413 4.413 0 0 0-4.412-4.5c-127.476-0.234-258.537-0.51-385.006-0.743a5.116 5.116 0 0 0-5.127 4.984c-0.526 19.744-0.823 43.776 0.174 45.928a39.343 39.343 0 0 0 3.585 4.4c2.555 2.9 5.2 5.89 5.808 8.127a30.88 30.88 0 0 1 0.547 5.886c0.109 2.853 0.273 7.165 1.218 7.974 0.722 0.62 2.375 1.774 4.288 3.11 3.605 2.518 7.692 5.371 9.3 7.182a70.717 70.717 0 0 1 4.78 7.313c3.092 5.057 6.941 11.352 9.2 13.263a24.6 24.6 0 0 1 3.667 4.027c1.479 1.915 2.317 2.915 3.74 2.915a13.626 13.626 0 0 0 3.566-0.842c2.176-0.7 4.23-1.365 5.627-0.428a2.8 2.8 0 0 1 1.157 2.25c0.124 1.617-1.117 8.855-3.152 20.531-1.973 11.318-4.911 28.174-4.633 31.317a17.575 17.575 0 0 1 2.8 1.258c1.359 0.7 2.9 1.5 3.784 1.373 0.648-0.189 2.726-2.5 4.1-4.025 2.839-3.154 4.652-5.088 6.108-5.127a1.575 1.575 0 0 1 1.177 0.461c1.127 1.126 18.594 24.675 18.594 28.624a36.5 36.5 0 0 1-0.326 3.931c-0.237 2.041-0.635 5.459 0.015 6.109"/></symbol>
  <symbol id="ne" viewBox="0 0 400 185.19"><path d="M360.805 58.186c-5.892-7.857-6.233-12.352-6.665-18.044-0.055-0.72-0.111-1.462-0.182-2.238a9.124 9.124 0 0 0-4.134-6.829c-13.957-9.03-33.847-21.415-36.866-21.948-5-0.882-20.361-0.994-22.213-0.16a19.7 19.7 0 0 0-2.265 1.931c-2.431 2.246-5.458 5.04-8.352 5.04-1.955 0-4.57-2.209-9.405-6.447-4.115-3.606-9.751-8.543-12.373-8.543-0.689 0-3.562-0.031-8.26-0.083-105.035-1.148-188-1.154-246.748-0.014a3.421 3.421 0 0 0-3.342 3.439c0.114 60.036 0.381 103.11 0.471 116.384a3.007 3.007 0 0 0 3 2.964c43.245-0.058 73.977-0.13 86.263-0.161h0.012a4.786 4.786 0 0 1 3.967 2.1 5.019 5.019 0 0 1 0.825 2.871c0 6.755 0 23.561 0 52.16a2.776 2.776 0 0 0 2.715 2.778c25.869 0.493 167.351 2.977 299.375 1.134a3.417 3.417 0 0 0 2.844-5.231c-4.1-6.624-9.422-16.949-14.693-27.365-1.431-2.827-2.562-5.061-3.131-6.1-3.184-5.8-2.341-11.134-0.1-17.355 1.97-5.455-1.854-21.721-4.015-28.745-0.484-1.573-1.8-2.452-3.473-3.566-3.036-2.025-6.814-4.546-5.918-12.321 1.156-10.019-0.834-16.972-7.345-25.653"/></symbol>
  <symbol id="nv" viewBox="0 0 268.817 396.691"><path d="M1.656 1.76a1.664 1.664 0 0 0-1.656 1.678c0.347 39.354 0.835 139.058 0.979 169.351a12.3 12.3 0 0 0 3.8 8.8c117.514 111.841 207.956 193.381 231.7 214.667a1.666 1.666 0 0 0 2.771-1.4l-4-41.775a6.653 6.653 0 0 1 2.995-6.206l5.5-3.583a9.157 9.157 0 0 1 10.5 0.344l1.58 1.186a5.723 5.723 0 0 0 7.573-0.628 19.369 19.369 0 0 0 5.365-13.642c-0.566-42.338-2.168-186.925 0.055-328.865a1.665 1.665 0 0 0-1.676-1.691Z"/></symbol>
  <symbol id="nh" viewBox="0 0 202.929 395.864"><path d="M156.43 2.15a2.6 2.6 0 0 1 4.744 1.3c3.066 32.422 5.394 83.662 7.778 175.833 1.363 52.729 2.5 102.773 2.388 110.253-0.157 10.292 9.788 16.629 16.057 22.856a10.9 10.9 0 0 1 2.314 12.017c-1.229 2.87-2.472 5.633-1.408 6.7 1.864 1.864 15.845 8.2 14.54 11s-12.256 24.422-15.286 27.962c-1.212 1.416-7.456-2.423-12.676-1.119s-10.811 4.661-11.184 7.643-7.643-1.864-8.389 0-2.237 13.422-5.033 13.795-5.219-2.8-7.456 0-1.864 4.66-6.525 5.406-126.386-4.288-126.945-4.661-8.016-12.489-8.948-16.777-0.186-15.285 1.678-16.777 6.9-0.932 8.2-6.9-2.983-19.2 0.559-30.758 4.847-11.743 6.152-22-0.932-29.453 1.677-32.622 5.965-2.05 6.338-7.643 1.864-16.217 9.134-22.555 5.033-15.845 7.084-18.082 4.847-2.8 6.9-7.643-2.237-8.575 0.746-13.235 6.151-4.474 6.151-12.676-1.5-30.688 2.237-33.368c4.816-3.45 15.472-0.745 20.319-4.474s4.287-6.524 9.321-8.015 20.691-10.812 21.81-21.251-8.883-25.826-7.242-30.571c1.659-4.8 6.5-18.269 9.665-20.692s4.474-2.237 3.915-6.711-5.236-8.681-3.542-12.489c2.413-5.426 15.845-37.469 17.522-39.146s5.593-7.271 8.2-6.711 3.169 3.914 7.084 5.592c7.68 2.592 8.575 3.361 12.12-3.481"/></symbol>
  <symbol id="nj" viewBox="0 0 209.225 399.921"><path d="M201.677 162.785c-0.362-5.447-4.248-8.915-9.391-10.03a42.794 42.794 0 0 0-10.873-1.671c-2.113-0.042-4.273 0.277-6.325-0.138-2.715-0.638-4.269-2.36-5.918-5.145-3.523-5.933-2.741-13.74 0.072-19.808 3.71-8.322 15-7.747 21.939-11.751a8.853 8.853 0 0 0 4.078-4.193c3.16-5.962 8.334-19.7 12.16-33.569 2.4-8.221 3.8-16.271-5.106-20.864-25.956-15.916-59.737-36.933-86.237-53.2-8.257-5.527-15.3-0.619-21.872 5.167a14.8 14.8 0 0 0-3.931 6.783c-1.438 4.4-3.913 11.424-7.168 16.1-2.592 3.9-6.269 6.851-9.34 10.281-1.935 2.112-3.1 4.236-5.137 6.515-2.2 2.663-5.009 5.072-7.08 7.834-5.128 6.223-0.2 14.871 2.582 20.984 1.892 3.774 0.781 6.479-2.223 9.224-1.929 1.912-4.155 3.876-6.152 5.748-6.3 5.836-7.792 7.609-8.5 15.978-0.164 5.339-1.4 12.42 0.074 17.242 1.2 3.337 4.354 4.568 7.491 6.107a14.015 14.015 0 0 1 6.768 6.113c1.223 2.5 1.26 5.34 1.119 8.07-0.149 4.334-1.261 8.742 2.364 10.635 1.911 1 4.251 1.357 6.227 2.248 2.973 1.253 4.415 3.74 5.767 6.656a80.375 80.375 0 0 0 4.61 8.733 34.624 34.624 0 0 0 9.075 9.74c3.9 3.134 9.848 5.829 11.663 10.252 1.912 4.059-0.384 8.5-4.3 10.366-13.672 6.556-27.551 16.8-40.619 25.078a12.25 12.25 0 0 0-3.838 3.368c-1.619 2.473 0.2 5.89-0.021 8.305a4.3 4.3 0 0 1-2.239 3.031 68.1 68.1 0 0 1-9.345 4.4c-7.761 3.194-15.827 5.545-22.457 10.825-7.364 5.837-15.4 13.139-19.081 21.756-2.005 5.393 2.321 10.468 4.586 15.039 2.869 4.918-1.55 10.965-1.974 15.6-0.627 3.873 3.828 4.835 6.817 7.5a53.447 53.447 0 0 1 7.131 7.665c5.2 6.252 12.553 13.928 19.449 19a38.372 38.372 0 0 0 10.046 5.472c5.392 1.975 12.947 3.623 19.913 5.451 5.428 1.736 14.806 3.146 16.781 8.288 1.952 7.342-5.513 18.982-6.893 27.845a6.678 6.678 0 0 0 2.221 6.527c1.687 1.272 4.057 2.072 6.006 1.246 2.687-1.4 4.312-6.21 6.083-9.088 7.4-13.657 17.1-35.177 27.878-48.012 2.626-2.93 5.727-5.691 8.5-8.689a104.791 104.791 0 0 0 12.3-16.186c3.671-5.758 6.354-11.763 11.758-17.264a123.731 123.731 0 0 1 11.544-10.114c3.951-3.263 8.56-6.549 11.125-10.5 3.7-6.174 2.094-14.471 2.431-21.433 0.124-5.209 2.171-9.378 4.564-14.834 3.481-7.872 7.45-16.454 10.779-24.243a61.832 61.832 0 0 0 3.549-10.25c2.6-11.586 7.715-31.652 6.583-46Z"/></symbol>
  <symbol id="nm" viewBox="0 0 350.861 400"><path d="M144.099 358.564a6.7 6.7 0 0 1 0.883-3.452 6.512 6.512 0 0 1 5.8-3.21c60.816 1.805 171.729 2.264 193.346 2.339h0.006a1.881 1.881 0 0 0 1.864-1.863c2.763-218.013 4.477-324.715 4.863-348.01a3.024 3.024 0 0 0-3.042-3.068c-10.909 0.011-253.5-0.55-344.76-1.3a3.036 3.036 0 0 0-3.059 3.057l1.161 393.337a3.052 3.052 0 0 0 3.072 3.039c12.544-0.08 23.569 0 31.666 0.408 3.792-0.332 9.063 1.567 10.77-2.51 3.287-6.889-4.351-28.9 8.738-27.672 13.634 0.11 69.119 0.571 84.646 0.8a3.99 3.99 0 0 0 4.046-4Z"/></symbol>
  <symbol id="ny" viewBox="0 0 399.995 327.579"><path d="M397.488 298.785c-18.776-1.834-48.623 0.7-61.383-3.644-10.687-3.381-14.041-14.576 0.41-16.554 0.372-6.634-2.932-49.945-2.774-57.358-1-2.389 11.5-45.149 12.081-51.475-0.368-2.385-0.268-15.839-0.087-34.585 0.107-10.908 0.2-21.211 0.072-23.656-0.145-4.65-5.1-3.52-6.965-7.084-2.024-3.644-0.716-35.064-0.184-37.725 0.709-3.585 4.2-7.378 4.208-11.081-0.283-5.213-4.358-20.537-4.242-25.45 0-3.373 0.7-15.759 1.262-25.217 0.564-5.146-7.791-3.746-9.786-3.9-76.53-5.707-95.956 11.214-147.052 62.949-3.8 5.724 3.195 7.653 6.694 9.831 6.129 7.072-3.127 25.246-2.386 32.206 1.03 7.749-39.151 26.769-45.543 25.316-37.244-4.454-69.257-14.119-105.1 4.182-5.4 9.016 10.438 23.776 4.526 32.069a329.956 329.956 0 0 1-36.518 31.037c-6.772 4.368-4.247 14.476-4.332 20.979 0.177 4.886 11.106 4.8 15.994 4.937 33.658 1 172.946-2.074 215.975-1.733 5.7 0.543 20.634 14.4 21.582 18.19a53.148 53.148 0 0 1 0.555 8.193c0.457 11.825-1.169 13.8 10.6 17.388 7.677 3.28 46.406 23.719 49.745 32.176-0.172 1.893-4.581 12.343-8.255 20.791a3.444 3.444 0 0 0 3.012 4.815c11.769 1.233 24.361 4.414 36.008 2.7 12.246-3.873 39.157-15.567 52.945-23.122a2.762 2.762 0 0 0-1.062-5.176"/></symbol>
  <symbol id="nc" viewBox="0 0 396.611 150.377"><path d="M380.109 1.418c-105.943-0.905-193.145-1.481-252.018-1.407-3.257 0.635-4.5 4.238-4.82 7.245-0.642 4.878-1.782 7.076-6.92 6.743-1.865-0.011-3.991-0.24-5.377 1.169-2.622 2.58-2.618 9.444-6.584 11.064-2.456 0.981-6.747-0.15-10.27-0.972a7.162 7.162 0 0 0-3.958-0.087c-2.048 0.765-3.24 3.114-4.755 4.653-3.574 3.983-9.5 3.9-14.89 3.531-1.507-0.073-3.185-0.283-4.47 0.507-2.076 1.551-1.922 4.879-2.492 7.227-0.618 3.842-3.483 4.648-6.343 6.372-10.109 5.359-30.48 12.494-39.778 15.651a6.669 6.669 0 0 0-5.043 5.551c-0.623 3.229-1.2 7.5-5.093 7.835-2.009 0.309-5.017-0.612-6.4 0.378-1.142 0.767-1.047 2.389-0.531 3.559 1.3 3.228 5.56 3.4 8.694 3.363 17 0.054 31.567-0.536 43.837 0.176a20.319 20.319 0 0 0 11.829-1.536c25.157-11.988 48.4-7.6 78.018-6.215 3.06 0.127 6.17 0.211 8.9 1.394 4.012 1.769 8.7 5.262 10.573 9.531 1.943 5.431-1.3 9.611 5.706 10.913 15.874 1.432 38.727-8.643 52.088 3.307 13.694 13.558 32.952 34.2 47.223 47.212 5.172 3.729 11.317 0.664 17.269-0.331 5.919-0.681 9.13-5.179 12.521-9.894 4.557-6.435 8.794-13.8 14.8-19.131 11.778-10.066 27.763-11.684 41.993-16.216a31.752 31.752 0 0 0 13.82-8.416c5.614-6.855-9.934-2.72-12.309-4.7-2.741-1.446-2.206-4.8-0.753-8.655 1.774-4.439 5.271-9.208 8.6-10.9 2.22-1.175 4.614-0.813 7.311-0.856 8.721-0.238 17.878-5.686 23.239-12.888 2.847-4.53 2.7-10.486 2.69-15.79-0.127-4.657 0.533-9.1-0.061-13.741-1.053-8.3-6.27-12.532-9.335-17.106-2.041-2.878-2.412-7.743-6.711-8.5Z"/></symbol>
  <symbol id="nd" viewBox="0 0 401.084 243.096"><path d="M369.987 34.813c0-5.924-1.675-17.2-3.3-26.762a9.016 9.016 0 0 0-8.882-7.5c-112.142-0.14-228.792-0.33-347.482-0.546a7.74 7.74 0 0 0-7.764 7.59c-1.332 74.474-2.118 153.067-2.556 228.058a5.778 5.778 0 0 0 5.746 5.815c45.422 0.333 283.926 2.02 389.264 1.551a6.1 6.1 0 0 0 6.07-6.339c-0.184-4.88-0.5-9.82-0.732-13.532-0.237-3.73-0.424-6.676-0.424-8.217 0-2.587-1.719-5.267-3.71-8.371-1.909-2.974-4.071-6.346-5.072-10.347-2.041-8.166-5.45-67.164-5.45-79.436 0-9.383-5.5-23-9.919-33.935-1.186-2.935-2.3-5.693-3.222-8.151-3.538-9.439-3.129-21.121-2.768-31.427 0.1-2.988 0.2-5.812 0.2-8.446"/></symbol>
  <symbol id="oh" viewBox="0 0 369.466 400"><path d="M112.814 29.789c-25.06 1.755-64.171 4.187-105.439 5.573a7.61 7.61 0 0 0-7.374 7.7c0.61 44.9 1.92 164.208 0.441 275.207a4.519 4.519 0 0 0 5.262 4.517l22.194-3.658L28.775 321.103c6.743 15.169 15.5 32.679 17.884 34.517 4.69 2.928 40.173 19.6 45.97 20.042 2.851 0.215 14.815-2.02 25.354-3.994 16.651-3.119 27.029-4.974 30.572-4.381 3.8 0.634 9.351 6.436 20.238 18.6 2.967 3.317 6.561 7.332 9.478 10.3a12.707 12.707 0 0 0 10.361 3.741c4.628-0.469 10.62-1.281 15.205-2.1a12.55 12.55 0 0 0 9.238-7.292c1.825-4.107 4.19-9.7 6.387-14.9 9.994-23.643 17.379-40.638 21.4-43.992 2.341-1.95 13.133-8.947 30.545-20.2 23.7-15.318 59.518-38.468 62.535-42.392 4.562-5.928 18.941-63.888 19.391-68.814-0.006-1.689-2.251-24.833-3.669-39l-0.215-2.145 20.015-7.425c-0.851-62.38-1.7-119.4-2.188-151.672-1.4 0.6-2.8 1.244-4.188 1.815-38.94 10.643-61.632 20.7-92.508 46.969-20.246 14.549-49.99 10.386-73.338 12.191-16.963-5.151-42.437-17.422-62.014-26.881a44.353 44.353 0 0 0-22.416-4.305"/></symbol>
  <symbol id="ok" viewBox="0 0 399.389 191.438"><path d="M399.217 87.897c-1.269-10.563-7.262-52.068-9.007-61.306-0.448-2.365-0.525-11.389-0.389-24.054a2.5 2.5 0 0 0-2.552-2.536c-127.256 2.65-260.512 3.684-384.466 3.839a2.476 2.476 0 0 0-2.482 2.438c-0.062 3.793-0.17 10.412-0.321 20.051a2.526 2.526 0 0 0 2.555 2.556c83.563-1.023 122.616-1.2 132.7-1.233h0.017a4.629 4.629 0 0 1 4.631 4.515c0.81 32.884 1.781 67.346 2.36 87.934 0.344 12.206 0.551 19.573 0.551 20.352 0.37 1.557 7.508 8.116 12.677 10.1 3.053 1.177 6.457 0.754 10.059 0.31a35.8 35.8 0 0 1 7-0.406c3.432 0.264 5.447 3.384 7.225 6.134 1.644 2.546 3.2 4.949 5.452 4.949a98.5 98.5 0 0 1 12.511 1.121c2.675 0.349 5.44 0.708 8.535 1.019 6.56 0.656 36.584 9.731 54.523 15.152 5.792 1.751 10.367 3.135 12.254 3.658 3.82 1.064 6.98 0.261 9.522-0.38 2.379-0.6 4.625-1.17 6.135 0.557 0.577 0.657 3.369-0.962 4.711-1.737a18.238 18.238 0 0 1 3.057-1.544c2.114-0.708 4.713 1.541 9.121 5.576 1.795 1.643 4.507 4.125 5.357 4.3 0.809-0.005 3.2-1.888 4.95-3.264a35.134 35.134 0 0 1 6.281-4.276c4.846-2.261 47.216-4.405 48.967-4.405 0.888 0 3.247 0 16.839 12.353a6.748 6.748 0 0 0 4.167 1.746l0.228 0.012a3.873 3.873 0 0 0 4.076-3.962c-0.153-6.994 0.282-21.357 1.521-51.417 0.882-21.388 1.795-43.5 1.236-48.157"/></symbol>
  <symbol id="or" viewBox="0 0 400 299.172"><path d="M375.888 147.367c0.237-3.559-4.218-6.191-8.149-8.512a23.624 23.624 0 0 1-5.541-3.952c-2.718-3.1 2.406-11.006 14.921-27.546 2.612-3.452 4.868-6.433 5.819-7.978 3.427-5.569 16.085-53.611 17.048-59.4 0.358-2.151-6.453-8.369-20.246-18.48-1.2-0.882-2.118-1.555-2.8-2.069a3.567 3.567 0 0 0-2.246-0.732c-4.779 0.093-17.85 0.5-32.62 0.951-25.379 0.784-56.962 1.759-65.75 1.759-8.995 0-31.212 8.155-47.434 14.11-16.6 5.088-17.485 10.235-25.7 4.352-1.186-1.021-5.617-1.386-8.081-1.2-6.5 0.691-17.251 8.769-23.982 9.532-8.9 0.573-19.341-6.577-29.168-5.48-10.33 0.4-23.717 10.018-33.277 11.466-5.6 0-12.971-5.662-18.449-9.871-0.926-0.712-1.773-1.362-2.51-1.9-4.644-3.414-3.776-11.793-3.2-17.337 0.147-1.419 0.274-2.646 0.274-3.459 0-1.584-5.5-6.178-12.041-10.139a3.634 3.634 0 0 0-1.882-0.52h-13.453l-0.482-0.658a51.915 51.915 0 0 1-4.931-8.155 3.606 3.606 0 0 0-3.281-2.145 176.83 176.83 0 0 0-18.8 1.467 3.66 3.66 0 0 0-3.225 3.809 65.907 65.907 0 0 0 1.576 11.871 3.446 3.446 0 0 1 0.09 0.729c0.659 45.945-7.945 102.514-9.153 151.182-0.833 11.439-2.5 26.011-10.337 35.382a3.631 3.631 0 0 0-0.458 0.688c-5.361 10.654-5.787 24.1-8.32 35.125a3.533 3.533 0 0 0-0.1 0.779c-0.034 5.274 5.285 8.625 6.026 13.628 3.106 12.744-6.151 31.429 6.1 41.644a9.552 9.552 0 0 0 6.424 2.865l350.208-2.334a3.627 3.627 0 0 0 3.612-3.544c0.588-26.579 3.112-139.821 3.52-145.927"/></symbol>
  <symbol id="pa" viewBox="0 0 399.782 233.027"><path d="M2.732 226.621a2.445 2.445 0 0 0 2.4 2.428c38.006 0.776 300.452 6.02 325.533 3.1 23.621-2.748 60.8-28.016 68.131-36.41a2.437 2.437 0 0 0 0.008-3.169c-2.2-2.61-6.658-6.985-10.421-10.673-11.8-11.572-18.971-18.911-18.971-23.264 0-3.915 2.171-39.2 6.251-44.1 0.736-0.881 2.517-2.814 4.981-5.488 4.054-4.4 12.733-13.82 18-20.322a5.113 5.113 0 0 0-2.225-8.017l-0.065-0.023c-7.9-2.907-13.6-5.235-15-8.75-1.186-2.966-1.466-9.316-1.732-17.962a94.194 94.194 0 0 0-0.54-9.482 1.7 1.7 0 0 0-0.133-0.43c-1.613-3.465-18.459-19.523-24.042-20.055-1.938-0.179-31.1 0.1-68.029 0.449-43.613 0.417-103.371-0.542-150.894 1.1-89.78 3.109-81.623-1.666-84.647-3.735-3.154-2.157-0.716-9.448-2.205-16.565a6.66 6.66 0 0 0-10.221-4.136c-11.765 7.855-21.678 14.237-33.975 20.182a8.716 8.716 0 0 0-4.933 7.973c0.617 40.841 1.828 123.026 2.731 197.336"/></symbol>
  <symbol id="ri" viewBox="0 0 312.442 398.341"><path d="M1.035 389.593c2.2-4.369 8.261-6.842 10.12-11.515 2.734-10.293-1.094-27.423-1.125-36.66-1.443-10.9 16.669-1.229 16.885-11.415 8.185-68.854 2.67-233.134-0.1-315.523-0.207-4.373 2.355-10.17 7.058-10.3C73.559 3.201 177.975 0.913 192.382 0.509c7.636-0.332 9.961 9.47 9.5 16 0.092 19.047-0.695 41.726 0.089 48.653 0.312 3.277 4.991 3.12 9.813 2.964 5.066-0.164 10.29-0.328 10.768 3.493 0.449 10.594 3.632 24.983 0.2 35.089C198.542 138.201 282.742 146.882 264.727 182.35c-2.651 4.574-8.388 21.894-13.252 21.242-5.43-2.577-8.357-9.011-10.45-14.339-3.388-6.232-4.225-23.519-13.113-24.1-4.817 0.026-11.866-0.2-15.322 3.592-3.341 7.081-2.224 17.438-7.48 24.062-3.124 3.523-8.5 5.015-11.277 9.039-4.572 8.146-0.177 24.447-1.66 33.083 0.061 7.98-10.145 7.466-15.194 11.41-9.245 5.916 2.813 11.763 8.63 26.589 10.661 31.994-16.2 63.969-25.934 90.666-4.888 3.273-12.144-1.334-17.924-1.913C115.588 359.912 81.433 379.06 57.872 385.501c-14.9 4.183-41.832 10.234-50.851 12.046a4.785 4.785 0 0 1-1.617 0.293C1.766 397.841-0.514 393.211 1.035 389.593Zm208.353-75.819c-1.818-0.76-3.357-3.156-5.466-4.867-2.749-3.6-10.727-1.263-11.119-6.13 2.691-13.435-2.493-45.351 10.834-54.406 2.31-0.548 4.62 2.985 5.9 5.712 2.528 5.584-0.6 11.794-1.145 17.386-0.58 10.078 6.353 24.5 8.319 33.192 1.52 3.85-1.7 9.348-5.844 9.347A4.84 4.84 0 0 1 209.388 313.775Zm9.489-8.639c-0.1-7.163 8.848-10.768 9.611-17.853 1.524-10.917 2.882-26.355 8.9-37.03 7.314-16.6 7.552-35.71 25-43.15 3.252 0.031 5.671 4.361 6.611 7.372 0.964 6.783-11.524 8.939-9.457 17.7 1.889 16.288 9.985 37.089 5.059 52.586-5.948 11.106-20.758 16.833-30.229 24.784-3.6 2.948-6.508 4.463-8.838 4.463C222.318 314.009 220.202 311.123 218.877 305.136Zm60.509 4.443c-8.813-16.205 0.72-31.173-8.833-48.274 2.258-18.532 7.871-29.286 0.765-48.406-0.245-5.623 2.251-14.131 5.546-18.27 4.63-5.548 21.3 2.434 26.262 4.414 4.526 3.072 1.87 5.879 0.52 14.619-0.866 4.952-1.593 11.737-1.156 16.345 2.639 14.625 9.44 47.7 9.451 60.295-3.164 8.064-17.519 15.792-24.968 21.93a5.1 5.1 0 0 1-3.249 1.484C281.877 313.715 280.417 312.081 279.385 309.579Zm-61.727-70.884c-2.253-3.631 0.2-8.232 0.871-11.986 1.2-8.508-10.2-8.96-7.033-20.781 0.275-8.346 10.244-13.018 8.93-2.513-3.559 9.41 8.148 11.761 13.3 16.813 4.18 5.12-0.241 13.213-1.982 18.941a5.469 5.469 0 0 1-5.574 4.144A10.927 10.927 0 0 1 217.659 238.695Z"/></symbol>
  <symbol id="sc" viewBox="0 0 397.491 320.493"><path d="M0 53.921s19.315 17.062 21.568 18.672 13.843 0.966 16.1 5.15 14.487 33.48 19.637 40.563 29.94 25.519 33.8 32.075 3.543 12.673 7.727 15.569 18.672 11.913 18.994 13.521-1.932 3.864 0 9.98 11.267 17.384 15.773 22.857 14.81 6.439 21.248 15.775 1.609 33.158 5.15 36.377 8.371 3.541 16.74 16.74 4.185 31.549 7.4 33.479 16.419 6.117 18.994 5.8 28.329-21.569 34.768-24.466 0.966-18.351 5.474-19.638 30.9-8.692 39.273-16.419 20.6-32.835 31.871-36.377 25.11-9.013 32.514-21.246 5.795-34.446 22.535-44.748a231.3 231.3 0 0 1 25.159-13.421 4.722 4.722 0 0 0 1.469-7.545c-14.285-15.1-58.543-61.661-85.323-87.3a20.523 20.523 0 0 0-14.2-5.7h-82.64a2.436 2.436 0 0 1-2.238-3.41c1.575-3.583 3.651-8.908 2.821-10.432-1.289-2.361-11.375-11.375-11.8-15.024-0.591-5.029-5.669-7.611-6.237 0.684-0.2 2.95-2.3 3.766-4.1 1.417-1.66-2.169-0.188-7.053-1.467-9.4-0.777-1.427-4.884-3.754-8.014-5.373a16.7 16.7 0 0 0-7.522-1.857c-12.637-0.124-53.6-0.466-79.539 0.04-13.46 0.262-57.247 15.474-73.028 21.109a17.321 17.321 0 0 0-8.987 7.314c-3.725 6.118-9.836 16.505-13.917 25.23"/></symbol>
  <symbol id="sd" viewBox="0 0 397.731 243.788"><path d="M389.349 9.147a2.855 2.855 0 0 0 0.156-0.333 5.416 5.416 0 0 0-5.171-7.292c-12.338 0.055-26.543 0.08-42.088 0.08-115.355 0-303.62-1.348-338.06-1.6a3.763 3.763 0 0 0-3.785 3.75c-0.409 76.444-0.453 148.5-0.36 207.345a2.962 2.962 0 0 0 3.03 2.965c66.127-1.294 159.662 0.91 278.191 0 16.96-0.13 19.526 5.4 25.386 10.535 3.023 2.649 6.079 6.323 8.371 6.412 3.355 0.147 9.387-6.907 10.267-7.41 2.971-1.7 22.471-1.033 27.206-0.2 3.807 0.671 22.144 12.038 34.758 20.071a1.929 1.929 0 0 0 2.694-2.61c-0.036-0.061-0.068-0.114-0.094-0.16-2.726-4.673-1.606-8.724 0.248-15.434 0.749-2.71 1.6-5.781 2.42-9.619 1.9-8.841 0.572-10.907-1.619-14.329a33.43 33.43 0 0 1-3.06-5.66c-3.221-7.824 4.366-13.975 7.353-17.057a5.906 5.906 0 0 0 1.807-3.595c1.358-16.821 0.655-118.729-0.7-126.42-0.574-3.248-6.73-9.708-11.183-13.948-4.388-4.18-6.894-6.636-7.369-8.537-0.792-3.168 2.459-6.566 6.223-10.5a36.766 36.766 0 0 0 5.381-6.458"/></symbol>
  <symbol id="tn" viewBox="0 0 399.279 95.979"><path d="M288.995 70.25c4.314-0.861 46.983-16.36 49.316-20.12a27.842 27.842 0 0 0 0.519-3.843c0.314-3.423 0.705-7.679 4.668-8.247a23.522 23.522 0 0 1 6.027 0.31c3.159 0.417 6.425 0.85 8.995-0.211 2.062-0.849 3.425-2.932 4.627-4.77 1.342-2.053 2.73-4.176 5.069-4.176a24.664 24.664 0 0 1 5.384 1.143c2.2 0.61 8.053 2.232 8.761 1.212a20.824 20.824 0 0 0 1.67-4.314c1.4-4.413 2.993-9.4 6.907-8.854 4.791 0.686 6.5 0.634 7.058 0.446 0.374-0.649 0.99-2.507 1.267-6.008a5.318 5.318 0 0 0-5.268-5.7c-46.208-0.46-69.76-1.1-73.641-1.031-0.941 0.018-2.815 0.329-3.408-1.259-0.293-0.782 0.086-1.424 0.046-2.741-0.12-1.3-3.372 1.625-4.666 2.3a33.093 33.093 0 0 1-3.291 1.6c-2.164 0.776-6.9 0.266-8.028 0.131-31.51-0.616-79.177-2.3-121.236-3.779-38.823-1.369-75.489-2.662-77.893-2.275a1.27 1.27 0 0 0-0.751 0.315c-0.276 0.5 0.422 2.319 0.838 3.406a14.531 14.531 0 0 1 1.143 4.1 3.284 3.284 0 0 1-1.036 2.66c-1.409 1.342-4.034 1.617-5.954 1.617a20.251 20.251 0 0 1-2.166-0.114l-55.037-1.365v-0.008c-0.032 0-0.064 0.006-0.1 0a12.262 12.262 0 0 1-3.593-1.121c-0.993-0.424-2.353-1.01-2.84-0.785-0.765 0.354-1.328 3.09-1.831 4.431-1.167 3.124-3.594 9.622-3.063 10.97 1.08 3.625 3.288 10.908-2.072 19.424-2.2 3.494-7.591 9.657-12.807 15.616-5.18 5.922-12.276 14.032-12.612 15.786 0.1 0.9 1.876 2.985 3.3 4.667 2.114 2.485 4.111 4.834 4.111 7 0 1.43-2.872 4.628-5.095 6.892a1.417 1.417 0 0 0 1.025 2.415c33.388-0.39 173.266-2.019 266.027-2.955a4.086 4.086 0 0 0 4.043-4.247c-0.1-2.571 0.139-5.225 1.282-6.607a2.958 2.958 0 0 1 2.343-1.121 12.636 12.636 0 0 1 4.259 0.97c2.533 0.907 3.275 1 4.183-0.318 0.978-1.413 0.942-3.619 0.91-5.564-0.041-2.383-0.09-5.347 2.6-5.887"/></symbol>
  <symbol id="tx" viewBox="0 0 400.088 384.883"><path d="M388.119 245.385c3.717-10.11 6.97-2.289 4.49-17.332-0.492-2.192 7.485-22.9 7.479-26.061-0.025-3.354-15.017-32.49-14.958-35.36-0.472-5.317-1.033-51.772-1.526-53.839-0.227-1.056-3.479-2.271-5.833-2.439-2.041-0.062-4.985-1.337-7.17-2.005-2.9-0.394-6.114 0.189-8.36-1.977-6.158-5.17-7.321-6.912-10.2-7.606-4.472 0.113-28.548 1.6-30.92 2.706-5.18 2.854-7.67 8.417-13.1 1.8-1.52-1.225-3.5-4.078-5.674-2.4-1.745 1.011-4.135 2.4-5.591 0.731-6.1 1.536-9.81 0.681-17.443-1.929-10.963-3.313-31.37-9.482-35.494-9.894-6.6-1.829-15.389 1.188-18.9-5.561-3.058-6.482-9.876-0.679-15.021-3.2-3.342-1.286-9.614-6.243-9.614-8.5-0.473-18.939-1.277-44.343-1.913-71.185-7.861-3.05-31.69 0.15-87.988-0.235a2.185 2.185 0 0 0-2.161 2.14c-0.412 26.7-1.181 79.256-2.25 163.559a2.978 2.978 0 0 1-2.974 2.939c-10.959 1.4-73.438-3.076-102.913 0.194 0.044 1.462-0.587 6.838 0.992 7.616 10.825 9.119 19.972 19.705 29.446 28.653 41.228 23.987 8.359 46.2 67.685 68.552 14.643 5.121 14.79-16.506 21.04-24.108 2.056-2.241 5.855-1.748 7.719-3.575 2.451-2.9 5.238-1.428 8.158-0.134 5.179 1.44 12.226-1.247 17.132 0.352 8.195 3.879 15.356 11.994 22.024 18.215 6.16 8.206 9.846 20.579 14.767 30.042 3.99 10.788 16.508 21.831 26.684 33.478 2.259 5.372 0.631 12.431 3.009 17.7 4.078 6.365 6.7 18 14.781 20.981 13.22 4.034 33.785 15.58 48.17 17.179 8.9-3.288-0.388-14.544-1.2-19.845-1.366-10.932-2.966-23.25 1.31-33.8 5.511-9.9-4.99-12.067-1.285-15.143 3.848-1.441 10.373-0.786 13.826-4.083 4.355-3.592 13.229-9.34 16.324-13.675 2.3-4.109-8.564-11.687 1.988-9.532 8.861 2.3 21.243-4.78 28.292-7.768 5.729-3.6 12.387-12.693 16.089-17.417 3.541-2.844-5.494-11.59 1.534-9.335 10.227 4.635 18.535 0.583 28.309-3.361 2.558-0.71 1.175-3.769 1.234-5.543"/></symbol>
  <symbol id="ut" viewBox="0 0 303.758 398.19"><path d="M303.758 393.823l-0.9-305.231a4.342 4.342 0 0 0-4.334-4.34c-37.661-0.051-76.3-0.127-115.322-0.229h0a1.985 1.985 0 0 1-1.98-1.978q-0.129-40.91-0.194-77.718a4.337 4.337 0 0 0-4.381-4.327l-170.793 1.133a4.355 4.355 0 0 0-4.326 4.286c-2.289 147.8-1.541 297.444-0.723 384.858a4.339 4.339 0 0 0 4.268 4.3c27.252 0.47 138.037 2.281 294.28 3.609a4.367 4.367 0 0 0 4.406-4.366"/></symbol>
  <symbol id="vt" viewBox="0 0 239.569 400.413"><path d="M17.03 1.343c21.229-0.625 104.472-2.668 211.408-0.021a10.177 10.177 0 0 1 9.614 7.57c1.253 4.8 2.267 10.744 0.77 13.9-2.777 5.862-14.5 19.745-15.117 26.841s10.489 27.149 10.18 31.776a21.39 21.39 0 0 1-7.095 14.809c-5.245 4.936-52.447 21.287-56.149 33.627s1.542 25.607-1.234 37.33-44.3 84.532-43.744 98.724-3.767 76.2-7.469 85.766-10.205 7.1-10.5 19.744 3.714 18.511 5.873 21.6 0 7.4 0 7.4-34.723 0-89.229-4a8.469 8.469 0 0 1-7.846-8.854c1.4-28.552 1.283-117.3-1.494-131.875-1.3-6.807-5.606-8.406-10.005-9.317a4.929 4.929 0 0 1-3.381-6.978c3.21-6.663 7.881-17.784 5.519-30.21-3.7-19.478-12.34-23.8-2.777-53.414s16.969-33.319 15.117-57.383-6.478-30.542-5.553-45.659c0.869-14.183 0.922-20.762-1.622-45.979a4.907 4.907 0 0 1 4.735-5.4"/></symbol>
  <symbol id="va" viewBox="0 0 399.859 190.658"><path d="M398.733 190c1.556-5.2 1.777-14.595-1.123-19.019-4.464-6.163-20.959 7.966-22.359-7.921-0.512-11.726-1.271-26.406 2.106-38.176 5.236-13.457 11-19.6-3.189-30.519-12.1-9.276-19.819-15.9-27.4-19.9-4.327-1.622-10.51 0.809-15.271-0.715-11.032-6.335-6.933-15.332 1.336-22.189 6.8-7.155 10.319-9.992-0.439-16.378-5.029-3.7-11.507-7.365-15.649-11.706-3.2-3.121 0.035-7.263-0.853-11.009-0.691-3.613-5.478-6.719-8.646-6.3a5.669 5.669 0 0 0-3.2 2.035c-11.231 18.5-19.074 1.559-28.388-7.72-11.164-3.572-2.362 13.956-7.6 18.435-3.994 5.123-15.288 16.12-20.823 20.69-9.832 6.946-14.445-5.14-19.632 12.677-10.618 37.737-21.515-12.329-31.785 13.348-19.325 35.175-32.475 70.856-46.783 74.254-12.2-1.385-12.651-4.2-21.455 6.786-7.494 7.15-18.039-5.243-25.876 1.9a16.146 16.146 0 0 1-5.777 2.532c-17.741 1.706-15.094-19.745-24.039-19.935-14.432 1.1-25.365 13.067-35.4 22.551-7.494 7.794-13.822 21.6-22.719 28.519-3.732 2.5-12.348 2.742-13.77 7.74 11.566 0.712 311.829 1.081 398.733 0.026"/></symbol>
  <symbol id="wa" viewBox="0 0 400 264.989"><path d="M29.541 148.544c0.373 7.048 9.9 8.053 13.482 12.723a5.6 5.6 0 0 1 1.071 3.56c-0.326 12.594-2.908 25.575-3.955 38.476a5.955 5.955 0 0 0 6.537 6.436c9.791-1.039 19.027-1.552 20.987-0.1a2.193 2.193 0 0 1 0.891 1.45c0.2 1.359 1.577 3.9 3.048 6.226a5.906 5.906 0 0 0 5 2.729h11.055l0.388 0.226c3.631 2.108 15.475 9.361 15.475 14.2 0 1.018-0.141 2.373-0.3 3.941-0.487 4.7-1.3 12.568 1.982 14.98 0.783 0.576 1.682 1.266 2.666 2.022 4.973 3.821 13.295 10.21 17.815 9.52 2.176-0.334 5.951-2.058 10.324-4.053 7.065-3.223 15.856-7.236 23.337-7.808 6.776-0.519 13.263 1.568 18.977 3.411 4.466 1.441 8.329 2.686 11.156 2.3 3.186-0.424 7.6-2.661 11.871-4.824 4.912-2.49 9.551-4.839 13.264-5.1a8.6 8.6 0 0 1 7.113 2.44 6 6 0 0 0 5.183 1.77c2.455-0.15 11.9-3.618 21.9-7.289 18.051-6.626 40.516-14.873 50.461-14.873 9.083 0 41.886-1.012 68.244-1.825 10.716-0.331 20.166-0.619 26.716-0.8a5.926 5.926 0 0 0 5.716-6.7c-0.5-3.779-1.062-8.974-1.788-16.1l-0.109-1.074c-0.874-8.565 0.9-145.9 1.61-197.939a5.936 5.936 0 0 0-5.931-6.008c-104.7-0.186-206.962-0.349-304.842-0.469a5.928 5.928 0 0 0-4.2 10.136l0.154 0.151a5.934 5.934 0 0 1-0.574 8.893c-2.189 1.7-4.637 3.533-4.923 5.883-0.685 8.284 8.425 17.929 3.055 25.568-17.5 22.868-49.412-0.139-73.671-6.981a5.454 5.454 0 0 1-0.734-0.267c-8.14-3.6-7.195 0.756-7.8 7.345-0.012 0.133-0.02 0.267-0.022 0.4-0.144 10.042-1.045 23.719 3.341 32.757a5.725 5.725 0 0 0 1.077 1.482c14.606 15 20.261 45.61 24.95 63.176"/></symbol>
  <symbol id="wv" viewBox="0 0 400 356.782"><path d="M79.012 150.14c-13.641 8.817-26.527 17.146-28.623 18.893-3.146 2.621-13.024 25.991-18.924 39.955-7.454 17.636-8.882 20.682-10.184 21.725-1.695 1.355-7.466 2.535-13.5 3.416a7.678 7.678 0 0 0-6.262 6.865c-0.709 12.1-2.23 23.316-1.132 25.563 2.977 6.085 28.1 45.531 37.8 57.835a3.4 3.4 0 0 0 5.39-0.062l0.022-0.028c1.815-2.422 3.531-4.712 6.069-4.8a4.155 4.155 0 0 1 3.419 1.617c1.318 1.537 2.9 5.176 5.58 11.476 2.436 5.72 7.5 17.621 9.789 18.812a19.088 19.088 0 0 1 5.4 2.806c2.117 1.432 3.789 2.564 7.278 2.564 2.66 0 5.375-2.107 8.248-4.335 3.289-2.551 6.69-5.187 10.8-5.187 3.749 0 8.741 1.643 13.57 3.229 4.163 1.37 8.466 2.785 10.985 2.785 1.888 0 6.5-6.165 8.971-9.478 4.566-6.11 7.309-9.568 10.578-9.568 1.885 0 4.4 0.852 7.582 1.934 5.421 1.841 12.855 4.358 16.537 2 6.084-3.911 37.369-56.462 68.142-121.075a8.1 8.1 0 0 1 4.836-4.7c3.633-1.286 8.225-0.1 13.638 3.509a59.3 59.3 0 0 1 10.435 9.18c1.594 1.68 3.572 3.77 4.337 3.77 0.044-0.008 0.431 0.126 1.778-1.442 2.19-2.556 5-10.556 7.473-17.616 5.445-15.516 8.744-24.27 14.5-23.377a35.531 35.531 0 0 1 7.275 2.118c3.19 1.2 5.083 1.848 6.776 1.087 4.454-2.059 34.951-32.039 36.662-36.041 0.445-1.338-0.057-5.6-0.46-9.02-0.772-6.556-1.5-12.748 0.754-16.13 2.751-4.128 9.166-8.768 12.983-8.392a3.773 3.773 0 0 1 3.232 2.366c0.538 1.347 4.462 7.139 7.057 10.972 1.744 2.576 3.354 4.953 4.256 6.4 2.507 4.01 12.3 11.821 14.818 11.821h0.021c3.906-1.316 13.591-14.795 13.061-17.332-1.022-2.027-4.422-7.775-9.537-16.1a13.186 13.186 0 0 0-7.922-5.863c-21.512-5.544-25.046-5.016-25.374-4.937a42.188 42.188 0 0 0-5.663 3.928c-5.749 4.343-12.9 9.749-18.75 9.749-4.68 0-7.863-3.887-10.941-7.648-3.542-4.324-5.931-6.887-8.978-6.147-4.392 1.067-21.629 17.509-33.036 28.39-18.032 17.2-20.611 19.306-23.1 18.958-3.747-0.536-4.254-3.43-2.231-38.436 0.27-4.668 0.572-9.914 0.749-14.157a6.287 6.287 0 0 0-6.174-6.546c-33.056-0.613-62.914-1.222-73.74-1.444a4.446 4.446 0 0 1-4.359-4.389c-0.183-14.55-0.785-62.4-1.119-87.06a2.6 2.6 0 0 0-3.514-2.389l-8.133 3.018a2.563 2.563 0 0 0-1.673 2.66c0.947 9.555 3.122 31.713 3.122 33.84 0 2.767-14.1 61.634-19.6 68.783-3.188 4.144-28.386 20.595-61 41.672"/></symbol>
  <symbol id="wi" viewBox="0 0 379.244 400"><path d="M26.042 86.369c-13.76 10.736-21.494 12.2-25.6 26.046-4.33 17.274 24.907 16.817 8.7 35.225-8.005 9.738-4.745 28.5-6.215 45.083a10.827 10.827 0 0 0 4.794 8.854c9.872 6.917 51.222 30.687 49.528 32.713 1.687 3.82-0.443 11.467 2.272 14.506 37.749 26.938 36.93 16.861 44.9 61.14 2.507 6.313 12.568 16.313 11 22.594-1.064 5.435-7.217 12.819-6.972 18.134 0.428 6.434 4.6 23.588 6.534 25.59 11.481 4.956 17.266 6.316 24.936 18.093a10.3 10.3 0 0 0 8.017 4.017c71.241 1.041 129.556 1.466 168.563 1.636 7.089-0.3 5.759-8.222 5.4-13.35-6.725-44.519-8.557-59.678 8.091-101.086 10.824-42.962 25.744-87.035 48.9-127.985a3.487 3.487 0 0 0-1.53-4.662c-2.747-1.391-5.591-2.318-8.172 0.023-4.834 4.34-11.018 9.462-13.695 15.691-3.377 6.1-4.977 15.832-11.383 19.756-3.813 2.228-8.175 3.692-10.812 7.4-4.987 5.116-14.013 22.568-19.62 23.776-6.861-1.446-4.141-10.771-2.185-15.321 3.673-7.7 12.89-15.541 17.908-21.89 3.634-5.145 2.945-18.3-4.9-21.359-5.992-1.609-8.346-13.519-7.377-16.042a133.714 133.714 0 0 1 3.561-19.482c-0.912-10.088-0.166-15.447-16.494-16.494-4.813 0.19-5.106-4.921-5.206-9.88 1.513-8.959-37.036-11.727-42.422-13.648-8.14-1.16-70.873-22.613-77.155-26.383-5.71-2.488-19.346-23.79-29.815-29.9-13.672-7.878-16.233-34.5-34.989-28.209-45.511 17.284-72.823 15.307-77.667 25.437-4.406 9.214 4.179 53.444-0.556 52.443-1.607 1.317-5.651 4.2-10.331 7.535"/></symbol>
  <symbol id="wy" viewBox="0 0 400 313.55"><path d="M400 307.708c-0.2-30.622-0.917-152.546-0.51-302.326a4.922 4.922 0 0 0-4.892-4.945c-39.527-0.156-243.926-0.89-389.034-0.016a5.346 5.346 0 0 0-5.324 5.336c-0.115 28.431-0.484 140.05 0.013 303.546a3.979 3.979 0 0 0 3.941 3.947c149.386 0.382 292.4 0.333 390.085 0.213a5.716 5.716 0 0 0 5.721-5.755"/></symbol>
</svg>
