<svg xmlns="http://www.w3.org/2000/svg" style="display:none" aria-hidden="true">
  <symbol id="al" viewBox="0 0 29.17 47.479"><path d="M7.046 47.277c1-0.721 0.643-3.1 1.49-4.375 4.87-4.37 13.142 0.674 18.583-2.719 1.664-1.55 0.894-4.326 1.165-6.679 0.162-1.991 1.055-3.9 0.858-5.918-2.284-7.256-3.219-17.337-4.71-25.073-0.724-3.758-17.65-2.479-19.229-1.395-4.771 3.277-5.3 31.957-5.191 37.731 0.052 5.147 1 9.647 7.034 8.428"/></symbol>
  <symbol id="ak" viewBox="0 0 46.647 47.112"><path d="M33.031 5.743c0.222 2.059 0.177 15.766 0.312 24.943-0.315 2.106 0.616 2.249 2.218 3.063 0.828 0.561 1.6 2.187 2.621 1.988 4.228-2.554 4.82 5.791 7.566 7.317a1.9 1.9 0 0 1 0.494 2.766c-11.095-5.226-3.712-9.337-20.631-13.74-1.838 0.849-4.458 5.308-6.078 1.9-1.522-1.1-2.232 3.576-3.251 4.542-1.973 2.405-10.524 9.22-12.387 8.545-2-1.032 7.85-5.108 7.54-7.474 0-1.27-1.629-1.792-2.626-2.238-3.2-2.05-8.97-5.1-6.453-9.586 0.932-2.077 4.5-2.218 4.819-4.516-0.514-2.991-6.516 0.352-7.152-4.166-0.261-1.6 1.788-2.965 3.439-2.877 0.736 0 2.187 0.262 2.38-0.583-0.235-2.46-4.188-3.792-4.437-6.468 9.564-14.539 14.048-7.948 27.556-5.765a4.166 4.166 0 0 1 4.07 2.351"/></symbol>
  <symbol id="az" viewBox="0 0 39.773 48.073"><path d="M38.774 0.409c-17.946-0.154-30.532-0.363-33.216-0.409 0.681 5.994-3.332 6.869-4.838 11.762-1.4 4.565 2.458 8.327 2.306 12.706-0.89 2.367-2.16 6.175-1.5 9.206 2.061 2.6-1.563 1.524-1.521 4.573-0.465 2.362 18 6.94 24.734 9.115 2.071 0.669 7.206 0.869 11.87 0.586a3.275 3.275 0 0 0 3.1-3.275c-0.04-9.476 0.258-38.767-0.185-43.585a0.757 0.757 0 0 0-0.753-0.679"/></symbol>
  <symbol id="ar" viewBox="0 0 47.146 41.548"><path d="M36.479 26.604c2.832-4.2 7.4-4.2 8.045-14.017 0.225-3.423 5.975-6.011-0.3-6.214-4.2-0.917 2.337-6.626-5.966-6.175-10.241 0.139-29.284-0.747-36.665 0.393-2.547 0.393-1.328 14.457-1.09 20.773 0.31 8.222-1.236 14.516 3.809 15.063 2.025 0.22 0.97 4.812 3.662 4.729 4.986-0.759 22.63 2.488 26.106-2.224 1.283-4.032-1.3-8.91 2.4-12.328"/></symbol>
  <symbol id="ca" viewBox="0 0 40.183 48.073"><path d="M17.282 16.252c-1.085-3.046-0.153-11.678-0.506-15.916a0.339 0.339 0 0 0-0.348-0.336l-15.019 0.1c-0.63 0.005-0.932 0.549-1.144 1.142-1.009 2.814 0.893 16.472 5.2 24.085 3.223 5.694 6.859 9.082 9.8 12.483 2.819 3.263 9.863 3.635 13.272 9.443 0.993 1.427 6.112 0.748 9.783-0.177 1.287-0.324 0.369-2.007 0.406-3.117 0.088-2 2.34-3.664 1.073-5.769-4.98-7.254-10.8-9.992-22.515-21.937"/></symbol>
  <symbol id="co" viewBox="0 0 47.871 35.237"><path d="M47.235 35.224a0.64 0.64 0 0 0 0.636-0.638V0.265a0.267 0.267 0 0 0-0.265-0.265c-4.295 0.011-23.88 0.055-47.092 0.026a0.512 0.512 0 0 0-0.514 0.512l0.1 33.993a0.553 0.553 0 0 0 0.548 0.554c13.33 0.109 29.46 0.184 46.585 0.139"/></symbol>
  <symbol id="ct" viewBox="0 0 47.912 34.569"><path d="M1.923 30.332c-5.431 2.686 1.748 6.914 7.849 1.913 22.783-11.236 42.535 5.392 37.286-24.318-0.37-3.32-0.219-7.555-4.311-7.255-46.219 3.709-39.822-13.516-38.334 25.742 0.216 3.294-0.477 3.165-2.49 3.918"/></symbol>
  <symbol id="de" viewBox="0 0 21.964 48.034"><path d="M2.064 0.743c-2.661 0.731-1.986 4.265-1.99 9 0.1 2.207 0.3 4.7 0.54 7.321 0.627 6.878 1.868 16.517 2.353 22.025 0.154 4.129 0.457 8.1 5.534 8.464 3.909 0.11 11.26 2.051 13.031-2.678a21.347 21.347 0 0 0 0.172-7.672c-0.515-3.566-2.079-4.037-4.869-6.559-3.831-3.243-4.588-5.83-4.535-10.741-0.165-4.061-3.59-6.953-4.676-10.675-0.76-6.019 4.749-11.144-5.441-8.517Z"/></symbol>
  <symbol id="fl" viewBox="0 0 48.001 42.396"><path d="M44.327 18.861c-0.778-2.887-2.4-5.442-3.454-8.528-1.009-1.975-1.539-7.333-4.029-7.557a4.826 4.826 0 0 0-1.5 0.779c-1.4 1.044-3.441-0.639-5.714-0.684-3.961-0.484-8.86 0.28-12.669-1.177a15.487 15.487 0 0 0-7.711-1.6c-2.176 0.329-9.8-1.275-9.22 2.16 1.019 3.436 4.813 1.842 7.821 2.862a10.325 10.325 0 0 1 1.816 0.739c2.009 0.844 3.4 3.078 5.54 3.39 1.685 0.031 3.37-1.172 5.1-1.464 3.8-0.827 6.346 3.485 8.837 5.887 1.655 1.738 1.645 4.45 1.547 6.641 0.152 2.367 0.833 3.636 1.308 5.993 0.316 2.6 2.412 4.238 3.524 6.488a27.164 27.164 0 0 0 2.7 4.645 29.748 29.748 0 0 0 2.844 3.971c4.862 3.951 6.917-4.963 6.926-8.536 0.124-4.158-1.9-6.06-2.729-9.768-0.312-1.342-0.513-2.714-0.888-4.055Z"/></symbol>
  <symbol id="ga" viewBox="0 0 40.044 48.015"><path d="M20.733 1.198c2.18-2.24-13.238-0.6-17.565-0.877-2.067-0.128-3.645 0.562-3.036 2.946 1.426 8.71 5.2 18.833 5.435 25.24 0.117 3.212-2.052 7.881-0.377 14.189 2.046 6.617 20.693 0.073 24.786 5.238 1.5 0.635 0.559-2.653 1.838-2.93 1.078-0.446 3.159 0.166 3.986-0.851 1.544-3.6 2.872-7.674 4.244-11.325a39.888 39.888 0 0 0-12.766-20.186c-1.869-1.4-2.213-3.817-3.427-5.675-1.887-2.481-6.457-3.129-3.118-5.769"/></symbol>
  <symbol id="hi" viewBox="0 0 48.938 31.783"><path d="M36.038 22.091c0.4-10 11.609-2.9 12.4 2.722-0.063 2.965-4.478 4.244-6.666 5.74a3.926 3.926 0 0 1-2.084 0.729C36.521 31.283 35.805 25.154 36.038 22.091ZM30.9 15.776a3.112 3.112 0 0 1 1.255-0.586c1.555 0.714-0.18 1.628-1.123 1.628C30.506 16.817 30.227 16.533 30.9 15.776Zm2.589-0.283c-0.5-0.812-3.479-2.915-1.2-3.266 1.855 0.291 4.5 0.437 5.349 2.413-0.17 0.964-1.37 1.574-2.482 1.573A2.006 2.006 0 0 1 33.487 15.491Zm-5.012-1.808c-0.3-0.81 0.008-1.619 1.448-1.091 1.293 0.288 1.888 2.09 0.227 2.347-0.03 0-0.06 0-0.09 0A1.845 1.845 0 0 1 28.475 13.683Zm-2.183-2.254c-2.012-2.012 4.383-1.028 5.072-0.747 0.222 0.945-0.5 1.214-1.473 1.214C28.636 11.895 26.954 11.451 26.291 11.428ZM20.479 9.905c-5.79-1.171-0.439-8.229 2.7-0.647 0.046 0.664-0.5 0.84-1.146 0.84A9.6 9.6 0 0 1 20.479 9.905ZM3.208 1.814l0.1 0.017C4.372 3.316 2.152 4.585 1.361 5.567l-0.089 0C-0.965 5.569 2.279 2.036 3.208 1.814Zm2.606 1.9c-3.22-1.454 0.65-3.816 2.5-2.962 1.231 1.165 0.11 3.3-1.441 3.3A1.919 1.919 0 0 1 5.815 3.719Z"/></symbol>
  <symbol id="id" viewBox="0 0 29.35 47.883"><path d="M28.754 32.225c-1.228-2.157-4.112-0.792-6.094-0.991-3.8-0.067-4.885-3.862-7.355-5.876-2.445-1.584-3.1-2.348-2.829-5.35a7.125 7.125 0 0 0-2.206-5.477 17.648 17.648 0 0 1-5.738-11.5c-0.308-2.711-2.885-4.614-4.02-1.16-0.594 2.1-0.331 4.447-0.4 6.611 0.062 3.126-0.418 7.318 0.252 10.1 0.51 1.719 1.7 3.514 1.7 5.356 0.179 2.331-1.733 5.124-1.82 7.848-0.191 5.931 0.03 8.612 0.022 12.466 0 1.469 0.161 3.495 2.069 3.556 5.906 0.188 17.1-0.013 23.1-0.018 2.756 0 3.874-2.043 3.9-4.993a57.739 57.739 0 0 0-0.5-10.417Z"/></symbol>
  <symbol id="il" viewBox="0 0 26.337 47.206"><path d="M26.337 6.39c-0.861-2.53-2.117-3.415-1.83-6.15-3.592-0.417-13.021-0.179-18.135-0.106 4.037-0.058 3.364 6.081 0.261 8.492-3.362 1.391-3.984 4.36-5.282 7.945-0.648 1.716-1.5 3.5-1.329 5.367 0.347 2.719 2.362 5.335 4.12 7.188 1.727 1.595 3.3 3.124 3.637 5.485 0.288 3.508 2.5 5.921 4.562 8.773a19.886 19.886 0 0 0 2.027 3.06c2.226 2.153 5.66-0.738 7.123-2.7a16.207 16.207 0 0 0 1.726-3.947c1.161-3.151 2.5-6.531 2.211-10.029 0.706-7.445 0.874-18.126 0.909-23.374"/></symbol>
  <symbol id="in" viewBox="0 0 28.718 47.625"><path d="M6.512 0.011c-3.534 0.071-2.735 4.7-2.946 9.352-0.479 8.868-1.041 18.345-0.521 27.081-2.915 8.36-7.162 11.98 6.022 11.034 2.953-1.774 6.453-1.836 9.3-3.308 2.048-2.034 4.149-5.161 6.983-6.506 3.266-1.55 3.033-32.072 3.361-34.721 0.439-3.547-19.661-2.861-22.2-2.932"/></symbol>
  <symbol id="ia" viewBox="0 0 48.157 31.045"><path d="M1.009 0.838c-3.6 8.241 3.525 16.782 4.541 25 0.106 1.851-0.072 5.08 2.516 4.846 4.854 0.06 17.83-0.416 26.364-0.379 3.785 0.75 5.231 1.89 7.172-2.214 0.8-1.707-0.2-3.882 0.7-5.23 1.716-1.974 6.009-2.964 5.85-6.492 0.066-4.4-6.233-6.811-6.938-10.884 0.073-2.593-0.59-5.521-3.808-5.139-8.94 0.346-26.611-1.273-36.4 0.489"/></symbol>
  <symbol id="ks" viewBox="0 0 47.876 24.901"><path d="M47.453 6.86c-0.614-1.123-2.066-1.792-2.508-2.981-0.237-1.238 1.2-2.031-0.073-3.037a3.977 3.977 0 0 0-2.74-0.7c-4.458 0.045-38.948-0.127-41.425-0.141-0.5 0.052-0.661 0.634-0.685 1.091-0.04 1.365-0.014 15.462-0.011 21.542a2.993 2.993 0 0 0 0.425 1.771 1.529 1.529 0 0 0 1.188 0.5c14.3-0.009 29.315-0.183 43.786-0.461 1.155 0.048 2.337-0.209 2.271-1.567 0.06-2.35 0.52-14.805-0.228-16.013"/></symbol>
  <symbol id="ky" viewBox="0 0 47.53 21.573"><path d="M44.762 4.593c-2.34-3.822-7.667-1.15-10.564-4.11-5.9-2.45-9.069 5.12-13.938 7-3.81 2.06-8.791 1.317-12.306 3.642-2.545 2.631-9.293 5.3-7.719 9.648 1.622 1.178 4.923 0.931 6.673 0.062 8.448-3.218 23.458 1.745 32.873-0.831 3.178-1.317 5.424-4.536 7.561-7.118 0.924-2.618-1.823-5.771-2.58-8.293"/></symbol>
  <symbol id="la" viewBox="0 0 47.934 47.187"><path d="M46.631 37.513c-5.276-12.2 2.394-12.467-15.607-11.954-12.318 0.46-0.3-10.762 0.507-15.95 0.718-9.475-6.124-9.323-13.464-9.312-6.264-0.159-11.948-0.564-15.143-0.029-7.088 3.443 0.8 18.161 1.882 23.593 0.966 4.9-3.7 11.361-1.354 15.872 3.607 1.214 9.508 2.476 13.057 2.39 2.268-0.338 3.918-3.115 6.314-2.348 3.249 1.673 5.16 6.416 9.06 7.155 4.275 1.482 20.757-3.671 14.748-9.417"/></symbol>
  <symbol id="me" viewBox="0 0 32.434 47.98"><path d="M32.433 29.514c0.031-1.941-1.753-2.936-2.983-4.1-5.331-7.169-2.668-12.593-3.93-20.953-1.205-4.363-4.132-3.5-7.71-3.093-1.363-0.281-2.4-1.619-3.345-1.328-5.827 4.472-6.941 12.413-9.412 18.884-1.094 3.266-5.021 4.946-5.053 8.344 0.765 5.525-0.376 14.485 1.858 20.272 1.842 2.065 3.553-3.777 5.051-4.552 1.505-1.338 3.917-1.09 5.827-2.344 2.493-1.6 3.69-5.007 7.209-4.413 3.473-0.317 11.4-3.415 12.488-6.716"/></symbol>
  <symbol id="md" viewBox="0 0 47.732 32.726"><path d="M46.903 18.696c-1.357-0.333-4.073-0.156-5.046-1.776-1.8-3.906-1.177-9.946-1.878-13.814-0.5-4.172-5.785-2.455-8.607-2.775-7.969-0.036-18.935-0.292-28-0.329-2.416-0.076-3.751 2.159-3.274 4.5 0.119 0.544 0.409 0.905 0.851 0.871 2.344-0.6 4.2-4.606 6.906-3.96a5.479 5.479 0 0 0 3.5 0.227c4.2-1.961 7.987 1.827 10.45 4.849 0.58 0.908 0.893 2.077 1.563 2.967 0.736 1.076 1.966 1.781 2.8 2.815 1.757 1.953-1.868 4.166-0.86 6.157 1.19 1.413 3.677 1.294 5.146 2.592 4.865 3.423 2.124-1.74 2.646-4.111 1.279-2.779 3.164 2.523 4.436 3.017 0.963 0.576 2.165 1.128 2.183 2.4 0.008 2.45-1.155 5.1-1.2 7.826-0.142 1.343 0.8 3.165 2.35 2.384 2.048-1.143 2.9-4.718 4.343-6.886 0.453-1.19 3.991-5.923 1.825-6.913Z"/></symbol>
  <symbol id="ma" viewBox="0 0 48.092 25.419"><path d="M40.898 15.01c-0.667-1.994-2.639-3.569-2.721-5.78-0.079-2.879 3.046-9.229-1.828-9.23-8.745 6.117-24.728-0.077-32.54 2.982-12.72 18.317 9.592 12.033 20.432 12.873 9.624-0.844 6.538 9.306 12.538 9.564 3.742-1.765 8.9 2.015 11.313-2.351-1.592-1.919-6.492-2.926-7.194-8.058"/></symbol>
  <symbol id="mi" viewBox="0 0 47.314 49.338"><path d="M29.913 48.466a51.3 51.3 0 0 0-7.153-0.347c-5.177 0.165 1.229-3.387 0.8-5.777 0.545-3.1-0.994-6.227-1.377-9.219-0.022-2.666 1.6-5.071 1.508-7.759 0.29-2.338 3.124-3.686 5.025-4.664 3.513-2.03 1.835-7.357 6.063-4.758 14.648 5.466 0.694 15.18 5.387 16.2 3.505-3.2 5.42-2.379 6.034 2.3 2.261 6.3-2.049 9.913-5.972 13.927a21.564 21.564 0 0 1-4.616 0.459C33.718 48.838 31.832 48.652 29.913 48.466Zm-15.236-29.4C16.703 11.179-1.324 13.769 0.655 7.932 3.957 5.601 8.136 5.087 10.793 1.793c0.6-0.818 3.45-2.226 3.215-0.4C13.303 2.401 11.376 3.501 11.418 4.933c0.067 0.388 0.621 0.43 1.286 0.489 2.7-0.194 3.456 2.879 5.622 3.638 2.184 0.694 4.278-0.04 6.4-0.773 1.988-0.688 4-1.377 6.126-0.883 1.573 2.239 2.02 2.064 4.723 1.878 2.083 0.343 3.049 4.995-0.1 4.36-3.755 0.45-1.635 1.374-5.52-0.661a4.051 4.051 0 0 0-2.615 0.509c-1.261 0.647-3.187 0.4-4.153 1.669a2.521 2.521 0 0 1-1.976 1.1c-1.2-0.567-2.7 0.511-3.968 1.589-1.024 0.874-1.888 1.747-2.3 1.747C14.764 19.601 14.669 19.441 14.677 19.062Z"/></symbol>
  <symbol id="mn" viewBox="0 0 41.41 47.225"><path d="M0.001 5.65c1.5 12.559 4.786 27.493 4.11 40.072-0.1 1.887 14.722 1.462 20.864 1.462 15.592 0 4.938-4.09 1.17-10.53-1.057-2.664-0.173-5.691 0.489-8.317 3.093-12.262 22.855-17.8 11.053-19.12-7.109-0.46-12.8-4.256-19.935-4.9-2.277-0.671-3.2-3.222-5.16-4.233-1.1-0.436-2.845 0.889-5.149 1.26-3.123 0.4-7.528-0.07-7.442 4.3"/></symbol>
  <symbol id="ms" viewBox="0 0 29.332 48.2"><path d="M26.773 24.552c0.292-9.377 2.565-17.083 2.559-23.65a2.065 2.065 0 0 0-1.93-0.776c-12.308 0.475-16.488-2.629-20.374 6.827-2.878 2.538-2.822 6.185-2.662 9.653-1.2 3.717 0.455 7.117 1.107 10.687 0.383 4.463-8.061 8.8-4.667 13.083 1.828 0.014 12.232-0.24 13.166-0.191 2.295-0.1 1.335 1.9 1.24 3.568 0.41 1.241 0.811 4.8 2.635 4.419a12.709 12.709 0 0 1 6.583-1.339c1.017 0.144 2.527 0.416 2.453-1.082-0.235-5-0.541-14.153-0.11-21.2"/></symbol>
  <symbol id="mo" viewBox="0 0 47.844 43.593"><path d="M46.422 39.818c3.242-3.367 0.163-8.088-1.536-11.7-1.424-2.206-4.62-3.474-4.724-6.393 0.607-5.839-1.487-4.5-4.459-8.572-5.7-5.308-3.57-8.521-6.979-12.04-4.9-2.15-20.214-0.518-26.632-0.476-4.379 0.028-0.783 4.475 0.889 5.962 7.1 13.25 3.231 14.1 3.868 28.3 0.273 2.844 0.886 4.475 3.5 4.455 6.086 0.085 18.235-0.534 26.27-0.1 5.477-0.482 5.143 9.6 9.805 0.565"/></symbol>
  <symbol id="mt" viewBox="0 0 47.98 26.152"><path d="M47.264 23.278c0.377-0.042 0.446-0.385 0.5-0.815 0.056-6.641 0.083-14 0.209-20.923 0.074-0.978-0.2-1.624-1.3-1.531-15.161 0.212-31.622 0.253-45.857 0.163-1.332-0.007-0.671 4.358-0.425 5.63 0.845 4.373 3.647 5.774 6.392 8.629 0.625 1.255-0.267 3.046-0.171 4.552-0.051 1.246 0.952 1.043 1.818 1.273a3.657 3.657 0 0 1 1.823 2.107c0.761 1.588 1.635 3.548 3.523 3.788a12.862 12.862 0 0 0 5.4-1.027c1.194-0.919 1.992-2.015 3.726-1.828 6.347-0.008 21.554-0.018 24.372-0.018"/></symbol>
  <symbol id="ne" viewBox="0 0 47.911 22.281"><path d="M0.401 0.16a0.411 0.411 0 0 0-0.4 0.413c0.013 7.2 0.045 12.373 0.056 13.966a0.362 0.362 0 0 0 0.361 0.356c5.188-0.007 8.876-0.016 10.351-0.02h0a0.576 0.576 0 0 1 0.476 0.252 0.615 0.615 0 0 1 0.1 0.345v6.259a0.333 0.333 0 0 0 0.326 0.333c3.1 0.059 20.082 0.358 35.925 0.137 0.321-0.005 0.405-0.562 0.216-0.82a6.6 6.6 0 0 1-1.637-3.092c-0.411-1.619 0.183-9.029-3.871-13.37-1.606-1.721-2.666-3.708-6.241-3.726a18.933 18.933 0 0 1-2.572 0.233c-1.067-0.183-1.052-1.21-3.479-1.264-12.6-0.281-22.561-0.139-29.61 0"/></symbol>
  <symbol id="nv" viewBox="0 0 31.654 46.642"><path d="M0.116 0.738c-0.163 6.372 0.059 12.821-0.113 17.887a5.21 5.21 0 0 0 0.676 2.792c7.559 8.376 23.236 21.976 26.059 24.8 1.925 1.939 0.572-3.334 1.467-4.275 0.568-0.981 2.085-1.091 2.772-1.913a3.462 3.462 0 0 0 0.554-2.375c-0.069-5.815 0.427-35.907-0.19-37.019a1.427 1.427 0 0 0-1.237-0.635c-4.616 0.029-24.5 0.162-28.872 0.193-0.459 0.005-0.884 0.036-1.086 0.471Z"/></symbol>
  <symbol id="nh" viewBox="0 0 22.45 47.474"><path d="M12.225 13.743c-3.895 5.07-6.86 1.4-7.049 10.2-2.857 5.347-5.5 9.308-4.765 15.788 0.011 2.79-1.924 7.6 2.515 7.421 4.605-0.3 10.44 1.526 14.335-1.2 6.1-3.449 6.467-3.544 2.951-9.829-2.6-6.192 0.044-35.533-4.082-36.119-5.493 1.548-2.489 9.64-3.905 13.739"/></symbol>
  <symbol id="nj" viewBox="0 0 25.336 47.936"><path d="M24.91 19.953c-6.205-2.731 0-7.971 0.426-12.362-0.154-2.549-9.153-7.679-11.821-7.59a21.009 21.009 0 0 0-6.956 8.162c-5.122 14.309 12.849 13.955 2.735 20.673-4.064 3.2-9.846 4-9.252 10.46 0.238 3.068 3 3.963 5.251 5.3 1.634 1.17 3.211 3.2 4.953 3.337 7.461-0.759 15.854-21.442 14.664-27.983"/></symbol>
  <symbol id="nm" viewBox="0 0 41.664 48.443"><path d="M17.2 43.126c1.291-1.447 18.349 0.024 22.916-0.711 1.107-0.179 0.967-1.825 1-2.825 0.149-10.826 0.661-33.873 0.517-37.416-0.076-1.836-2.141-1.937-3.2-2.027-13.4 0.3-37.986-0.608-38.26 0.194-0.333 0.974-0.127 39.414 0.03 47.34 0.048 2.422 4.676-1.576 6.466-3.042 2.651-2.172 7.91 1.225 10.527-1.513"/></symbol>
  <symbol id="ny" viewBox="0 0 47.612 39.575"><path d="M47.592 36.392c-3.041-0.873-9.1 0.977-6.983-4.006 0.111-2.3-0.435-4.736 0.121-7 2.243-7.445 0.066-15.755 0.194-23.492-4.185-4.981-15.134 0.943-18.19 5.535 1.2 11.958-8.915 6.858-16.562 8.338-2.407 0.635-1.621 2.378-1.8 4.214-0.382 1.855-3.4 2.856-4.22 4.778-2.468 6.02 25.817-0.149 29.132 3.235 1 0.708 1.311 2.079 1.681 3.026 1.138 2.514 5.937 2.675 6.682 5.428-1.59 6.1 10.518 1.706 9.945-0.053"/></symbol>
  <symbol id="nc" viewBox="0 0 47.897 18.101"><path d="M45.555 0.519c-10.809-0.9-22.314-0.332-29.594-0.432-2.445 1.192-4.68 3.516-7.642 4.058-6.015 3.717-14.822 7.351-0.843 5.812 3.326-0.852 7.287-1.366 10.51 0.124 1.227 0.944 2.1 2.157 3.829 1.862 6.747-1.82 9.49 11.5 15.011 3.668 1.221-2.557 8.31-2.068 6.443-5.252-0.016-1.964 3-1.8 3.884-3.245 1.414-1.9 0.777-5.71-1.6-6.595"/></symbol>
  <symbol id="nd" viewBox="0 0 47.833 29.093"><path d="M42.82 0.065c-13.421-0.017-27.381-0.04-41.585-0.065a0.925 0.925 0 0 0-0.929 0.908c-0.16 8.913-0.254 18.318-0.306 27.293a0.692 0.692 0 0 0 0.688 0.7c5.435 0.04 33.979 0.242 46.585 0.186a5.184 5.184 0 0 0 0.022-4.641 13.4 13.4 0 0 1-0.8-4.354c-0.249-3.7-0.131-7.226-1.614-10.474-1.027-2.868-0.391-5.721-1-8.651a1.078 1.078 0 0 0-1.063-0.9"/></symbol>
  <symbol id="oh" viewBox="0 0 44.458 47.99"><path d="M13.637 3.133c-2.515-0.009-5.036 0.292-7.571 0.376-4.492 0.345-6.487-0.46-5.992 4.714 0.078 6.3 0.125 16.954 0.055 27.346-0.174 4.01 2.7 2.183 4.192 4.891 1.185 2.9 4.567 4.4 7.544 4.654 1.816-0.02 3.976-0.84 5.678-0.633 3.191 1.629 6.266 6.611 8.911 0.683 1.363-6.767 9.87-8.978 13.723-13.205A25.119 25.119 0 0 0 42.329 20.308c3.508-5.18 1.551-14.58 1.853-19.129 0.007-1.575-1.654-1.254-2.752-0.844-4.542 1-7.543 4.977-11.983 6.128-5.8 1.79-10.506-2.508-15.81-3.331"/></symbol>
  <symbol id="ok" viewBox="0 0 47.651 22.82"><path d="M47.124 1.166a1.461 1.461 0 0 0-1.34-1.046c-14.72-0.349-30.381 0.157-44.829 0.322-0.755 0.041-1.015 0.823-0.943 1.543a1.358 1.358 0 0 0 1.228 1.214c2.932 0.266 12.96-0.153 14.476 0 0.973 0.1 1.117 1.447 1.134 2.238 0.113 4.032 0.047 7.134 0.288 10.343 0.351 4.658 19.689 5.959 26.947 5.692a3.539 3.539 0 0 1 2.07 0.936c0.587 0.42 1 0.544 1.3 0.259 0.546-0.512-0.229-20.523-0.335-21.5"/></symbol>
  <symbol id="or" viewBox="0 0 47.883 36.803"><path d="M45.005 17.188c-1.691-4.1 4.161-10.718 2.616-13.224-5.757-9.342-20.949 0.707-30.754 1.109-3.168 0.13-5.276 0.919-7.076-2.092-1.878-2.867-6.844-4.868-6.834 0.217-0.139 5.675-0.059 11.981-1.309 17.662-0.975 4.43-3.495 13.257 0.68 14.953 5.474 2.222 21.557 0.023 30.4-0.06 5.278-0.6 10.236 2 11.989-0.831 1.248-2.016 1.239-13.274 0.287-17.734"/></symbol>
  <symbol id="pa" viewBox="0 0 48.003 27.975"><path d="M0.713 26.384a1.88 1.88 0 0 0 1.881 1.129c2.312 0.074 6.142 0.125 10.516 0.208 9.62 0.161 21.735 0.342 25.975 0.206a14.721 14.721 0 0 0 8.559-3.849c0.781-0.962 0.133-2.114-0.483-2.99-2.944-3.54-1.093-6.817 0.656-10.447 0.516-1.819-1.12-4.307-1.995-6.282-1.3-2.438-3.328-2.52-6.314-2.432-1.822 0.015-3.681 0.033-5.468 0.042-5.683 0.02-12.669-0.028-18.738 0.171-2.5-0.044-6.5 0.373-8.615-0.371-0.408-0.3-0.57-1.137-1.309-1.523a2.249 2.249 0 0 0-1.442-0.214 5.065 5.065 0 0 0-3.926 5.112c0.046 4.473 0.153 11.013 0.234 17.54a12.441 12.441 0 0 0 0.419 3.575Z"/></symbol>
  <symbol id="ri" viewBox="0 0 34.306 47.776"><path d="M22.499 31.085c3.209-5.539 4.122 6.047 5.917 7.9 1.139 1.556 3.557-1.33 4.917-2.732 1.7-1.581 0.816-5.72 0-7.65-2.494-6.184-5.87-2.737-8.2-9.179-1.126-4.165 0.631-15.232-3.15-17.7-3.566-2.37-23.642-3.4-21.877 4.372 0.812 8.441 2.085 21.541 2.217 26.969 0.184 6.608-6.571 18.9 5.858 13.277 11.425-2.387 11.773-4.652 14.314-15.258"/></symbol>
  <symbol id="sc" viewBox="0 0 47.902 38.844"><path d="M0.009 6.605c5.179 6.949 11.533 13.525 16.721 20.565 3.465 3.556 4.768 16.64 11.585 9.654 5.653-5.135 13.036-8.993 16.843-15.837 4.338-4.35 3.073-4.964-0.6-8.691-5.175-6.525-9.375-6.733-16.8-7.214-3.854-2.4-5.81-5.651-11.372-5-4.3-0.14-16.761 0.863-16.378 6.519"/></symbol>
  <symbol id="sd" viewBox="0 0 48 28.676"><path d="M0.506 0a0.455 0.455 0 0 0-0.457 0.454c-0.05 9.219-0.055 17.908-0.044 25.005a0.358 0.358 0 0 0 0.366 0.358c7.975-0.155 19.257-0.155 33.552 0a13.31 13.31 0 0 0 6.979 1.514c1.859-0.251 4.754 2.867 5.978 0.368 1.12-2.286 1.12-13.588 1.12-19.721a5.165 5.165 0 0 0-1.525-3.651c-1.1-0.993-0.887-1.733-0.081-2.666a1.027 1.027 0 0 0-0.048-1.478c-1.486 0.006-41.684-0.153-45.84-0.184"/></symbol>
  <symbol id="tn" viewBox="0 0 47.97 11.488"><path d="M35.223 8.601c1.176-0.911 3.634-1.3 5.011-2.255a8.116 8.116 0 0 1 2.613-1.858c1.84-0.806 4.637-0.972 5.123-3.045-0.063-0.236-0.383-0.437-0.828-0.542-2.906-0.286-6.1-0.089-8.99-0.338-7.308 0.287-18.724-0.63-24.74-0.559-1.1 0-1.537 1.221-2.977 1.331-2.006 0.2-4.654-0.412-6.546 0.127-1.234 0.728-0.7 2.739-1.493 3.851-0.746 1.421-2.429 2.477-2.4 3.911 0.014 0.747-0.065 2.035 0.836 2.2 3.95 0.2 12.871-0.154 21.666-0.18 3.167-0.085 6.213 0.093 9.162-0.177 1.533-0.341 2.406-1.442 3.45-2.375Z"/></symbol>
  <symbol id="tx" viewBox="0 0 47.782 45.886"><path d="M25.273 9.63c-1.18-0.41-0.85-9.34-1.384-9.563-0.4-0.168-5.06 0.009-10.817 0.228-0.915 0.034-0.366 12.525-0.626 19.982-0.022 0.628-11.957 0.371-12.279 0.828-0.959 1.358 2.462 2.425 3.559 3.527 3.412 1.98 3.854 8.966 8.856 7.982 8.784-10.307 10.879 9.228 17.129 12.535 4.613 2.374 3.835-1.478 4.271-4.62 0.571-4.109 6.123-6.709 9.744-9.172 6.756-4.6 3.191-11.83 2.488-17.047-0.264-1.957-5.335-1.924-7.791-2.062-6.118-0.345-8.96-1.757-13.15-2.618"/></symbol>
  <symbol id="ut" viewBox="0 0 37.193 47.984"><path d="M36.059 47.775c0.512-0.14 0.582-1.1 0.575-1.652-0.11-9.619 1.566-35.047-0.393-35.477-2.822-0.618-12.149-0.327-13.229-1.177-2.9-2.115 1.178-9.813-3.956-9.457-3.771 0.025-12.955 0.07-16.408 0.115-1.815-0.023-2.285 1.047-2.407 2.976-0.4 14.893-0.175 30.989-0.151 41.049 0.054 1.191 0.014 2.839 1.184 3.333 4.574 0.446 4.677 0.117 16.825 0.345 4.613 0.086 16.578 0.327 17.96-0.055"/></symbol>
  <symbol id="vt" viewBox="0 0 27.901 48.186"><path d="M0.295 8.562c0.786 5.369-0.415 10.636-0.285 16.053 0.64 5.073 2.215 10.035 2.054 15.213 0.089 2.962-0.358 6.347 1.86 7.6 3.425 1.727 8.72 0.513 9.652-3.625 1.166-3.814 0.381-9.335 1.788-13.44 0.859-2.517 2.424-4.792 3.316-7.3 1.26-3.429 1.13-6.631 3.434-8.847 1.366-1.4 3.229-2.363 4.431-3.921a7.287 7.287 0 0 0-0.245-8.794c-1.516-1.529-3.9-1.476-6.229-1.479l-6.423 0c-6.785 0.153-14.451-1.483-13.365 8.342Z"/></symbol>
  <symbol id="va" viewBox="0 0 47.968 23.305"><path d="M47.799 22.014a0.915 0.915 0 0 0 0.088-0.934 24.007 24.007 0 0 1-1.329-2.935c-0.52-2.3 0.032-6.182-2.269-8.088-0.893-0.883-2.188-1.59-2.858-2.615-0.944-1.278-1.135-3.5-2-5.09a6.359 6.359 0 0 0-4.727-2.352c-3.376 0.562-4.753 4.553-7.843 5.9a17.214 17.214 0 0 0-5.967 6.435c-2.03 4.016-5.377 5.321-9.519 4.823-2.2-0.43-4.4-1.13-6.4 0.454a35.828 35.828 0 0 0-4.789 4.753c-0.212 0.293-0.241 0.434-0.093 0.508 2.634 0.262 22.779 0.517 34.1 0.4 3.71-0.041 5.909-0.089 8.65-0.157 1.468 0.018 4.131-0.119 4.9-1.043Z"/></symbol>
  <symbol id="wa" viewBox="0 0 47.911 31.212"><path d="M46.72 26.877c1.795-3.1 1.14-13.741 0.725-22.305-0.164-3.394-1.069-4.276-4.046-4.186-11.916-0.048-22.663-0.386-32.672-0.386-5.741 0 1.882 7.16-8.24 5.98-6.122-0.714 0.9 8.427 1.6 12.589C4.26 19.612 4.846 23.312 5.446 24.212c1.292 1.69 3.975 1.762 5.432 3.308 1.5 1.611 2.437 3.98 5.165 3.666 6.852-0.789 8.431-1.632 18.634-2.613 3.644-0.35 10.071 0.66 12.04-1.694"/></symbol>
  <symbol id="wv" viewBox="0 0 47.97 42.562"><path d="M9.132 17.661c-4.258 1.965-4.649 7.232-7.766 10.245-3.245 2.838 0.034 6.855 2.173 9.7 4.268 2.534 3.879 5.945 9.421 4.688 1.723 0.3 3.156-0.916 4.672-1.393 1.286-0.408 2.794-0.021 3.57-1.227a132.949 132.949 0 0 0 6.517-11.871c2.15-4.43 3.863 0.182 5.789-2.4 2.171-4.687 7.559-3.306 8.558-9.8 0.113-0.372 0.657-1.067 1.214-0.933 1.027 0.058 2.189 2.015 3.329 2.118 3.595-0.933-0.516-5.983-5.517-3.429-1.559 0.127-3.263-1.182-4.622 0.084-1.129 0.595-5.249 6.167-5.653 2.833 0.9-7.5-3.314-4.978-8.7-5.8-3.063-1.23-0.777-6.254-1.614-8.824-1.458-6.93-1.583 10.065-4.27 11.082a50.945 50.945 0 0 1-7.1 4.923"/></symbol>
  <symbol id="wi" viewBox="0 0 45.361 48.03"><path d="M2.208 9.879c-2.726 2.367-1.952 4.351-1.972 7.712-2.231 9.211 12.155 11.322 12.7 20.858-0.265 6.067 3.166 9.565 9.289 9.34 6.348-0.308 11.108 1.007 15.843-0.492 1.417-1.236 0.916-3.553 0.928-5.278-0.19-8.049 4.624-15.27 6.369-22.82-1.284-0.989-4.636 5.49-6.406 5.252 4.312-18.379-11-12.009-19.645-20.37-3.672-5.308-9.357-5.016-14.189-1.541-1.526 2.074-0.784 5.5-2.914 7.339"/></symbol>
  <symbol id="wy" viewBox="0 0 47.399 37.059"><path d="M47.092 36.164c0.393-1.243 0.415-33.413 0.028-34.906a1.409 1.409 0 0 0-1.152-1.178c-5.624-0.021-27.748-0.18-43.66 0.021-1.158 0.155-2.038 0.241-2.252 1.187-0.112 2.494-0.023 31.742-0.02 33.045-0.117 1.6 0.511 2.61 2.334 2.656 15.676 0.129 31.447 0.038 42.37 0.055 0.725 0.017 2.068 0.019 2.352-0.88"/></symbol>
</svg>
