<svg xmlns="http://www.w3.org/2000/svg" style="display:none" aria-hidden="true">
  <symbol id="al" viewBox="0 0 75.154 121.769"><path d="M19.404 120.996a4.7 4.7 0 0 0 1.877-3.719c0.508-4.64-5.731-9.306-2.164-13.307 3.927-1.81 9.822-1.137 14.274-1.241 11.755 0.261 20.267 0.47 33.937 0.039 2.769 0 5.576-1.023 5.274-4.272-0.29-3.782-1.249-7.771-1.732-11.542-0.455-3.53-1.037-5.2 0.4-8.227 0.866-1.9 2.277-3.7 3.189-5.559a6.057 6.057 0 0 0 0.459-4.506c-0.919-3.026-3.237-6.7-4.464-9.971-3.564-11.7-6.238-35.211-9.164-52.608-0.3-1.977-0.464-3.877-1.869-4.932-1.2-0.939-3.258-1.17-4.906-1.15-14.108 0.137-28.693 0.3-42.093 0.463-1.6 0.021-3.627 0.248-4.4 1.626-5.316 28.516-9.151 73.675-7.715 106.746 0.48 3.1-0.7 11.19 3.634 10.753 1.847-0.5 2.31-3.08 3.27-4.493a1.506 1.506 0 0 1 2.446-0.506c1.57 1.481 1.333 4.162 2.857 5.538 1.674 1.6 4.734 2.238 6.749 0.964Z"/></symbol>
  <symbol id="ak" viewBox="0 0 117.664 121.009"><path d="M83.37 16.825c0.112 6.772 0.482 30.944 0.7 67.17a1.368 1.368 0 0 0 1.247 1.357c5.422-1.3 7.536 8.073 11.18 7.017 8.892-9.843 12.049 16.478 20.05 18.69 2.364 1.866 0.738 9.53-2.768 6.484-22.908-16.106-10.735-25.664-45.6-32.455-3.383-5.637-6.55-1.449-8.807 2.227a12.3 12.3 0 0 1-7.505 4.535c-3.5 0.266-1.177-3.572-1.495-6.026-0.965-4.206-4.883 4.084-5.843 5.319-1.055 2.117-0.253 4.433-1.411 6.267-6.928 6.193-13.207 13.722-21.642 18-1.762 0.685-15.171 9.329-12.384 3.723 3.137-6.242 21.762-9.749 21.382-21-0.519-0.922-2.5-0.489-4.329-1.27-1.28-0.46-2.442-1.33-3.728-1.725-1.535-0.429-3.151 0.038-3.952-0.885-1.247-2.435-1.49-6.2-5.188-5.961-5.859 0.18-6.483-6.136-8.313-10.375-0.722-4.1 2.744-8.5 5.835-10.683 2.835-1.908 8.867-1.943 9.129-6.142 0.056-9.663-5.691-0.816-14.956-4.7-2.282-0.895-2.691-3.636-3.931-5.46-3.8-4.063 3.8-7.159 6.722-8.752 2.8-1.29 4.169 1.2 6.612 1.95 2.6 0.576 3.4-3.01 2.337-4.82-1.381-2.3-5-1.78-5.774-4.574-1.228-4.523-9.643-6.574-7-11.916 1.354-2.059 5.241-1.56 6.969-3.653 3.876-8.425 9.711-14.052 18.906-16.773 4.7-4.3 6.084-1.926 10.895 0.28 1.9 0.478 3.413-0.081 5.144 1 3.445 2.634 6.513 3.384 10.909 3.338 6.193 1.6 12.786 5.348 19.213 3.206 0.273 0.821 7.856 3.384 7.393 6.6"/></symbol>
  <symbol id="az" viewBox="0 0 101.179 122"><path d="M100.176 1.053c-46.44-0.391-79.081-0.933-85.98-1.053a0.652 0.652 0 0 0-0.66 0.663c0.061 6.152 0.122 11.046 0.166 14.347-2.21 14.776-16.7-3.6-12.592 18.1a61.069 61.069 0 0 0 4.406 20.2c1.59 6.228 11.405 4.666 2.022 11.489-3.484 2.4-2.955 4.66-3.07 8.354-0.3 2.239-2.241 3.71-2.732 6.018-1.618 4.585 3.846 6.6 4.377 10.269-0.343 4.02-6.976 3.568-6.019 7.771 6.681 4.649 46.822 17.425 63.506 24.115a0.618 0.618 0 0 0 0.1 0.032c4.788 1.089 23 0.5 36.836 0.348a0.649 0.649 0 0 0 0.642-0.654l-0.352-119.346a0.658 0.658 0 0 0-0.651-0.652"/></symbol>
  <symbol id="ar" viewBox="0 0 122.041 104.929"><path d="M95.289 66.232c6.414-5.789 6.1-15.966 13.456-21.138 6.048-4.769 2.386-5.415 0.165-10.508 0.648-3.173 9.239-11.44 12.577-15.965 0.93-1.012 0.727-1.866-0.9-1.8-4.488-0.664-11.3 0.665-15.178-1.6-0.478-6.36 11.516-13.6-2.26-15.022-14.877 1.833-107.778-3.753-102.966 4.339C4.226 26.622 4.346 38.422 3.271 58.985c0.331 7.188-3.494 24.984 1.467 27.876 4.181 1.692 10.08 0.6 9.641 7.232 0.525 3.276-1.226 10.047 3.357 10.339 10.213 0.157 36.489 0.366 62.918 0.5 1.969-0.034 3.666-0.288 4.7-1.958 6.109-11.893-3.74-27.486 9.936-36.739"/></symbol>
  <symbol id="ca" viewBox="0 0 103.933 121.131"><path d="M98.791 119.073c3.973-1.008 2.107-3.157 1.254-5.866a19.283 19.283 0 0 1 3.2-10.825c1.11-1.284 0.756-2.87-0.2-4.136-1.814-2.561-2-6.51-4.129-8.9-5.068-4.771-29.625-24.343-49.576-45.709-2.4-2.576-4.716-4.679-4.648-8.19-0.325-8.778 0.374-22.761-0.475-33.159-0.365-2.147-2.656-2.393-4.419-2.251-8.354 0.1-28.661-0.013-35.622 0.248-5.04 0.236-0.94 6.244-1.427 9.332-0.351 5.41-5.75 11.392-0.383 15.606 4.9 3.749 1.269 10.5 4.773 15.083 3.846 4.526 6.977 9.691 10.484 14.493 2.186 5.132 1.9 8.805 7.1 12.4 1.3 1.832-0.16 4.927 0.952 7.129 6.748 9.931 10.549 9.532 13.733 22.311 3.434 2.486 9.848 0.593 13.294 4.362 35.479 12.624 4.586 25.18 46.094 18.079"/></symbol>
  <symbol id="co" viewBox="0 0 122 89.807"><path d="M120.379 89.773a1.63 1.63 0 0 0 1.621-1.627v-87.47a0.677 0.677 0 0 0-0.2-0.48 0.665 0.665 0 0 0-0.473-0.2h0c-10.946 0.029-60.861 0.142-120.017 0.068a1.3 1.3 0 0 0-1.308 1.306l0.256 86.633a1.414 1.414 0 0 0 1.4 1.413c33.969 0.277 75.078 0.468 118.723 0.353"/></symbol>
  <symbol id="ct" viewBox="0 0 121.878 87.524"><path d="M120.502 3.8a2.892 2.892 0 0 1 0.563 1.579c0.164 2.434 0.352 6.3 0.522 11.539 0.274 9.553 0.433 22.371 0.115 32.029 0.09 2.6-2.857 3.536-3.193 5.889-0.159 1.451 0.429 3.242-0.5 4.5-2.517 2.24-5.65-0.042-8.939 1.568-4.21 1.533-7.973 5.458-12.531 5.04-6.031-0.081-28.975-0.283-40.46 0.157-2.911 0.189-4.676-0.108-7.351 1.67-3.446 2.089-7.01 4.955-10.366 7.025-2.087 1.192-4.01-0.076-6.081 1.043-2.8 2.3-6.115 3.21-9.61 3.831-3.746 1.687-6.977 6.156-11.635 6.842-7.153 3.739-15.874-3.726-7.808-8.819 2.972-2.017 6.692-4.4 8.4-5.757a1.7 1.7 0 0 0 0.836-1.771c-0.494-1.885-3.294-4.305-3.122-6.514 0.223-5.648 2.532-32.133 3.811-56.589 0.055-1.967 0.468-5.064 1.425-6.221a2.59 2.59 0 0 1 2.459-0.837c14.9 0.3 74.381 1.738 98.934 2.349 1.507-0.029 3.69 0.34 4.461 1.369Z"/></symbol>
  <symbol id="de" viewBox="0 0 56.478 122"><path d="M4.499 3.61q-0.416 0.048-0.908 0.094a3.968 3.968 0 0 0-3.577 4.292c1.623 19.185 6.689 78.911 8.939 103.805a10.078 10.078 0 0 0 9.186 9.148c6.224 0.536 16.111 1.05 31.079 1.051a6.74 6.74 0 0 0 6.8-7.179l0-0.076c2.362-38.822-4.155-22.149-23.179-47.334a35.713 35.713 0 0 1-0.326-15.675 10.823 10.823 0 0 0-1.646-7.9c-9.5-14.7-11.669-18.587-11.669-20.5 0-2.275 2-11.949 3.694-19.766a2.957 2.957 0 0 0-3.852-3.413 73.4 73.4 0 0 1-14.537 3.451"/></symbol>
  <symbol id="fl" viewBox="0 0 121.91 107.678"><path d="M113.107 46.771c-0.4-4.517-5.583-8.1-6.548-12.491-2.8-9.116-8.485-20.579-8.672-28.5-1.024-1.441-6.484-0.46-7.37-0.907-2.672 2.69 4.539 10.84-4.173 6.579-1.191-0.587-1.162-3.608-2.881-3.8-5.257-0.65-31.452-1.32-39.634-1.663-0.918-0.184-2.6-3.313-2.779-4.369 0-0.507-0.308-1.687-1.142-1.559-14.4 1.295-29.009-1.446-39.793 0.989-0.808 1.806 2.92 6.021 3.13 8 0.4 1.036-1.677 4.222 0.831 4.091 11.111-3.758 17.625-1.8 27.005 3.527 9.131 6.819 1.513 12.992 18.647 3.028 3.3-1.823 7.717-3.94 10.574-1.039 3.435 3.412 8.8 10.622 11.3 13.346 3.34 2.818 5.747 0.5 6.928 6.783 2.4 6.275-1.484 12.741-1.9 18.93 0.89 0.863 2.33-1.117 3.874-0.639 1.347 0.332 2.79 1.825 2.162 3.2-3.607 4.331-2.641 6.966-0.3 11.774 2.848 6.5 3.4 2.453 6.73 3.313-0.154 5.543 0.568 5.143 3.122 9.712 0.81 7.6 0.892 4.947 6.519 9.035 3.5 3.1 2.671 10.334 5.67 13 2.877 0.967 10.944 1.065 11.483-2.7 15.584-36.536-4.175-32.221-2.784-57.642"/></symbol>
  <symbol id="ga" viewBox="0 0 101.868 122.182"><path d="M53.046 2.819c6.539-5.355-37.488-1.267-46.538-2.166-3.783-0.124-7.548 1.471-6.244 5.692 3.39 17.7 5.167 44.339 10.891 57.8 1.779 4.178 4.912 8.057 2.883 12.337-7.272 8.755-2.522 19.452-1.13 29.812 1.366 9.2 6.249 8.9 14.494 9.021 12.987 0.661 35.266 0.718 44.96 2.2 0.373 0.142 0.525 0.345 0.836 0.769 2.241 4.013 6.078 6.58 5.511-0.8-0.208-2.413 0.2-3.777 2.265-3.934 3.3-0.429 10.014 1.538 11.069-3.313 1.564-5.273 4.854-16.064 8.009-22.326 3.15-5.367 1.715-5.934-0.623-11.015-0.839-8.528-6.475-14.965-10.821-22.078-5.684-9.6-10.6-16.318-19.677-23.189-5.214-3.627-5.274-10.765-9.018-15.321-4.983-4.967-16.54-7.148-6.867-13.492"/></symbol>
  <symbol id="hi" viewBox="0 0 122.744 80.362"><path d="M100.791 79.383c-4.307-1.792-2.883-5.945-3.427-9.8-1.549-6.311-4.941-8.753 0.627-14.385 0.744-1.327 0.545-2.774 0.363-4.242-0.529-3.793 1.987-3.375 4.432-1.889 3.215 1.862 6.836 2.78 10.086 4.585a10.156 10.156 0 0 1 4.109 4.586c1.312 2.72 4.137 4.675 5.223 7.537l0.04 0.162c0.118 5.759-9.74 5.916-13.191 8.808-2.342 1.363-3.8 5.117-6.508 5.116A3.783 3.783 0 0 1 100.791 79.383ZM79.878 40.651a6.035 6.035 0 0 1 3.681-2.02c2.184 0.3 0.784 3.253-0.988 3.632A5.994 5.994 0 0 1 81.478 42.357C80.243 42.357 78.819 42.009 79.878 40.651ZM85.357 37.169c-0.887-2.638-6.369-2.452-4.99-6.207 0.986-2.038 3.025-0.63 4.335 0.219A4.82 4.82 0 0 0 87.56 31.469a6.438 6.438 0 0 1 2.168 0.034c1.731 0.876 7.215 3.019 6.958 5.4-0.526 1.616-2.511 2.2-3.987 2.7a14.164 14.164 0 0 1-4.165 1C86.957 40.612 85.851 39.769 85.357 37.169ZM73.032 34.232c-2.285-2.763 1.053-2.848 3.2-2.174 1.013 0.352 2.69 1.779 2.417 3.128a2.854 2.854 0 0 1-2.511 1.913A3.57 3.57 0 0 1 73.032 34.232Zm-1.033-5.389a18.1 18.1 0 0 0-2.472-0.1 14.538 14.538 0 0 1-3.049-0.2c-2.3-0.589-0.066-3.29 1.48-3.335 4.183 0.331 8.485 0.59 12.622 1.283 1.44 1.366-1.324 2.91-2.526 3.215a3.85 3.85 0 0 1-1.034 0.133C75.394 29.843 73.673 28.994 71.999 28.842ZM54.221 23.599a8.671 8.671 0 0 0-2.775-0.5c-3.172 0.581-5.856-2.112-6.3-5.332-0.419-2.029 2.25-2.2 3.439-3.356 3-3.708 4.953 0.291 6.278 2.983 0.681 1.966 3.033 2.676 3.682 4.6 0.128 1.631-0.6 2.115-1.665 2.115A10.994 10.994 0 0 1 54.221 23.599ZM0.633 11.557C-0.334 8.869 3.471 6.559 5.298 5.288c0.751 0.437 0.385 1.779 0.322 2.519C5.056 9.429 2.751 9.726 2.178 11.48a1.069 1.069 0 0 1-0.869 0.6A0.75 0.75 0 0 1 0.633 11.557ZM10.962 5.911C10.245 4.26 12.308 2.379 13.727 1.496a6.477 6.477 0 0 1 3.36-0.895C18.429 0.469 19.966 0.277 20.864 0.913l0.132 0.1a2.955 2.955 0 0 1 0.7 3.193C21.327 7.869 19.605 9.269 17.496 9.269S12.885 7.864 10.962 5.911Z"/></symbol>
  <symbol id="id" viewBox="0 0 74.052 121.089"><path d="M73.847 82.035c-0.346-2.013-1.927-5.89-4.2-4.677-0.664 0.4-1.2 1.1-1.862 1.543-1.818 1.344-5.3 0.324-7.787 0.672-2.7 0.134-5.863 1.614-8.484 1.3-1.51-0.483-1.672-2.278-2.525-3.507-0.784-1.393-2.2-2.079-3.318-3.1a4.864 4.864 0 0 1-1.355-3.256c-0.1-1.941-1.212-3.652-2.579-5.633-1.036-1.424-2.233-3.639-4.14-3.718-1.065 0-2.068 0.666-3.087 0.944a3.488 3.488 0 0 1-3.07-0.33c-0.87-0.852-0.257-2.24-0.07-4.531 0.363-2.514 0.96-5.834 1.5-8.986 0.346-2.287 0.9-4.392 0.544-5.251-0.314-0.85-1.721-0.665-3.172-1.224-3.707-1.545-5.473-6.533-8.042-9.336-1.175-1.385-2.818-2.3-4.069-3.6-1.545-1.554-1.362-3.835-2.242-5.987a16.182 16.182 0 0 0-2.087-3.35 5.019 5.019 0 0 1-1.032-2.682c-0.234-2.664-0.085-8.494-0.055-13.089a5.015 5.015 0 0 0-0.814-3.064c-1.137-1.459-3.9-1.147-6.155-1.16-2.733-0.03-4.25 1.368-4.1 4.2-0.175 12.348-0.474 36.725-0.382 42.053 0.138 2.026 0.175 5.227 1.519 7.005 1.672 2.2 5.567 3.761 5.239 6.559-0.51 2.982-1.688 6.627-2.552 9.669-1.011 4.193-2.979 5.947-4.958 9.207-1.549 2.55 0.8 4.172 1.7 6.218 0.378 6.877-0.752 24.163-0.523 34.279 0.211 1.669 0.678 1.926 1.62 1.867l69.137-0.454c2.544 0.707 1.215-13.071 1.532-14.787-0.1-8.186 0.211-16.179-0.112-23.648Z"/></symbol>
  <symbol id="il" viewBox="0 0 67.013 121.447"><path d="M5.599 41.114c-6.179 3.716-6.429 12.945-4.617 19.268a6.629 6.629 0 0 0 1.337 2.55c2.962 3.464 7.938 5.919 10 10.145 1.075 2.243 1.036 5.216 2.06 5.805 0.945 0.616 2.764-0.609 4.575-0.139a5.187 5.187 0 0 1 3.247 2.512c1.974 4.365-3.369 10.315-2.514 14.106 0.941 2.042 2.794 2.729 4.771 4.386a94.686 94.686 0 0 1 8.432 6.6 3.25 3.25 0 0 1 0.9 1.651c0.361 2.117 0.5 4.584 0.82 6.78 0.345 2.75 0.577 4.353 2.5 5.719 3.137 2.373 3.954-0.208 6.478-2.094 1.6-1 3.744-0.672 5.309-1.739 1.455-0.885 1.959-2.464 3.042-3.355 1.147-1.069 3.185-1.267 4.215-2.41 0.865-0.938 0.261-2.866 0.892-4.312 0.491-1.23 1.617-2.089 1.958-3.394a14.91 14.91 0 0 0 0.129-3.983c-0.135-5.115 1.377-6.325 4.835-10.347 1.119-1.357 2.492-2.727 2.886-4.458 0.5-2.108-1.4-4.818-1.8-7.144a12.332 12.332 0 0 1-0.128-3.388c1.53-17.862 2.009-41.972 2.1-55.444 0.027-3.332-1.942-6.55-3.252-9.585a18.579 18.579 0 0 1-0.9-2.56c-0.778-2.361 0.007-5.5-2.62-5.939-9.216-0.673-32.032-0.2-42.354 0.107-0.732 0.022-0.268 1.162 0.555 2.151 4.888 5.191 5.5 11.2 0.734 16.71a12.278 12.278 0 0 1-7.323 4.2c-2.117 0.626-5.36 1.485-5.22 4.111 0.176 1.37 1.655 2.35 1.93 4.041a12.9 12.9 0 0 1-2.845 9.336Z"/></symbol>
  <symbol id="in" viewBox="0 0 73.708 121.999"><path d="M22.765 0.409c-1.777 0.608-3.973 1.721-5.993 2.2-4.02 0.942-6.043 1.784-5.971 5.727-0.271 19.708-0.851 44.048-2.289 64.248-0.218 4.213-0.989 8.448-0.146 12.307 0.591 3.056 2.215 6.065 2.095 9.214-0.311 4.822-5.363 8.6-7.967 12.527-2.9 3.915-3.771 10.19 0.131 13.331 1.842 1.1 4.077 0.039 5.938-0.532 8.344-2.014 9.639 9.65 25.6-4.722 3.647-3.485 7.341 1.461 11.189 0.618 2.52-0.73 3.705-6.449 6.276-8.915 1.967-2.41 5-4.386 6.727-6.592 1.424-1.762 2.758-3.96 4.746-4.247 3.33-0.4 7.18-0.451 8.885-4.063 1.341-2.4 1.5-5.856 1.518-8.778 0.44-31.394 0.057-65.566-0.107-77.46a2.441 2.441 0 0 0-1.352-2.464c-1.811-0.9-4.712-1.2-6.944-1.4-10.113-0.91-20.26-0.988-28.266-1.1-5.767 0.219-9.216-0.843-13.931 0.054Z"/></symbol>
  <symbol id="ia" viewBox="0 0 119.104 76.899"><path d="M2.751 0.41c-4.848 1.962-1.94 6.492-1.319 10.08 0.184 2.967-1.256 5.81-1.34 8.747-0.068 2.459 1.761 4.484 2.544 7.029 0.5 5.444 3.57 10.208 5.768 14.881 1.149 6.665-0.038 7.216 4.474 12.959 3.248 5.581-1.455 17.275 3.36 19.748 7.247-0.023 46-0.479 69.7-1.284 5.75-0.84 6.759 4.367 9.62 4.329 1.093-0.789 1.307-2.552 2.318-3.5 1.536-1.647 3.738-2.095 4.589-4.128 1.273-3.391 2.723-7.587 0.046-10.114-4.276-8.832 10.791-6.465 13.43-12.273 8.839-9.992-2.982-18.941-9.73-25.855-4.423-1.585-5.868-6.393-5.611-10.8 0.362-2.474 2.167-4.845 0.677-7.145a5.082 5.082 0 0 0-4.666-2.54c-19.322-0.186-71.211-1.042-93.865-0.135"/></symbol>
  <symbol id="ks" viewBox="0 0 122.018 63.351"><path d="M121.658 38.165c0.142-6.394 0.394-15.065 0.356-17.132 0.044-3.355-2.985-5.856-5.525-8.029-2.789-2.205-4.531-3.829-1.179-6.675 1.136-1.1 2.08-1.931 1.117-2.747-2.151-1.495-4.579-3.124-7.187-3.214-12.567 0.179-102.028-0.246-108.04-0.367-0.736-0.02-1.248 0.93-1.182 1.672-0.007 3.784 0 8.043 0 12.826 0.057 15.218-0.088 29.894 0.04 46.9a1.8 1.8 0 0 0 2.035 1.955c38.289-0.1 78.507-0.486 117.159-1.291a1.685 1.685 0 0 0 1.907-1.943c0.111-6.344 0.309-14.378 0.5-21.725Z"/></symbol>
  <symbol id="ky" viewBox="0 0 119.912 56.805"><path d="M112.268 15.472c-2-1.49-3.976-4.056-6.25-5.522-2.3-1.322-5.029-0.308-7.5 0.041-4.061 0.858-8.236-0.589-11.6-2.413a8.514 8.514 0 0 1-3-2.346c-1.481-2.01-3.113-6.366-6.319-4.956-2.03 0.935-1.57 3.4-2.324 5.388-0.982 2.993-4.85 3.4-7.477 3.615-1.772 0.4-2.532 2.356-3.81 3.527-1.577 1.738-3.638 2.852-5.005 4.314-1.792 1.735-1.815 5.835-4.069 6.9-2.246 1.145-5.468-2.046-7.419-1.416a3.622 3.622 0 0 0-1.048 0.636c-2.776 2.678-6.964 5.3-10.7 5.6-2.4 0.132-4.383-2.153-6.834-2.009-1.761 0.088-3.281 1.088-5.054 1.209-1.643 0.2-3.831 0.543-4.649 1.822-0.836 1.218-0.444 2.8-0.671 4.169-0.378 2.188-3.064 2.194-4.614 3.422-1.578 1.06-2.574 3.148-4.229 4.008a13.415 13.415 0 0 1-3.082 0.917c-3.565 0.9-5.8 5.1-5.957 8.908-0.2 1.919-1.867 5.11 1.039 5.156 4.276 0.173 10.384 0.334 14.56 0.367a2.021 2.021 0 0 0 2.209-1.785c0.069-0.757-0.025-1.4 0.4-1.772 1.027-0.913 2.418-0.871 3.808-0.981 3.165-0.129 9.865 0.443 14.373 0.685 17.94 0.5 40.253 1.42 56.14 1.668 3.391 0.048 7-1.771 9.94-3.153 2.731-1.252 3.705-2.9 5.658-5.532a32.931 32.931 0 0 1 6.97-7.44 27.423 27.423 0 0 0 3.368-3.139c1.611-1.969 0.608-2.948-1.525-5.917-1.488-2.189-3.432-4.569-4.03-7.1-0.66-2.423 0.2-5.125-1.208-6.773Z"/></symbol>
  <symbol id="la" viewBox="0 0 122.088 119.892"><path d="M115.554 94.946a3.406 3.406 0 0 1-3.383-1.633c-0.629-1.6 1.071-3.011 1.48-4.507 0.855-2.245-0.049-4.61-0.925-7.1a63.279 63.279 0 0 1-2.549-8.283 18.757 18.757 0 0 1 0.467-6.133c0.245-1.487 0.43-3.037-1.195-3.417-8.687-2.07-34.055 1.149-44.293-0.3-1.532-0.495-2.98-1.144-3.306-2.322-0.53-1.988 0.323-4.733 0.854-6.985 1.068-3.917 2.286-7.847 4.6-11.186 2.729-3.775 6.653-6.171 8.6-10.465 1.013-1.808 2.029-3.812 2.952-5.678 1.11-2.327 2.625-4.562 1.146-6.891-2.194-2.808-1.918-6.11-2.809-9.489-1.421-4.709-2.438-10.335-8.691-9.989-25.813-0.225-54.386-0.429-64.4-0.551a3.675 3.675 0 0 0-4.09 3.477c-0.06 8.334 0.387 17.4 0.548 25.58a9.252 9.252 0 0 0 0.671 3.206c1.9 5.087 9.3 20.277 11.506 26.178a6.182 6.182 0 0 1 0.495 4.28c-0.653 3.13-3.541 11.323-5.061 16.413a15.617 15.617 0 0 0-0.9 5.612c0.051 2.235 0.769 5.1-0.005 7.29-0.727 2.339-3.036 4.06-3.47 6.487-0.451 4.629 5.507 3.093 8.411 2.775a37.6 37.6 0 0 1 6.333-0.374c5.3 0.186 9.955 3.441 15.051 4.785 1.635 0.436 3.3 0.748 4.969 1.051 6.674 1.381 7.5-0.066 9.941-6.212 1.214-2.831 3.576-4.636 6.671-3.65 6.976 1.858 8.361 8.106 11.75 13.391 2.722 3.5 7.661 6.16 11.821 8.321 10.276 5.052 10.571-6.886 15.8-3.531 1.975 1.511 4.524 5.8 6.85 3.155 1.073-1.442 1.317-3.6 2.193-5.154 1.658-3.49 5.775-1.862 8.771-2.479 2.395-0.445 4.2-2.32 5.913-4.361 2.716-3.162 4.889-7.021 3.27-10.9-1.348-3.323-3.329-0.71-5.808-0.426Z"/></symbol>
  <symbol id="me" viewBox="0 0 82.495 121.948"><path d="M82.414 74.702c-1.778-9.89-6.682-6.272-10.551-11.762-1.377-2.562 0.285-6.207-1.717-8.629-1.749-1.83-5.7-2.523-5.115-5.753 0.094-5.8 0.247-21.981 0.159-31.125 0.432-5.824-3.3-12.272-8.545-14.54-2.616-0.8-4.557 1.24-8.234 2.554-9.986 3.846-6.23-7.3-12.193-5.176-4.821 4.769-8.037 11.338-12.048 16.889-6.376 9.278-6.559 21.04-10.909 31.229-0.914 2.726-3.476 4.305-5.044 6.635-1.239 2.339-2.053 5.263-4.451 6.742-2.1 0.707-4.023 0.086-3.738 3 1.992 9.121-1.2 49.606 6.232 56.845 1.227 1.012 2.316-0.45 2.854-1.589 14.26-26.792 10.449-6.419 27.8-21.4 3.752-2.19 1.877-8.444 7.42-7.8 10.414 1.845 21.67-2.806 28.946-9.683 3.832-1.739 9.992-0.673 9.135-6.434"/></symbol>
  <symbol id="md" viewBox="0 0 121.87 83.169"><path d="M120.141 46.105c-5.784-0.681-13.213 1.534-15.559-3.33a10.075 10.075 0 0 1-1.085-4c-0.848-9.45-2.379-27.593-3.029-35.126a2.629 2.629 0 0 0-1.095-2.213c-2.179-1.38-7.977-0.209-12.158-0.354-22.709-0.242-55.236-0.519-81.77-1.066-1.177-0.014-2.673-0.1-3.556 0.53-2.767 2.254-1.6 11.375-1.851 15.638 0.669 1.774 9.367-7.35 11-8.7 1.457-1.354 3.051-2.882 4.6-4.148 1.322-1.028 1.71-1.379 2.918-1.168a7.77 7.77 0 0 1 4.711 3.107c1.223 1.522 2.935 1.349 4.559 0.373 1.475-0.846 2.8-2.1 4.247-3 1.107-0.66 1.119-0.568 2.537-0.464a47.862 47.862 0 0 1 7.507 1.619 8.043 8.043 0 0 1 4.929 4.312c1.853 3.325 6.074 5.713 8.643 7.282 1.666 0.939 1.541 2.511 0.994 4.364-0.4 1.305-0.548 2.709 0.543 3.639 2.643 2.6 9.084 5.995 11.026 8.2 3.683 5.248-8.547 9.366-6.978 14.158a3.941 3.941 0 0 0 4.521 2.689c1.79-0.116 3.3-0.65 4.864-0.148 2.08 0.792 6.77 4.208 11.583 7.892 0.955 0.725 3.139 2.23 3.254 0.312a6.423 6.423 0 0 0-0.335-1.876 71.708 71.708 0 0 1-2.672-12.769 7.8 7.8 0 0 1 0.039-2.382c0.318-1.69 1.889-2.128 3.5-1.49 2.5 0.913 3.655 3.832 4.421 6.242 1.555 4.628 1.946 7.606 6 6.86 1.094-0.133 2.41-0.817 3.453-0.645 3.589 2.1-4.242 21.036-3.5 28.3-0.145 4.207 3.579 5.584 7.121 3.416 1.877-1.086 2.645-3.017 3.457-4.841 3.223-6.714 8.668-17.733 12.72-24.823 0.778-1.707 4.057-5.849 0.629-6.354Z"/></symbol>
  <symbol id="ma" viewBox="0 0 121.787 65.152"><path d="M102.045 38.451c-0.675-3.08-3.152-5.745-5.452-7.691-2.448-2.155-4.48-3.86-3.681-7.239 0.566-2.663 2.522-5.071 3.615-7.411 1.652-3.424 0.638-7.182 0.117-11.074-0.208-2.2-1.043-4.906-3.633-5.032-6.86-0.227-8.261 9.919-17.278 9.051-21.306-0.615-53.149-1.226-64.239-1.516a4.981 4.981 0 0 0-3.55 1.024c-2.244 2.017-2.375 5.635-3.154 8.446-1.146 5.142-3.062 10.472-4.376 15.8-0.706 3.468-0.825 5.934 2.254 6.661 13.44 2.551 52.465-0.721 67.081 1.218 10.225 1.834 10.271 12.618 14.426 21.277 2.612 6.457 7.028 1.575 11.968-1.405 10.9-6.787 0.981 11.688 21.746-0.762 1.047-0.725 4.777-2.613 3.707-3.8-2.068-1.642-12.5-0.407-16.876-7.3-2.147-2.975-2.055-6.768-2.63-10.06Z"/></symbol>
  <symbol id="mi" viewBox="0 0 118.825 123.119"><path d="M82.254 121.199c-4.438-0.135-24.77-0.76-30.123-1a0.545 0.545 0 0 1-0.322-0.964 38.47 38.47 0 0 0 8.9-9.805c1.631-7.992-0.512-18.55-3.839-25.977-0.38-1.077 0.547-1.926 1.025-2.813 1.457-1.783-0.382-3.782 0.422-5.675 5.551-10.025 1.908-5.784 2.736-14.1 2.635-2.483 7.192-5.995 9.357-9.166 0.712-0.534 0.384 1.436 0.812 2.5 1.054 2.8 1.841-1.958 2.4-2.788 1.237-2.729 5.725-3.41 6.977-6.008 0.254-2.835-2.59-7.281 1.64-7.816 2.172-0.91 2.829-0.67 4.121 1.179 6.166 4.166 16.591 6.321 18.855 14 0.374 7.511-0.4 16.764-5.818 22.323-1.676 1.424-1.492 6.124 0.663 7.093 3.4 0.017 3.883-5.22 7.08-6.185 6.838-5.122 9.595 5.656 9.205 10.613 5.341 17.067-0.579 17.859-9.674 28.927-1.637 1.9-1.6 5.711-4.4 6.116-4.519 0.312-11.449 0.736-18.678 0.963C82.825 122.546 83.289 121.073 82.254 121.199ZM37.719 48.737C35.988 44.819 41.764 37.399 33.232 37.161c-0.239-0.622-0.058-2.134-0.317-2.723-0.478-1.115-10.482-2.735-10.583-2.75A174.588 174.588 0 0 1 4.652 25.646c0.222-0.139-6.342-4.693-3.384-6.2 6.27-3.064 11.2-6 17.51-7.912C23.441 9.819 27.582 3.405 31.745 1.175 34.023-0.215 40.815 1.103 35.76 3.981 33.572 5.619 31.1 6.912 29.943 9.497c-2.1 3.768-1.039 3.594 1.361 3.42 2.348-0.171 5.981-0.342 9.19 3.186 4 7.237 5.972 5.788 13.3 6.682 3.641 0.389 6.619-2.582 9.871-3.788 4.353-1.066 9.7-0.986 14.427-1.946A1.458 1.458 0 0 1 79.84 18.539c-0.094 2-0.746 4.755 4.409 4.249A13.279 13.279 0 0 0 87.6 22.419c2.207-0.4 4.582-0.8 5.34 0.472 2.051 7.628 5.782 11.427-5.178 10.1-2.679-1.6-2.673-0.285-2.768 1.027-0.079 1.085-0.229 2.168-2.02 1.612-2.205-1.217-4.274-3.9-6.87-4.48-2.524-0.907-4.567 0.249-6.617 1.407-2.033 1.147-4.073 2.295-6.592 1.428-0.993-0.144-1.474-0.248-2.076 0.568-2.122 1.4-4.431 7.69-7.262 4.81-1.615-1.326-5.542-0.157-6.537 1.514-1.3 2.526-5.927 2.764-7.349 5.549-0.413 0.618-0.05 3.13-0.847 3.13C38.58 49.558 38.23 49.326 37.719 48.737Z"/></symbol>
  <symbol id="mn" viewBox="0 0 105.151 122.097"><path d="M0.328 17.66c-0.568 6.492 1.659 11.907 3.436 17.259 1.4 5.526 0.962 11.351 1.541 17.079-0.405 8.669 6.608 17.254 1.947 25.475-2.5 3.38 0.872 4.961 2.363 8.065 2.917 10.519-0.252 31.376 1.563 34.938 12.463 3.467 50.109 0.061 68.89 1.529 5.722 0.6 4.138-6 1.241-8.685-1.7-1.771-4.164-2.843-5.693-4.819-1.414-1.779-1.671-3.483-3.539-4.84-2.991-2.7-8.833-3.958-9.99-8.019-1.129-4.555 2.062-9.628 0.912-13.987-3.985-5.6 1.61-8.385 5.4-11.769 2.614-2.575 0.857-7.486 1.325-10.527 0.124-2.216 2.4-3.047 3.961-4.156 8.22-8.288 17.616-16.666 28.265-21.953 9.029-5.638-3.505-5.257-7.54-5.987-2.076-0.04-3.62-2.091-5.328-2.22-3.088 0.134-6.075 3-9.251 1.947-5.8-3.459-3.984-4.981-11.37-4.881-9.094-9.907-9.319-4.183-19.947-5.237-3.587-1.747-7.888-1.435-11.246-3.595-3.741-2.656-1.62-9.066-4.549-12.337-5.905-4.187-2.6 6.969-7.778 6.9-6.444 0.348-12.971 0.017-19.552 0.122-7.191-0.32-5.139 4.568-5.062 9.7"/></symbol>
  <symbol id="ms" viewBox="0 0 74.619 120.248"><path d="M67.773 61.149c1.208-19.677 4.41-40.391 6.315-52.559 0.36-2.3 0.951-5.177 0.071-6.474-0.65-1.359-3.043-2.133-4.815-1.935-18.793 1.21-37.3-2.588-42.637 2.832a27.01 27.01 0 0 0-3.858 7.249 11.122 11.122 0 0 1-1.29 3.586c-3.573 5.263-10.288 9.276-9.924 16.532 0.129 3.622 1.19 7.6 0.763 11.054a37.929 37.929 0 0 1-1.917 7.219 5.576 5.576 0 0 0 0.125 4.489c0.953 3.329 2.717 6.783 2.657 9.1a5.458 5.458 0 0 0-0.032 1.628c0.348 1.8 3.018 2.154 2.519 4.309a7.03 7.03 0 0 1-0.592 1.82c-2.889 6-5.2 11.41-9.438 14.293-3.006 2.82-4.422 8.255-5.347 12.144-0.246 1.332-0.6 2.327-0.167 3.11 0.489 0.869 1.883 1.122 2.752 1.1 4.563 0.035 30.531-0.6 32.863-0.477a7.211 7.211 0 0 1 2.556 0.515c2.925 1.275 0.269 5.37 0.54 8.391 0.893 3.191 2.113 10.68 5.554 11.172 1.431-0.036 3.28-1.329 6.353-2.366 7.364-3.508 18.208 2.322 17.222-3.82-0.582-12.431-1.343-35.153-0.285-52.713Z"/></symbol>
  <symbol id="mo" viewBox="0 0 121.842 109.773"><path d="M114.637 98.006c0.985-1.158 2.713-0.694 4.023-1.091 2.512-0.993 3.234-4.714 3.18-7.427 0.01-3.4-4.343-4.006-5.335-6.771-1.5-17.458-4.679-13.806-16.676-24.217-3.309-5.061 9.818-20.129-2.841-18.119-5.4 2.716-3.793-5.453-5.921-8.078-7.476-8.318-14.481-9.765-13.079-22.473 0.181-2.1 0.035-3.935-1.23-5.552-1.61-2.275-3.448-4.365-6.434-4.275-22.324 0.648-58.677 1.2-69.276 1.277-3.211 0.132 1.915 7.4 2.661 8.756 1.617 4.475 7.885 5.645 10.485 8.586 1.337 2.094-1.7 3.852-2.565 5.488-2.574 3.6 9.477 7.089 9.014 15.452 1.637 4.912-5.316 54.772 1.37 58.411 11.268-0.093 56.422-0.728 74.94-0.563 2.128 0.018 5.136 0.875 6.355 2.426 1.782 7.252-10.026 9.764 6.923 9.937 3.861-0.073 2.106-1.428 2.727-6.237 0.294-1.783 0.581-4.2 1.679-5.53"/></symbol>
  <symbol id="mt" viewBox="0 0 122 67.591"><path d="M120.829 59.653a0.62 0.62 0 0 0 0.624-0.62c0.057-18.179 0.209-38.5 0.547-57.414A1.362 1.362 0 0 0 120.641 0.228c-39.37-0.073-79.846-0.158-118.9-0.23a1.581 1.581 0 0 0-1.584 1.539c-0.162 6.1-0.254 13.52 0.054 14.185 0.633 0.835 1.4 1.674 2.055 2.516 1.827 1.8 0.015 5.148 2.552 6.489 5.214 2.114 5.756 11.665 11.959 10.466 2.341 0.594-2.029 14.31-1.478 16.219 2.043 3.8 4.329-3.315 6.027-0.719 1.287 1.789 4.566 6.043 5.12 8.021-0.059 2.05-0.329 3.651 2.165 4.176 2.144 0.645 1.826 2.553 2.542 4.269 1.893 1.415 5.753-1.133 8.048-0.971 1.5-0.144 3.764 0.515 5.342 0.209 1.855-1.172 2.213-4.752 4.724-1.571 2.441 1.9 0.124-4.866 2.393-5.133 8.645-0.01 63.258-0.065 69.176-0.042"/></symbol>
  <symbol id="ne" viewBox="0 0 122 56.482"><path d="M1.019 0.258a1.045 1.045 0 0 0-1.019 1.05c0.034 18.311 0.116 31.448 0.143 35.5a0.918 0.918 0 0 0 0.917 0.9c13.189-0.018 22.563-0.04 26.31-0.049h0a1.462 1.462 0 0 1 1.21 0.639 1.533 1.533 0 0 1 0.252 0.877v15.908a0.848 0.848 0 0 0 0.829 0.848c7.889 0.15 51.041 0.907 91.309 0.345a1.041 1.041 0 0 0 0.867-1.595c-1.252-2.02-2.873-5.169-4.481-8.347-3.471-4.922 1.268-11.156-2.808-16.362-3.779-3.1-1.166-7.128-3.5-10.827a20.853 20.853 0 0 0-1.33-1.834c-2.635-3.437-0.391-6.631-4.135-8.545-7.659-4.852-12.679-9.041-18.945-4.4a2.251 2.251 0 0 1-1.44 0.2c-2.7-0.57-5.275-5.466-8.922-4.31-32.036-0.35-57.339-0.351-75.258-0.005"/></symbol>
  <symbol id="nv" viewBox="0 0 82.678 121.959"><path d="M0.318 0.797c-0.806 12.608 0.217 40.533-0.031 51.283a5.511 5.511 0 0 0 1.175 3.8c28.009 26.608 64.976 61.648 71.677 66.084 0.316-0.133 0.419-0.576 0.388-0.959-0.154-1.892-0.809-8.517-1.035-10.958a3.327 3.327 0 0 1 1.6-3.573 3.856 3.856 0 0 1 4.057-0.5 2.783 2.783 0 0 0 2.564 0.129c1.517-0.834 2.012-3.586 1.968-4.726-0.181-14.5-0.62-56.308-0.014-98.759-0.1-1.312 0.019-2.307-0.66-2.614-3.935 0.234-78.274 0.14-81.652 0.742Z"/></symbol>
  <symbol id="nh" viewBox="0 0 61.114 121.216"><path d="M47.508 0.646a0.8 0.8 0 0 1 1.452 0.4c0.939 9.926 1.652 25.614 2.382 53.833 0.417 16.143 0.766 31.465 0.731 33.755-0.048 3.151 3 5.091 4.916 7-0.2 4.234 4.033 6.938 4.125 10.6-0.94 5.172-5.553 7.209-10.2 8.1-3.161 1.147-4.49 4.04-7.573 5.184-0.436 4.065-39.692-0.5-40.863 0.23-3.832-6.478-2.64-7.429-0.312-13.731 1.534-9.321 1.392-19.612 4.894-28.391 3.018-7.166 7.755-13.838 8.831-21.9 0.73-3.887-0.663-9.006 4.234-10.439 4.389-1.8 9.389-4.12 11.952-8.316 1.824-3.578-1.417-7.186-0.5-11.772 0.928-3.689 3.366-7.23 2.175-11.153 1.975-3.448 4.374-13.244 7.876-14.039 1.581 1.288 4.713 4.008 5.88 0.646"/></symbol>
  <symbol id="nj" viewBox="0 0 63.919 121.9"><path d="M62.665 50.863c-1.725-2.506-6.559-2.628-7.869-5.634-0.792-2.389 0.413-4.431 1.414-6.92 1.846-4.058 3.746-8.283 5.534-12.345 2.4-5.291 3.684-7.614-0.883-11.315-4.022-3.386-8.869-6.031-13.555-8.717-4.16-1.913-9.509-6.682-13.679-5.831a6.954 6.954 0 0 0-2.969 2.486c-2.295 2.755-6.462 7.528-9.927 11.357-1.926 2.118-3.745 4.186-4.232 7.025a154.187 154.187 0 0 0-2.01 17.126c-0.137 2.26-0.247 4.277 0.958 6.182 1.674 2.595 4.617 5.427 7.3 8.22 2.34 2.436 5.094 4.985 7.3 7.4 2.118 2.4 2.584 4.183 1.419 6.229-5.879 7.048-15.63 12.231-24.305 17.131-4.238 2.046-6.006 6.339-6.713 10.813-0.528 2.891-0.739 5.937 0.224 8.526 1.121 2.877 3.358 6.369 6.426 7.187a13.305 13.305 0 0 1 6.1 2.8c4.012 2.885 7.907 8.578 12.608 9.316 11.518-0.273 25.843-27.3 30.412-39.852 2.581-6.954 8.921-26.379 6.532-31.064Z"/></symbol>
  <symbol id="nm" viewBox="0 0 107.102 121.974"><path d="M44.22 109.294c0.325-1.619 2.149-1.981 3.626-1.915 18.486 0.436 48.362 0.717 56.76 0.612 0.745-0.187 0.969-1.208 1.018-2.031 0.141-6.18 1.458-104.7 1.478-104.277-0.085-1.038-1.914-1.4-2.911-1.352-33.485 0.4-68.259-0.764-97.2-0.147a6.825 6.825 0 0 0-6.675 6.6c-0.731 21.917 0.017 87.694 0.295 108.327a6.843 6.843 0 0 0 7.012 6.741 18.384 18.384 0 0 1 2.638 0.069c2.433 0.256 4.45-0.324 4.295-2.975-0.02-2.869-0.205-6.628 3.686-6.19 5 0.04 17.532 0.15 23.051 0.212 2.28 0.224 2.741-1.486 2.891-3.505Z"/></symbol>
  <symbol id="ny" viewBox="0 0 121.76 99.915"><path d="M121.217 91.464c-3.737-1.458-24.038 1.705-19.353-5.917 2.8-4.42 0.036-12.439 0.527-16.915 0.145-6.013 3.473-12.414 3.609-18.291-0.244-4.989 0.532-10.91-0.27-15.857-2.281-3.681-2.576-9.184-1.745-13.374 1.668-4.7-0.206-9.3-0.037-14.069 0.776-4.856-1.19-7.394-6.321-6.991-18.623-0.526-24.938 3-37.874 15.705-3.063 3.031-3.76 4.259-1.7 8.14a14.031 14.031 0 0 1-1.9 9.837c-11.73 12.125-28 0.295-41.781 6.262-6.593 1.939 0.321 8.829-3.4 12.472-2.593 2.9-7.254 5.234-9.61 8.487-2.027 2.834-2.187 7.249 2.263 7.482 16.871 1.85 52.349-3.23 70.1 1.192 3.784 1.887 4 6.292 5.007 9.664 3.776 4.115 11.878 5.994 15.771 9.946 4.064 2.716-2.5 7.876 2.053 9.831 5.383 1.236 8.975 1.337 14.673-1.184 1.415-0.612 13.169-4.8 9.99-6.42"/></symbol>
  <symbol id="nc" viewBox="0 0 122.146 46.215"><path d="M116.939 0.435c-32.589-0.279-59.413-0.456-77.522-0.433a4.525 4.525 0 0 0-1.58 2.58c-0.493 2.071-3.308 1.335-4.165 3.113-0.6 1.137-1.27 2.5-2.773 2.361-3.566-1.178-5.55 2.8-9.238 2.308-2.329 0.037-1.918 3.3-4.048 4.234-3.489 2.576-12.039 3.213-13.787 6.521-0.191 0.994-0.369 2.307-1.566 2.412-1 0.009-2.748-0.3-2.132 1.211 0.4 0.993 1.71 1.044 2.674 1.034 6.874-0.463 11.564 0.779 17.124-0.417 8.255-3.786 17.251-2.549 26.737-1.485 5 1.87 2.1 5.738 5.007 6.29 4.883 0.44 11.913-2.659 16.023 1.017 4.212 4.171 10.136 10.519 14.526 14.522 3.011 1.38 7.484-0.15 9.163-3.145 3.334-7.016 10.408-9.357 17.472-10.872a9.78 9.78 0 0 0 4.25-2.589c1.727-2.109-3.055-0.837-3.786-1.446-1.809-1.34 1.013-5.328 2.413-6.015 3.42-0.323 7.244-0.976 9.4-4.228 1.744-4.36 1.363-11.179-2.063-14.345-0.63-0.9-0.764-2.434-2.127-2.628"/></symbol>
  <symbol id="nd" viewBox="0 0 120.683 73.145"><path d="M111.326 10.476a61.7 61.7 0 0 0-0.994-8.052 2.713 2.713 0 0 0-2.672-2.258c-33.743-0.042-68.842-0.1-104.554-0.164a2.328 2.328 0 0 0-2.337 2.283c-0.4 22.409-0.637 46.057-0.769 68.621a1.74 1.74 0 0 0 1.729 1.75c13.667 0.1 85.431 0.607 117.126 0.467a1.839 1.839 0 0 0 1.827-1.908c-0.056-1.469-0.15-2.955-0.221-4.071 0.379-3.553-1.687-4.957-2.77-8.106-0.614-2.456-1.269-20.227-1.64-23.9-1.285-12.754-6.509-16.124-4.725-24.661"/></symbol>
  <symbol id="oh" viewBox="0 0 112.943 122.351"><path d="M34.482 9.106c-7.661 0.537-19.617 1.28-32.232 1.7a2.325 2.325 0 0 0-2.254 2.354c0.186 13.725 0.587 50.2 0.135 84.129-0.111 3.025 7.058 0 8.393 0.262 1.921 4.374 5.019 10.685 5.735 11.155 1.434 0.9 12.281 5.99 14.053 6.126 2.2 0.062 16.033-3.053 17.1-2.56 4.865 1.754 8.188 13.028 16.9 9.337 4.537-0.967 9.139-20.025 11.32-20.23 3.862-2.868 27.47-17.579 28.453-19.136 1.394-1.812 5.79-19.53 5.927-21.036 0.017-0.533-0.782-8.431-1.187-12.576l6.119-2.27c-0.261-19.069-0.52-36.5-0.669-46.365-29.709 7.253-22.555 19.729-51.978 18.64-7.529-1.566-17.119-9.477-25.81-9.534"/></symbol>
  <symbol id="ok" viewBox="0 0 121.997 58.415"><path d="M121.939 26.797c-0.523-4.431-2.362-16.387-2.807-19.318-0.133-1.946 0-4.514-0.1-6.722-0.124-0.631-0.7-0.787-1.33-0.752-38.824 1.088-79.612 0.566-117.313 1.453a1.024 1.024 0 0 0-0.3 0.684c-0.036 1.1-0.049 2.758-0.088 5.078 0 0.632 0.006 1.468 0.786 1.556 2.262 0.086 4.569-0.041 6.794-0.034 10.188-0.145 33.9-0.317 33.7-0.291a1.757 1.757 0 0 1 1.462 2.048c0.333 12.811 0.576 21.748 0.852 31.472-0.135 2.029 2.352 3.176 3.886 4.024 3.59 0.749 6.009-1.452 8.2 2.885a146.827 146.827 0 0 1 23.819 5.742 14.651 14.651 0 0 0 8.191 0.979c1.119 0.7 2.365-0.954 3.369-0.728 1.3 0.356 2.76 2.494 3.929 2.9 4.3-3.752 11.917-3.008 16.957-3.5 2.249-0.477 3.606 1.229 5.221 2.51 5.973 5.474 3.383-4.019 4.228-10.745 0.2-5.368 0.788-17.411 0.546-19.24"/></symbol>
  <symbol id="or" viewBox="0 0 121.955 91.346"><path d="M114.499 44.703c-1.936-3.857-6.214-2.077-2.975-6.964a62.043 62.043 0 0 1 4.066-5.546c2.893-3.577 5.2-15.25 6.294-19.353 0.549-1.893-2.214-2.987-3.722-4.518-1.464-1.022-2.688-2.49-4.5-2.563-9.285 0.578-26.067 0.131-32.68 1.35-6.4 1.2-14.4 6.476-19.521 5.544-2.749-1.977-5.6 1.065-8.291 1.8-2.706 0.984-5.955-1.35-9.158-1.368-4.595-0.007-8.616 3.941-11.986 3.143-11.24-3.439-1.964-9.969-10.553-12.757-8.277 0.547-2.229-5.32-12.3-2.862-2 0.741-0.666 3.428-0.663 4.881 0.277 14.015-2.327 30.631-2.739 45.347 0.25 8.038-5.726 14.475-5.774 22.511 3.93 7.581-0.675 13.118 4.068 17.4 1.825 1.108 47.151 0.437 78.632 0.025 12.931-0.175 20.542-0.292 28.341-0.252 1.288-0.022 1.558 0.35 2.252-0.547 0.923-9.784 1.281-40.947 1.206-45.263"/></symbol>
  <symbol id="pa" viewBox="0 0 122 71.111"><path d="M0.833 69.156a0.747 0.747 0 0 0 0.733 0.741c11.6 0.237 91.688 1.837 99.342 0.947 7.208-0.839 18.553-8.549 20.791-11.111a0.743 0.743 0 0 0 0-0.967c-0.67-0.8-2.031-2.131-3.18-3.257-3.6-3.531-5.789-5.771-5.789-7.1 0-1.195 0.663-11.963 1.908-13.457 0.224-0.269 0.767-0.859 1.519-1.675 1.238-1.343 3.886-4.217 5.493-6.2a1.56 1.56 0 0 0-0.679-2.446l-0.02-0.008c-2.41-0.887-4.149-1.6-4.578-2.67a21.578 21.578 0 0 1-0.529-5.481 28.806 28.806 0 0 0-0.164-2.894 0.554 0.554 0 0 0-0.041-0.131c-0.492-1.057-5.633-5.958-7.337-6.12-0.591-0.055-9.492 0.03-20.76 0.137-13.309 0.127-31.545-0.166-46.048 0.337-27.4 0.949-24.908-0.508-25.831-1.14-0.962-0.658-0.218-2.883-0.673-5.055a2.032 2.032 0 0 0-3.119-1.262 83.223 83.223 0 0 1-10.368 6.159 2.657 2.657 0 0 0-1.505 2.433c0.188 12.463 0.557 37.543 0.833 60.22"/></symbol>
  <symbol id="ri" viewBox="0 0 89.658 120.687"><path d="M58.94 1.088c-9.919-2.678-31.615 0.481-46.315-0.035-1.962 0.06-4.22 0.621-5.191 2.287-4.287 31 8.161 78.145-5.882 103.749-1.965 14.518-5 15.752 12.011 11.351 8.332-1.932 16.681-6.685 25.224-7.6 2.954-0.357 6.494 0.813 8.965-1.228 7.653-10.546 10.311-19.715 6.224-32 0.171-2.009 1.546-3.671 2.481-5.4 2.073-5.38 2.52-11.176 6.377-15.946 4.206-8.774 10.42-2.156 11.955 4.585 3.043 13.4-5.614 6.133-8.143-0.635-1.451-1.539-3.056 0.361-3.349 2.566-0.986 3.766 3.885 8.247 1.9 11.487-5.163-0.765-6.737 15.94-3.586 19.918 6.33 6.456 7.891-1.13 5.445-6.326-0.995-4.829-2.67-8.632 3.569-6.524 8.405-0.88-20.739 39.487 16.738 9.563 4.653-5.784 0.921-13.95 0.132-20.695-1.363-4.766 0.28-10-1.15-14.649-4.91-5.393-11.185-10.141-16.767-15.188-4.921-4.424-0.06-11.566-3.021-16.9-10.2-8.083-2.207-13.281-7.617-22.388"/></symbol>
  <symbol id="sc" viewBox="0 0 118.073 95.64"><path d="M0 16.02c0.919 2.45 4.042 4.365 6.222 5.777 7.687 1.246 6.824 11.35 12.188 15.5a54.368 54.368 0 0 1 11.322 12.594c2.138 2.17 5.113 2.843 5.087 6.12 1.3 6.051 6.888 8.3 10.76 12.373 2.982 6.243-0.909 9.14 5.89 14.466 3.627 4.5 1.164 15.4 10.219 12.212 2.33-2.139 8.568-4.99 9.823-8.3 0.4-1.189 0.36-2.835 1.326-3.709 16.242-4.379 12.3-12.812 26.431-18.446 6.945-3.659 4.816-11.316 9.977-16.317 2.139-2.977 11.985-3.915 7.8-8.609-6.179-5.647-17.4-19.9-26.814-25.971-7.648-1.56-18.275 0.719-25.986-0.734-1.578-0.227-0.67-1.871-0.854-2.931-0.124-1.457-2.925-6.632-4.752-5.7-1.75 1.233-1.625-1.551-3.2-2.62-7.6-3.108-19.03-1.041-28.737-1.2-9.692 2.793-24.268 3.713-26.7 15.492"/></symbol>
  <symbol id="sd" viewBox="0 0 122 74.508"><path d="M1.285 0a1.155 1.155 0 0 0-1.162 1.153c-0.126 23.432-0.139 45.518-0.111 63.555a0.909 0.909 0 0 0 0.93 0.911c20.271-0.4 48.944-0.4 85.277 0a8.05 8.05 0 0 1 4.86 1.113c2.188 1.2 4.122 4.482 6.453 3.608 1.065-0.446 1.975-1.295 3.137-1.55a22.707 22.707 0 0 1 6.17-0.07c3.336 0.512 5.142 2.414 8.833 4.6 1.124 0.724 3.537 2.27 3.518-0.008-0.161-3.058 1.48-6.261 1.143-9.413-1.107-4.141-2.7-6.058 1.266-9.566 0.544-1.252 0.534-13.251-0.031-35.67-0.066-2.249 0.285-4.21-1.558-5.98-3.422-3.873-6.291-4.069-1.7-8.661 1.166-1.29 1.073-2.643-0.518-3.556-3.778 0.017-105.947-0.388-116.51-0.466"/></symbol>
  <symbol id="tn" viewBox="0 0 121.908 29.196"><path d="M88.264 21.59c2.638-1.233 11.514-4.032 14.408-5.835 0.884-0.537 0.813-1.452 1.124-2.464 0.652-2.621 3.666-1.189 5.505-1.829 1.414-0.377 2.132-2.341 3.509-2.418 2.243-0.069 3.87 1.562 4.922-1.515a4.367 4.367 0 0 1 0.764-1.283c0.738-0.941 3.151-0.277 3.386-1.841 0.273-1.924-1.634-2.465-3.182-2.341-2.161-0.022-4.133-0.048-6.281-0.075-4.307-0.059-9.356-0.147-12.955-0.208-1.027-0.044-1.718 0.179-2.377-0.61-0.722-0.769-1.211-0.1-2.283 0.227a7.464 7.464 0 0 1-1.9 0.4c-13.792-0.082-48.789-1.89-61.021-1.793-1.659-0.109-0.215 2.265-1.3 3.079-1.108 0.752-2.274 0.446-3.623 0.469-4.147-0.178-13-0.155-15.712-0.5-1.9-0.736-2.5 1.369-2.856 2.853-0.4 1.427 0 2.157 0.039 3.576a7.61 7.61 0 0 1-1.074 3.8c-1.783 2.721-5.6 6.433-7.149 8.763-0.926 1.548 1.553 2.775 1.447 4.3-0.046 0.939-1.182 1.938-0.889 2.606 9.112 0.725 35.116-0.4 60.079-0.386 7.235-0.118 14.093-0.073 20.59-0.262a2.145 2.145 0 0 0 2.076-1.678 2.458 2.458 0 0 1 0.834-1.432c0.648-0.41 1.521-0.161 2.241-0.325 1.306-0.342 0.654-2.452 1.588-3.193Z"/></symbol>
  <symbol id="tx" viewBox="0 0 121.713 116.497"><path d="M118.373 74.226c-0.047-0.914 1.39-1.763 1.643-2.492-0.346-2.8-0.488-3.034 0.844-6.744 3.478-7.334-4.893-9.975-3.57-21.2 0.168-16.862-0.973-6.323-9.519-13.887a58.188 58.188 0 0 0-9.687 0.743c-0.712 0.288-1.816 1.555-2.506 1.558-0.773 0.166-1.988-2.264-3.049-1.815-0.548 0.31-1.343 0.84-1.823 0.3-6.471 0.555-14.63-4.539-20.165-4-1.71-0.223-1.775-2.993-3.846-2.133-1.827 0.619-4.792-1.2-5.206-2.673-0.44-5.587 0.178-14.243-0.9-21.873-2.005 0.006-9.754 0.042-26.325 0.245a0.66 0.66 0 0 0-0.654 0.648c-0.125 8.084 1.432 49.506-0.682 49.533-5.115 0.062-23.492 0.628-32.067 0.948-2.361 0.088 0.731 2.557 2.213 4.042 2.73 2.549 4.611 4.649 7.005 6.942 2.949 2.349 5.879 3.282 7 7.305 1.561 7.663 6.82 10.842 13.5 13.456 5.625 1.739 3.758-7.957 8.566-8.25 0.772-0.973 1.647-0.641 2.614-0.174 9.152-1.322 13.407 7.548 16.351 14.768 1.665 4.726 9.445 8.826 8.908 15.331 1.268 1.973 2.052 5.536 4.54 6.476 3.873 1.267 10.044 4.436 14.254 5.227 3.2-0.492 0.272-4.434-0.028-6.034-0.414-3.311-0.9-7.042 0.4-10.236 1.67-3-1.511-3.654-0.389-4.585 3.429-0.252 7.346-2.973 9.247-5.708 0.039-1.239-2.41-3.167 0.486-2.557 5.466 0.61 10.736-3.419 13.44-7.628 1.073-0.861-1.663-3.509 0.465-2.826 2.117 1.305 9.763 0.22 8.947-2.7"/></symbol>
  <symbol id="ut" viewBox="0 0 93.413 122.453"><path d="M93.413 121.11l-0.277-93.865a1.335 1.335 0 0 0-1.333-1.334c-11.582-0.017-23.465-0.04-35.464-0.072a0.61 0.61 0 0 1-0.609-0.608q-0.039-12.581-0.06-23.9a1.333 1.333 0 0 0-1.347-1.33L1.796 0.349a1.337 1.337 0 0 0-1.33 1.317c-0.7 45.454-0.474 91.472-0.223 118.353a1.337 1.337 0 0 0 1.313 1.325c8.381 0.144 42.45 0.7 90.5 1.109a1.344 1.344 0 0 0 1.355-1.343"/></symbol>
  <symbol id="vt" viewBox="0 0 71.282 122.521"><path d="M0.628 21.408c-0.048 3.534 2.991 14.738 3.049 18.292 0.066 3.126-2.334 5.787-3.073 8.452-0.51 2.55-1.007 23.43-0.123 25.437 1.9 1.877 5.015 1.614 5.3 6.143 0.1 1.838 0.034 8.941-0.046 17.165-0.123 10.8-0.2 22.62 0.054 25.052 3.165 0.073 12.8 0.293 25.076 0.572a2.76 2.76 0 0 0 2.77-2.205c3.335-10.633 2.455-30.14 3.212-41.452 0.807-4.773 9.248-15.377 12.569-20.78 1.808-3.671 1.095-14.88 1.012-19.557 0-3.723 10.561-6.639 12.5-6.639 11.722-5.106 7.823-10.855 7.327-27.828-0.178-6.063-55.236-3.538-65.576-3.541a3.151 3.151 0 0 0-3.157 2.964c-0.4 6.767-0.9 15.592-0.9 17.925"/></symbol>
  <symbol id="va" viewBox="0 0 121.999 58.57"><path d="M121.524 57.744c0.8-1.245 0.83-6.567-1.811-5.968-1.316 0.14-3.206 0.962-4.316-0.095-2.005-2.716-0.85-7.7-0.692-11.145 0.07-2.848 2.381-5.357 2.073-8.207-0.2-1.318-1.376-2.446-2.457-3.33-3.9-3-6.26-5.307-8.775-6.273-2.026-0.4-4.921 0.711-6.048-1.8-1.268-2.431 1.357-4.271 2.771-5.928 0.635-0.76 1.551-1.654 1-2.637-1.473-1.8-5.829-3.982-6.791-5.529-0.622-0.973 0.235-2.162-0.184-3.214-0.614-1.558-2.537-2.342-3.7-0.767-2.386 3.5-4.644 2.186-6.928-1.017-0.577-0.76-1.291-1.845-2.3-1.831-1.492 0.269-0.947 2.532-0.977 3.665a3.091 3.091 0 0 1-0.632 2.174 55.426 55.426 0 0 1-6.411 6.346c-1.211 1.146-3.1 0.072-4.391 1-1.871 1.756-2.053 7.395-4.431 7.229-3.051-0.835-4.524-5.307-6.9-0.227-4.979 9.51-8.81 19.659-13.129 22.046-1.837 1.341-3.816-0.6-5.588 0.611-1.295 0.88-1.9 2.653-3.651 2.653-1.451 0.04-2.883-0.9-4.334-0.693a10.584 10.584 0 0 0-2.752 1.064 4.1 4.1 0 0 1-5.174-2.076c-0.949-1.2-1.281-3.933-3.175-3.682a10.748 10.748 0 0 0-3.948 1.168c-4.908 3.217-9.017 8.789-12.414 13.279-1.2 1.776-3.954 1.732-5.38 3.179-0.116 0.157-0.081 0.226-0.006 0.243 0.908 0.709 85.222 0.9 121.367-0.128Z"/></symbol>
  <symbol id="wa" viewBox="0 0 121.729 80.436"><path d="M9.213 45.348c0.544 2.17 3.727 2.522 4.225 4.63a20.156 20.156 0 0 1-0.27 5.925c-0.906 5.464-2.473 7.56 3.287 7.9 1.4 0.221 2.932-0.309 4.121 0.527a5.319 5.319 0 0 1 1 1.14c0.937 1.463 2.159 1.512 4 1.593a5.557 5.557 0 0 1 2.288 0.606c6.435 3.617 1.649 5.519 4.744 9.636 1.57 1.773 3.874 3.354 6.143 3.1 3.027-0.916 6.136-2.707 9.457-3.131 3.163-0.835 6.012 1.221 9.107 1.345 2.719-0.093 4.84-2.023 7.324-2.5 2.086-0.551 4.249 1.212 6.422 0.2 14.113-5.437 22.531-6.691 39.37-6.581 1.95-0.006 4.222-0.087 6.089-0.063 3.281-0.018 5.37-0.118 5.2-3.813-1.341-8.188-0.061-43.607-0.056-63.085a2.389 2.389 0 0 0-2.612-2.636c-31.121-0.106-61.7-0.126-90.884-0.145-1.688 0.043-3.087 0.747-2.266 2.8a3.089 3.089 0 0 1 0.057 2.512c-0.568 0.991-1.622 1.813-1.511 3.066 0.067 2.106 1.939 4.673 0.853 6.656-5.209 7.847-15.744-0.235-23.406-2-3.163-0.349-1.653 10.19-0.55 12.436 4.379 5.082 6.451 14.054 7.817 19.725Z"/></symbol>
  <symbol id="wv" viewBox="0 0 121.879 108.533"><path d="M23.681 45.826c-10.894 4.833-11.987 13.855-16.649 23.43a3.041 3.041 0 0 1-1.715 1.375c-5.228 1.208-5.107 4.072-5.317 8.646 0.462 5.708 6.542 11.631 10.04 17.7 1.535 2.237 2.406 1.881 4.8 1.373 5.989 1.919 2.24 15.051 15.379 8.236 2.584-0.595 5.167 1.451 7.74 0.824 2.428-0.616 3.642-4.3 6.067-4.713 2.315-0.626 6.006 1.99 8.1 0.049 1.941-1.666 12.3-20.022 18.01-31.975 4.993-11.433 7.146-2.878 12.873-1.842 2.225-1.824 3.41-12.512 7.32-11.944 5.753 2.125 9.66-5.232 13.565-8.621 2.534-2.349 0.46-6.1 1.694-8.972 0.827-1.96 3.26-3.312 4.726-2 2.227 2.014 4.9 8.5 8.368 7.814 8.983-5.25-3.137-14.251-9.7-12.488-2.28 1.172-6.072 5.2-9.129 2.648-1.673-1.146-3.469-3.878-5.517-2.149-3.552 2.582-11.56 11.139-15.049 13.352-3.932 0.846-0.161-13.547-1.631-16.278-2.66-4.874-25.076 1.621-25.406-4.3-0.861 0.365 2.347-33.793-3.954-24.333-0.5 2.29 0.216 5.018 0.3 7.38 0.019 7.821-3.013 16.02-5.6 23.22-2.616 3.32-13.621 9.627-19.313 13.57"/></symbol>
  <symbol id="wi" viewBox="0 0 115.375 121.995"><path d="M7.614 26.299c-15.365 9.7-2.443 11.234-4.085 16.6a17.858 17.858 0 0 0-2.637 9.841c-2.585 9.731 8.608 12.738 14.769 17.03 1.727 0.979 1.682 2.475 2.212 4.133 1.748 5.575 8.553 4.924 11.923 12.2 1.816 4.487 2.008 8.909 4.612 13.065 1.519 3.986-1.4 4.582-1.134 8.965-0.095 4.247 2.42 7.081 6.074 8.823 2.757 2.243 3.682 4.417 7.37 4.49 18.624 0.446 36.649 0.433 47.889 0.535 2.941 0.193 3.978-1.551 3.425-4.4-2.19-13.4 0.639-26.074 4.834-38.644 2.576-7.062 4.774-14.5 8.085-21.3 0.879-1.783 8.04-12.985 2.07-10.879-4.5 2.244-4.708 8.392-8.829 11.069-3.5 1.682-4.766 7.537-8.525 8.163-1.7-0.985-0.141-4.464 0.976-5.779 7.5-8.454 4.185-7.335 0.491-15.054-0.423-2.781 1.089-5.438 0.558-8.517-0.478-4.065-4.724-2.524-6.161-5.766-1.679-4.554-8.8-3.822-12.945-5a225.878 225.878 0 0 1-22.987-7.747c-5.439-4.2-11.722-11.508-16.335-17.067-3.56-2.778-7.945 0.711-11.829 1.416-5.917 1.994-13.855 2.21-15.818 5.961-1.527 5.611 2.862 14.5-4 17.864"/></symbol>
  <symbol id="wy" viewBox="0 0 122 95.633"><path d="M122 93.849c-0.062-9.34-0.28-46.526-0.156-92.209a1.5 1.5 0 0 0-1.492-1.508c-12.055-0.048-74.4-0.272-118.655-0.006a1.632 1.632 0 0 0-1.624 1.628c-0.035 8.672-0.147 42.715 0 92.582a1.212 1.212 0 0 0 1.2 1.2c45.563 0.117 89.182 0.1 118.976 0.065a1.743 1.743 0 0 0 1.745-1.755"/></symbol>
</svg>
